{
.appVersion = "1342";
copyright = "©2008-2021 Robert E. Leuschke";
date = "2021-04-23 03:28:19 +0000";
designer = "Robert Leuschke";
designerURL = "http://www.typesetit.com";
disablesNiceNames = 1;
familyName = Greyqo;
featurePrefixes = (
{
automatic = 1;
code = "languagesystem DFLT dflt;\012\012languagesystem latn dflt;\012languagesystem latn AZE;\012languagesystem latn CRT;\012languagesystem latn KAZ;\012languagesystem latn TAT;\012languagesystem latn TRK;\012languagesystem latn ROM;\012languagesystem latn MOL;\012languagesystem latn CAT;\012";
name = Languagesystems;
}
);
features = (
{
automatic = 1;
code = "feature frac;\012feature locl;\012feature sups;\012feature ordn;\012";
name = aalt;
},
{
automatic = 1;
code = "lookup ccmp_Other_1 {\012	@CombiningTopAccents = [acutecomb brevecomb breveinvertedcomb caroncomb circumflexcomb commaturnedabovecomb dblgravecomb dieresiscomb dotaccentcomb gravecomb hookabovecomb hungarumlautcomb macroncomb ringcomb tildecomb];\012	@CombiningNonTopAccents = [cedillacomb dieresisbelowcomb dotbelowcomb macronbelowcomb ogonekcomb horncomb];\012	sub [i j]' @CombiningTopAccents by [idotless jdotless];\012	sub [i j]' @CombiningNonTopAccents @CombiningTopAccents by [idotless jdotless];\012} ccmp_Other_1;\012\012lookup ccmp_latn_1 {\012	lookupflag 0;\012	sub brevecomb acutecomb by brevecomb_acutecomb;\012	sub brevecomb gravecomb by brevecomb_gravecomb;\012	sub brevecomb hookabovecomb by brevecomb_hookabovecomb;\012	sub brevecomb tildecomb by brevecomb_tildecomb;\012	sub circumflexcomb acutecomb by circumflexcomb_acutecomb;\012	sub circumflexcomb gravecomb by circumflexcomb_gravecomb;\012	sub circumflexcomb hookabovecomb by circumflexcomb_hookabovecomb;\012	sub circumflexcomb tildecomb by circumflexcomb_tildecomb;\012} ccmp_latn_1;\012\012script latn;\012lookup ccmp_latn_1;\012";
name = ccmp;
},
{
automatic = 1;

glyphs = (
{
glyphname = A;
lastChange = "2021-04-19 06:54:11 +0000";
layers = (
{
hints = (
{
horizontal = 1;
place = "{-7, 21}";
target = up;
type = BottomGhost;
},
{
horizontal = 1;
place = "{218, 24}";
type = Stem;
},
{
horizontal = 1;
place = "{573, -20}";
target = down;
type = TopGhost;
},
{
horizontal = 1;
place = "{624, -20}";
target = down;
type = TopGhost;
},
{
place = "{16, 17}";
type = Stem;
},
{
place = "{200, 36}";
type = Stem;
},
{
place = "{549, 61}";
type = Stem;
}
);
layerId = "C2A7C206-1962-4FAA-88DB-FE8C23752EC9";
paths = (
{
closed = 1;
nodes = (
"691 155 OFFCURVE",
"682 157 OFFCURVE",
"681 155 CURVE",
"668 139 OFFCURVE",
"637 98 OFFCURVE",
"633 94 CURVE SMOOTH",
"594 47 OFFCURVE",
"497 -36 OFFCURVE",
"516 98 CURVE SMOOTH",
"522 139 OFFCURVE",
"535 189 OFFCURVE",
"545 219 CURVE",
"573 217 OFFCURVE",
"591 208 OFFCURVE",
"582 192 CURVE SMOOTH",
"578 183 OFFCURVE",
"587 182 OFFCURVE",
"592 191 CURVE SMOOTH",
"601 207 OFFCURVE",
"586 231 OFFCURVE",
"550 234 CURVE",
"576 318 OFFCURVE",
"607 401 OFFCURVE",
"643 480 CURVE SMOOTH",
"651 497 OFFCURVE",
"666 518 OFFCURVE",
"678 527 CURVE SMOOTH",
"681 529 OFFCURVE",
"681 542 OFFCURVE",
"669 536 CURVE SMOOTH",
"653 529 OFFCURVE",
"629 504 OFFCURVE",
"622 496 CURVE",
"606 493 OFFCURVE",
"595 487 OFFCURVE",
"586 476 CURVE SMOOTH",
"572 460 OFFCURVE",
"561 445 OFFCURVE",
"546 426 CURVE SMOOTH",
"506 371 OFFCURVE",
"457 296 OFFCURVE",
"406 227 CURVE",
"369 222 OFFCURVE",
"333 215 OFFCURVE",
"305 211 CURVE SMOOTH",
"292 209 OFFCURVE",
"274 197 OFFCURVE",
"266 187 CURVE SMOOTH",
"261 179 OFFCURVE",
"261 172 OFFCURVE",
"291 176 CURVE SMOOTH",
"303 177 OFFCURVE",
"319 182 OFFCURVE",
"338 187 CURVE SMOOTH",
"352 191 OFFCURVE",
"368 195 OFFCURVE",
"384 198 CURVE",
"349 153 OFFCURVE",
"313 112 OFFCURVE",
"279 84 CURVE SMOOTH",
"167 -6 OFFCURVE",
"41 3 OFFCURVE",
"34 166 CURVE",
"33 169 OFFCURVE",
"40 184 OFFCURVE",
"37 188 CURVE SMOOTH",
"34 193 OFFCURVE",
"24 184 OFFCURVE",
"21 169 CURVE SMOOTH",
"0 83 OFFCURVE",
"37 -14 OFFCURVE",
"140 -14 CURVE SMOOTH",
"246 -15 OFFCURVE",
"336 92 OFFCURVE",
"413 204 CURVE",
"433 208 OFFCURVE",
"469 215 OFFCURVE",
"503 218 CURVE SMOOTH",
"507 218 OFFCURVE",
"510 219 OFFCURVE",
"514 219 CURVE",
"498 179 OFFCURVE",
"482 135 OFFCURVE",
"473 99 CURVE SMOOTH",
"460 46 OFFCURVE",
"465 -1 OFFCURVE",
"496 -9 CURVE SMOOTH",
"546 -22 OFFCURVE",
"610 51 OFFCURVE",
"638 85 CURVE SMOOTH",
"655 106 OFFCURVE",
"674 131 OFFCURVE",
"689 152 CURVE SMOOTH"
);
},
{
closed = 1;
nodes = (
"672 560 OFFCURVE",
"667 567 OFFCURVE",
"661 561 CURVE SMOOTH",
"637 535 OFFCURVE",
"440 504 OFFCURVE",
"358 494 CURVE SMOOTH",
"265 482 OFFCURVE",
"106 470 OFFCURVE",
"171 332 CURVE SMOOTH",
"179 314 OFFCURVE",
"193 297 OFFCURVE",
"200 278 CURVE SMOOTH",
"222 217 OFFCURVE",
"161 165 OFFCURVE",
"134 178 CURVE SMOOTH",
"126 182 OFFCURVE",
"122 175 OFFCURVE",
"129 172 CURVE SMOOTH",
"172 151 OFFCURVE",
"249 196 OFFCURVE",
"225 261 CURVE SMOOTH",
"213 296 OFFCURVE",
"178 330 OFFCURVE",
"179 369 CURVE SMOOTH",
"180 406 OFFCURVE",
"210 433 OFFCURVE",
"270 450 CURVE SMOOTH",
"363 475 OFFCURVE",
"629 514 OFFCURVE",
"666 554 CURVE SMOOTH"
);
},
{
closed = 1;
nodes = (
"474 295 OFFCURVE",
"514 359 OFFCURVE",
"550 402 CURVE SMOOTH",
"573 428 OFFCURVE",
"591 427 OFFCURVE",
"591 423 CURVE SMOOTH",
"591 413 OFFCURVE",
"569 355 OFFCURVE",
"546 296 CURVE SMOOTH",
"540 280 OFFCURVE",
"531 259 OFFCURVE",
"521 235 CURVE",
"494 235 OFFCURVE",
"464 234 OFFCURVE",
"431 231 CURVE"
);
}
);
width = 591;
}
);
note = A;
unicode = 0041;
},
{
glyphname = Aacute;
lastChange = "2021-04-19 06:54:11 +0000";
layers = (
{
hints = (
{
horizontal = 1;
place = "{-7, 21}";
target = up;
type = BottomGhost;
},
{
horizontal = 1;
place = "{218, 24}";
type = Stem;
},
{
horizontal = 1;
place = "{573, -20}";
target = down;
type = TopGhost;
},
{
horizontal = 1;
place = "{624, -20}";
target = down;
type = TopGhost;
},
{
place = "{16, 17}";
type = Stem;
},
{
place = "{200, 36}";
type = Stem;
},
{
place = "{549, 61}";
type = Stem;
}
);
layerId = "C2A7C206-1962-4FAA-88DB-FE8C23752EC9";
paths = (
{
closed = 1;
nodes = (
"691 155 OFFCURVE",
"682 157 OFFCURVE",
"681 155 CURVE",
"668 139 OFFCURVE",
"637 98 OFFCURVE",
"633 94 CURVE SMOOTH",
"594 47 OFFCURVE",
"497 -36 OFFCURVE",
"516 98 CURVE SMOOTH",
"522 139 OFFCURVE",
"535 189 OFFCURVE",
"545 219 CURVE",
"573 217 OFFCURVE",
"591 208 OFFCURVE",
"582 192 CURVE SMOOTH",
"578 183 OFFCURVE",
"587 182 OFFCURVE",
"592 191 CURVE SMOOTH",
"601 207 OFFCURVE",
"586 231 OFFCURVE",
"550 234 CURVE",
"576 318 OFFCURVE",
"607 401 OFFCURVE",
"643 480 CURVE SMOOTH",
"651 497 OFFCURVE",
"666 518 OFFCURVE",
"678 527 CURVE SMOOTH",
"681 529 OFFCURVE",
"681 542 OFFCURVE",
"669 536 CURVE SMOOTH",
"653 529 OFFCURVE",
"629 504 OFFCURVE",
"622 496 CURVE",
"606 493 OFFCURVE",
"595 487 OFFCURVE",
"586 476 CURVE SMOOTH",
"572 460 OFFCURVE",
"561 445 OFFCURVE",
"546 426 CURVE SMOOTH",
"506 371 OFFCURVE",
"457 296 OFFCURVE",
"406 227 CURVE",
"369 222 OFFCURVE",
"333 215 OFFCURVE",
"305 211 CURVE SMOOTH",
"292 209 OFFCURVE",
"274 197 OFFCURVE",
"266 187 CURVE SMOOTH",
"261 179 OFFCURVE",
"261 172 OFFCURVE",
"291 176 CURVE SMOOTH",
"303 177 OFFCURVE",
"319 182 OFFCURVE",
"338 187 CURVE SMOOTH",
"352 191 OFFCURVE",
"368 195 OFFCURVE",
"384 198 CURVE",
"349 153 OFFCURVE",
"313 112 OFFCURVE",
"279 84 CURVE SMOOTH",
"167 -6 OFFCURVE",
"41 3 OFFCURVE",
"34 166 CURVE",
"33 169 OFFCURVE",
"40 184 OFFCURVE",
"37 188 CURVE SMOOTH",
"34 193 OFFCURVE",
"24 184 OFFCURVE",
"21 169 CURVE SMOOTH",
"0 83 OFFCURVE",
"37 -14 OFFCURVE",
"140 -14 CURVE SMOOTH",
"246 -15 OFFCURVE",
"336 92 OFFCURVE",
"413 204 CURVE",
"433 208 OFFCURVE",
"469 215 OFFCURVE",
"503 218 CURVE SMOOTH",
"507 218 OFFCURVE",
"510 219 OFFCURVE",
"514 219 CURVE",
"498 179 OFFCURVE",
"482 135 OFFCURVE",
"473 99 CURVE SMOOTH",
"460 46 OFFCURVE",
"465 -1 OFFCURVE",
"496 -9 CURVE SMOOTH",
"546 -22 OFFCURVE",
"610 51 OFFCURVE",
"638 85 CURVE SMOOTH",
"655 106 OFFCURVE",
"674 131 OFFCURVE",
"689 152 CURVE SMOOTH"
);
},
{
closed = 1;
nodes = (
"672 560 OFFCURVE",
"667 567 OFFCURVE",
"661 561 CURVE SMOOTH",
"637 535 OFFCURVE",
"440 504 OFFCURVE",
"358 494 CURVE SMOOTH",
"265 482 OFFCURVE",
"106 470 OFFCURVE",
"171 332 CURVE SMOOTH",
"179 314 OFFCURVE",
"193 297 OFFCURVE",
"200 278 CURVE SMOOTH",
"222 217 OFFCURVE",
"161 165 OFFCURVE",
"134 178 CURVE SMOOTH",
"126 182 OFFCURVE",
"122 175 OFFCURVE",
"129 172 CURVE SMOOTH",
"172 151 OFFCURVE",
"249 196 OFFCURVE",
"225 261 CURVE SMOOTH",
"213 296 OFFCURVE",
"178 330 OFFCURVE",
"179 369 CURVE SMOOTH",
"180 406 OFFCURVE",
"210 433 OFFCURVE",
"270 450 CURVE SMOOTH",
"363 475 OFFCURVE",
"629 514 OFFCURVE",
"666 554 CURVE SMOOTH"
);
},
{
closed = 1;
nodes = (
"474 295 OFFCURVE",
"514 359 OFFCURVE",
"550 402 CURVE SMOOTH",
"573 428 OFFCURVE",
"591 427 OFFCURVE",
"591 423 CURVE SMOOTH",
"591 413 OFFCURVE",
"569 355 OFFCURVE",
"546 296 CURVE SMOOTH",
"540 280 OFFCURVE",
"531 259 OFFCURVE",
"521 235 CURVE",
"494 235 OFFCURVE",
"464 234 OFFCURVE",
"431 231 CURVE"
);
},
{
closed = 1;
nodes = (
"767 679 OFFCURVE",
"763 692 OFFCURVE",
"752 691 CURVE SMOOTH",
"748 691 OFFCURVE",
"743 689 OFFCURVE",
"738 685 CURVE SMOOTH",
"719 673 OFFCURVE",
"687 650 OFFCURVE",
"644 618 CURVE SMOOTH",
"593 579 OFFCURVE",
"603 582 OFFCURVE",
"601 575 CURVE SMOOTH",
"600 572 OFFCURVE",
"603 571 OFFCURVE",
"605 571 CURVE SMOOTH",
"615 571 OFFCURVE",
"620 574 OFFCURVE",
"703 627 CURVE SMOOTH",
"723 640 OFFCURVE",
"739 649 OFFCURVE",
"749 655 CURVE SMOOTH",
"754 659 OFFCURVE",
"758 663 OFFCURVE",
"761 668 CURVE SMOOTH"
);
}
);
width = 591;
}
);
note = Aacute;
unicode = 00C1;
},
{
glyphname = Acircumflex;
lastChange = "2021-04-19 06:54:11 +0000";
layers = (
{
hints = (
{
horizontal = 1;
place = "{-7, 21}";
target = up;
type = BottomGhost;
},
{
horizontal = 1;
place = "{218, 24}";
type = Stem;
},
{
horizontal = 1;
place = "{573, -20}";
target = down;
type = TopGhost;
},
{
horizontal = 1;
place = "{624, -20}";
target = down;
type = TopGhost;
},
{
place = "{16, 17}";
type = Stem;
},
{
place = "{200, 36}";
type = Stem;
},
{
place = "{549, 61}";
type = Stem;
}
);
layerId = "C2A7C206-1962-4FAA-88DB-FE8C23752EC9";
paths = (
{
closed = 1;
nodes = (
"691 155 OFFCURVE",
"682 157 OFFCURVE",
"681 155 CURVE",
"668 139 OFFCURVE",
"637 98 OFFCURVE",
"633 94 CURVE SMOOTH",
"594 47 OFFCURVE",
"497 -36 OFFCURVE",
"516 98 CURVE SMOOTH",
"522 139 OFFCURVE",
"535 189 OFFCURVE",
"545 219 CURVE",
"573 217 OFFCURVE",
"591 208 OFFCURVE",
"582 192 CURVE SMOOTH",
"578 183 OFFCURVE",
"587 182 OFFCURVE",
"592 191 CURVE SMOOTH",
"601 207 OFFCURVE",
"586 231 OFFCURVE",
"550 234 CURVE",
"576 318 OFFCURVE",
"607 401 OFFCURVE",
"643 480 CURVE SMOOTH",
"651 497 OFFCURVE",
"666 518 OFFCURVE",
"678 527 CURVE SMOOTH",
"681 529 OFFCURVE",
"681 542 OFFCURVE",
"669 536 CURVE SMOOTH",
"653 529 OFFCURVE",
"629 504 OFFCURVE",
"622 496 CURVE",
"606 493 OFFCURVE",
"595 487 OFFCURVE",
"586 476 CURVE SMOOTH",
"572 460 OFFCURVE",
"561 445 OFFCURVE",
"546 426 CURVE SMOOTH",
"506 371 OFFCURVE",
"457 296 OFFCURVE",
"406 227 CURVE",
"369 222 OFFCURVE",
"333 215 OFFCURVE",
"305 211 CURVE SMOOTH",
"292 209 OFFCURVE",
"274 197 OFFCURVE",
"266 187 CURVE SMOOTH",
"261 179 OFFCURVE",
"261 172 OFFCURVE",
"291 176 CURVE SMOOTH",
"303 177 OFFCURVE",
"319 182 OFFCURVE",
"338 187 CURVE SMOOTH",
"352 191 OFFCURVE",
"368 195 OFFCURVE",
"384 198 CURVE",
"349 153 OFFCURVE",
"313 112 OFFCURVE",
"279 84 CURVE SMOOTH",
"167 -6 OFFCURVE",
"41 3 OFFCURVE",
"34 166 CURVE",
"33 169 OFFCURVE",
"40 184 OFFCURVE",
"37 188 CURVE SMOOTH",
"34 193 OFFCURVE",
"24 184 OFFCURVE",
"21 169 CURVE SMOOTH",
"0 83 OFFCURVE",
"37 -14 OFFCURVE",
"140 -14 CURVE SMOOTH",
"246 -15 OFFCURVE",
"336 92 OFFCURVE",
"413 204 CURVE",
"433 208 OFFCURVE",
"469 215 OFFCURVE",
"503 218 CURVE SMOOTH",
"507 218 OFFCURVE",
"510 219 OFFCURVE",
"514 219 CURVE",
"498 179 OFFCURVE",
"482 135 OFFCURVE",
"473 99 CURVE SMOOTH",
"460 46 OFFCURVE",
"465 -1 OFFCURVE",
"496 -9 CURVE SMOOTH",
"546 -22 OFFCURVE",
"610 51 OFFCURVE",
"638 85 CURVE SMOOTH",
"655 106 OFFCURVE",
"674 131 OFFCURVE",
"689 152 CURVE SMOOTH"
);
},
{
closed = 1;
nodes = (
"672 560 OFFCURVE",
"667 567 OFFCURVE",
"661 561 CURVE SMOOTH",
"637 535 OFFCURVE",
"440 504 OFFCURVE",
"358 494 CURVE SMOOTH",
"265 482 OFFCURVE",
"106 470 OFFCURVE",
"171 332 CURVE SMOOTH",
"179 314 OFFCURVE",
"193 297 OFFCURVE",
"200 278 CURVE SMOOTH",
"222 217 OFFCURVE",
"161 165 OFFCURVE",
"134 178 CURVE SMOOTH",
"126 182 OFFCURVE",
"122 175 OFFCURVE",
"129 172 CURVE SMOOTH",
"172 151 OFFCURVE",
"249 196 OFFCURVE",
"225 261 CURVE SMOOTH",
"213 296 OFFCURVE",
"178 330 OFFCURVE",
"179 369 CURVE SMOOTH",
"180 406 OFFCURVE",
"210 433 OFFCURVE",
"270 450 CURVE SMOOTH",
"363 475 OFFCURVE",
"629 514 OFFCURVE",
"666 554 CURVE SMOOTH"
);
},
{
closed = 1;
nodes = (
"474 295 OFFCURVE",
"514 359 OFFCURVE",
"550 402 CURVE SMOOTH",
"573 428 OFFCURVE",
"591 427 OFFCURVE",
"591 423 CURVE SMOOTH",
"591 413 OFFCURVE",
"569 355 OFFCURVE",
"546 296 CURVE SMOOTH",
"540 280 OFFCURVE",
"531 259 OFFCURVE",
"521 235 CURVE",
"494 235 OFFCURVE",
"464 234 OFFCURVE",
"431 231 CURVE"
);
},
{
closed = 1;
nodes = (
"744 583 OFFCURVE",
"743 609 OFFCURVE",
"739 658 CURVE SMOOTH",
"739 659 OFFCURVE",
"737 661 OFFCURVE",
"730 661 CURVE SMOOTH",
"725 661 OFFCURVE",
"719 661 OFFCURVE",
"710 659 CURVE",
"581 582 LINE",
"582 579 OFFCURVE",
"584 578 OFFCURVE",
"589 578 CURVE SMOOTH",
"593 578 OFFCURVE",
"633 596 OFFCURVE",
"708 630 CURVE",
"725 582 LINE",
"727 579 OFFCURVE",
"730 577 OFFCURVE",
"735 577 CURVE SMOOTH",
"741 578 OFFCURVE",
"743 580 OFFCURVE",
"744 582 CURVE"
);
}
);
width = 591;
}
);
note = Acircumflex;
unicode = 00C2;
},
{
glyphname = Adieresis;
lastChange = "2021-04-19 06:54:11 +0000";
layers = (
{
hints = (
{
horizontal = 1;
place = "{-11, 36}";
type = Stem;
},
{
horizontal = 1;
place = "{220, 14}";
type = Stem;
},
{
place = "{15, 18}";
type = Stem;
},
{
place = "{155, 24}";
type = Stem;
},
{
place = "{204, 25}";
type = Stem;
},
{
place = "{465, 48}";
type = Stem;
}
);
layerId = "C2A7C206-1962-4FAA-88DB-FE8C23752EC9";
paths = (
{
closed = 1;
nodes = (
"691 155 OFFCURVE",
"682 157 OFFCURVE",
"681 155 CURVE",
"668 139 OFFCURVE",
"637 98 OFFCURVE",
"633 94 CURVE SMOOTH",
"594 47 OFFCURVE",
"497 -36 OFFCURVE",
"516 98 CURVE SMOOTH",
"522 139 OFFCURVE",
"535 189 OFFCURVE",
"545 219 CURVE",
"573 217 OFFCURVE",
"591 208 OFFCURVE",
"582 192 CURVE SMOOTH",
"578 183 OFFCURVE",
"587 182 OFFCURVE",
"592 191 CURVE SMOOTH",
"601 207 OFFCURVE",
"586 231 OFFCURVE",
"550 234 CURVE",
"576 318 OFFCURVE",
"607 401 OFFCURVE",
"643 480 CURVE SMOOTH",
"651 497 OFFCURVE",
"666 518 OFFCURVE",
"678 527 CURVE SMOOTH",
"681 529 OFFCURVE",
"681 542 OFFCURVE",
"669 536 CURVE SMOOTH",
"653 529 OFFCURVE",
"629 504 OFFCURVE",
"622 496 CURVE",
"606 493 OFFCURVE",
"595 487 OFFCURVE",
"586 476 CURVE SMOOTH",
"572 460 OFFCURVE",
"561 445 OFFCURVE",
"546 426 CURVE SMOOTH",
"506 371 OFFCURVE",
"457 296 OFFCURVE",
"406 227 CURVE",
"369 222 OFFCURVE",
"333 215 OFFCURVE",
"305 211 CURVE SMOOTH",
"292 209 OFFCURVE",
"274 197 OFFCURVE",
"266 187 CURVE SMOOTH",
"261 179 OFFCURVE",
"261 172 OFFCURVE",
"291 176 CURVE SMOOTH",
"303 177 OFFCURVE",
"319 182 OFFCURVE",
"338 187 CURVE SMOOTH",
"352 191 OFFCURVE",
"368 195 OFFCURVE",
"384 198 CURVE",
"349 153 OFFCURVE",
"313 112 OFFCURVE",
"279 84 CURVE SMOOTH",
"167 -6 OFFCURVE",
"41 3 OFFCURVE",
"34 166 CURVE",
"33 169 OFFCURVE",
"40 184 OFFCURVE",
"37 188 CURVE SMOOTH",
"34 193 OFFCURVE",
"24 184 OFFCURVE",
"21 169 CURVE SMOOTH",
"0 83 OFFCURVE",
"37 -14 OFFCURVE",
"140 -14 CURVE SMOOTH",
"246 -15 OFFCURVE",
"336 92 OFFCURVE",
"413 204 CURVE",
"433 208 OFFCURVE",
"469 215 OFFCURVE",
"503 218 CURVE SMOOTH",
"507 218 OFFCURVE",
"510 219 OFFCURVE",
"514 219 CURVE",
"498 179 OFFCURVE",
"482 135 OFFCURVE",
"473 99 CURVE SMOOTH",
"460 46 OFFCURVE",
"465 -1 OFFCURVE",
"496 -9 CURVE SMOOTH",
"546 -22 OFFCURVE",
"610 51 OFFCURVE",
"638 85 CURVE SMOOTH",
"655 106 OFFCURVE",
"674 131 OFFCURVE",
"689 152 CURVE SMOOTH"
);
},
{
closed = 1;
nodes = (
"672 560 OFFCURVE",
"667 567 OFFCURVE",
"661 561 CURVE SMOOTH",
"637 535 OFFCURVE",
"440 504 OFFCURVE",
"358 494 CURVE SMOOTH",
"265 482 OFFCURVE",
"106 470 OFFCURVE",
"171 332 CURVE SMOOTH",
"179 314 OFFCURVE",
"193 297 OFFCURVE",
"200 278 CURVE SMOOTH",
"222 217 OFFCURVE",
"161 165 OFFCURVE",
"134 178 CURVE SMOOTH",
"126 182 OFFCURVE",
"122 175 OFFCURVE",
"129 172 CURVE SMOOTH",
"172 151 OFFCURVE",
"249 196 OFFCURVE",
"225 261 CURVE SMOOTH",
"213 296 OFFCURVE",
"178 330 OFFCURVE",
"179 369 CURVE SMOOTH",
"180 406 OFFCURVE",
"210 433 OFFCURVE",
"270 450 CURVE SMOOTH",
"363 475 OFFCURVE",
"629 514 OFFCURVE",
"666 554 CURVE SMOOTH"
);
},
{
closed = 1;
nodes = (
"474 295 OFFCURVE",
"514 359 OFFCURVE",
"550 402 CURVE SMOOTH",
"573 428 OFFCURVE",
"591 427 OFFCURVE",
"591 423 CURVE SMOOTH",
"591 413 OFFCURVE",
"569 355 OFFCURVE",
"546 296 CURVE SMOOTH",
"540 280 OFFCURVE",
"531 259 OFFCURVE",
"521 235 CURVE",
"494 235 OFFCURVE",
"464 234 OFFCURVE",
"431 231 CURVE"
);
},
{
closed = 1;
nodes = (
"786 661 OFFCURVE",
"785 663 OFFCURVE",
"781 664 CURVE",
"771 664 OFFCURVE",
"760 660 OFFCURVE",
"749 651 CURVE SMOOTH",
"738 642 OFFCURVE",
"731 633 OFFCURVE",
"728 623 CURVE SMOOTH",
"724 610 OFFCURVE",
"725 600 OFFCURVE",
"735 600 CURVE SMOOTH",
"750 600 OFFCURVE",
"761 606 OFFCURVE",
"765 618 CURVE SMOOTH",
"766 622 OFFCURVE",
"769 628 OFFCURVE",
"775 638 CURVE SMOOTH",
"781 647 OFFCURVE",
"784 655 OFFCURVE",
"786 659 CURVE"
);
},
{
closed = 1;
nodes = (
"689 661 OFFCURVE",
"688 663 OFFCURVE",
"683 664 CURVE",
"673 664 OFFCURVE",
"663 660 OFFCURVE",
"652 651 CURVE SMOOTH",
"641 642 OFFCURVE",
"634 633 OFFCURVE",
"631 623 CURVE SMOOTH",
"627 610 OFFCURVE",
"628 600 OFFCURVE",
"637 600 CURVE SMOOTH",
"653 600 OFFCURVE",
"664 606 OFFCURVE",
"667 618 CURVE SMOOTH",
"668 622 OFFCURVE",
"672 628 OFFCURVE",
"677 638 CURVE SMOOTH",
"683 647 OFFCURVE",
"687 655 OFFCURVE",
"688 659 CURVE SMOOTH"
);
}
);
width = 591;
}
);
note = Adieresis;
unicode = 00C4;
},
{
glyphname = Agrave;
lastChange = "2021-04-19 06:54:11 +0000";
layers = (
{
hints = (
{
horizontal = 1;
place = "{-7, 21}";
target = up;
type = BottomGhost;
},
{
horizontal = 1;
place = "{218, 24}";
type = Stem;
},
{
horizontal = 1;
place = "{573, -20}";
target = down;
type = TopGhost;
},
{
horizontal = 1;
place = "{624, -20}";
target = down;
type = TopGhost;
},
{
place = "{16, 17}";
type = Stem;
},
{
place = "{200, 36}";
type = Stem;
},
{
place = "{549, 61}";
type = Stem;
}
);
layerId = "C2A7C206-1962-4FAA-88DB-FE8C23752EC9";
paths = (
{
closed = 1;
nodes = (
"691 155 OFFCURVE",
"682 157 OFFCURVE",
"681 155 CURVE",
"668 139 OFFCURVE",
"637 98 OFFCURVE",
"633 94 CURVE SMOOTH",
"594 47 OFFCURVE",
"497 -36 OFFCURVE",
"516 98 CURVE SMOOTH",
"522 139 OFFCURVE",
"535 189 OFFCURVE",
"545 219 CURVE",
"573 217 OFFCURVE",
"591 208 OFFCURVE",
"582 192 CURVE SMOOTH",
"578 183 OFFCURVE",
"587 182 OFFCURVE",
"592 191 CURVE SMOOTH",
"601 207 OFFCURVE",
"586 231 OFFCURVE",
"550 234 CURVE",
"576 318 OFFCURVE",
"607 401 OFFCURVE",
"643 480 CURVE SMOOTH",
"651 497 OFFCURVE",
"666 518 OFFCURVE",
"678 527 CURVE SMOOTH",
"681 529 OFFCURVE",
"681 542 OFFCURVE",
"669 536 CURVE SMOOTH",
"653 529 OFFCURVE",
"629 504 OFFCURVE",
"622 496 CURVE",
"606 493 OFFCURVE",
"595 487 OFFCURVE",
"586 476 CURVE SMOOTH",
"572 460 OFFCURVE",
"561 445 OFFCURVE",
"546 426 CURVE SMOOTH",
"506 371 OFFCURVE",
"457 296 OFFCURVE",
"406 227 CURVE",
"369 222 OFFCURVE",
"333 215 OFFCURVE",
"305 211 CURVE SMOOTH",
"292 209 OFFCURVE",
"274 197 OFFCURVE",
"266 187 CURVE SMOOTH",
"261 179 OFFCURVE",
"261 172 OFFCURVE",
"291 176 CURVE SMOOTH",
"303 177 OFFCURVE",
"319 182 OFFCURVE",
"338 187 CURVE SMOOTH",
"352 191 OFFCURVE",
"368 195 OFFCURVE",
"384 198 CURVE",
"349 153 OFFCURVE",
"313 112 OFFCURVE",
"279 84 CURVE SMOOTH",
"167 -6 OFFCURVE",
"41 3 OFFCURVE",
"34 166 CURVE",
"33 169 OFFCURVE",
"40 184 OFFCURVE",
"37 188 CURVE SMOOTH",
"34 193 OFFCURVE",
"24 184 OFFCURVE",
"21 169 CURVE SMOOTH",
"0 83 OFFCURVE",
"37 -14 OFFCURVE",
"140 -14 CURVE SMOOTH",
"246 -15 OFFCURVE",
"336 92 OFFCURVE",
"413 204 CURVE",
"433 208 OFFCURVE",
"469 215 OFFCURVE",
"503 218 CURVE SMOOTH",
"507 218 OFFCURVE",
"510 219 OFFCURVE",
"514 219 CURVE",
"498 179 OFFCURVE",
"482 135 OFFCURVE",
"473 99 CURVE SMOOTH",
"460 46 OFFCURVE",
"465 -1 OFFCURVE",
"496 -9 CURVE SMOOTH",
"546 -22 OFFCURVE",
"610 51 OFFCURVE",
"638 85 CURVE SMOOTH",
"655 106 OFFCURVE",
"674 131 OFFCURVE",
"689 152 CURVE SMOOTH"
);
},
{
closed = 1;
nodes = (
"672 560 OFFCURVE",
"667 567 OFFCURVE",
"661 561 CURVE SMOOTH",
"637 535 OFFCURVE",
"440 504 OFFCURVE",
"358 494 CURVE SMOOTH",
"265 482 OFFCURVE",
"106 470 OFFCURVE",
"171 332 CURVE SMOOTH",
"179 314 OFFCURVE",
"193 297 OFFCURVE",
"200 278 CURVE SMOOTH",
"222 217 OFFCURVE",
"161 165 OFFCURVE",
"134 178 CURVE SMOOTH",
"126 182 OFFCURVE",
"122 175 OFFCURVE",
"129 172 CURVE SMOOTH",
"172 151 OFFCURVE",
"249 196 OFFCURVE",
"225 261 CURVE SMOOTH",
"213 296 OFFCURVE",
"178 330 OFFCURVE",
"179 369 CURVE SMOOTH",
"180 406 OFFCURVE",
"210 433 OFFCURVE",
"270 450 CURVE SMOOTH",
"363 475 OFFCURVE",
"629 514 OFFCURVE",
"666 554 CURVE SMOOTH"
);
},
{
closed = 1;
nodes = (
"474 295 OFFCURVE",
"514 359 OFFCURVE",
"550 402 CURVE SMOOTH",
"573 428 OFFCURVE",
"591 427 OFFCURVE",
"591 423 CURVE SMOOTH",
"591 413 OFFCURVE",
"569 355 OFFCURVE",
"546 296 CURVE SMOOTH",
"540 280 OFFCURVE",
"531 259 OFFCURVE",
"521 235 CURVE",
"494 235 OFFCURVE",
"464 234 OFFCURVE",
"431 231 CURVE"
);
},
{
closed = 1;
nodes = (
"720 593 OFFCURVE",
"706 608 OFFCURVE",
"679 632 CURVE SMOOTH",
"653 655 OFFCURVE",
"637 668 OFFCURVE",
"633 668 CURVE SMOOTH",
"621 668 OFFCURVE",
"613 661 OFFCURVE",
"610 648 CURVE",
"608 644 OFFCURVE",
"610 640 OFFCURVE",
"613 637 CURVE SMOOTH",
"622 630 OFFCURVE",
"639 620 OFFCURVE",
"662 607 CURVE SMOOTH",
"689 591 OFFCURVE",
"706 583 OFFCURVE",
"713 583 CURVE",
"717 584 OFFCURVE",
"718 586 OFFCURVE",
"718 587 CURVE"
);
}
);
width = 591;
}
);
note = Agrave;
unicode = 00C0;
},
{
glyphname = Aring;
lastChange = "2021-04-19 06:54:11 +0000";
layers = (
{
hints = (
{
horizontal = 1;
place = "{-11, 36}";
type = Stem;
},
{
horizontal = 1;
place = "{622, 12}";
type = Stem;
},
{
place = "{15, 18}";
type = Stem;
},
{
place = "{155, 24}";
type = Stem;
},
{
place = "{204, 25}";
type = Stem;
},
{
place = "{465, 48}";
type = Stem;
}
);
layerId = "C2A7C206-1962-4FAA-88DB-FE8C23752EC9";
paths = (
{
closed = 1;
nodes = (
"755 621 OFFCURVE",
"749 634 OFFCURVE",
"727 634 CURVE SMOOTH",
"710 634 OFFCURVE",
"695 626 OFFCURVE",
"683 611 CURVE",
"674 608 OFFCURVE",
"666 600 OFFCURVE",
"657 589 CURVE SMOOTH",
"648 577 OFFCURVE",
"643 566 OFFCURVE",
"640 556 CURVE SMOOTH",
"639 553 OFFCURVE",
"638 551 OFFCURVE",
"638 548 CURVE",
"578 526 OFFCURVE",
"427 502 OFFCURVE",
"358 494 CURVE SMOOTH",
"265 482 OFFCURVE",
"106 470 OFFCURVE",
"171 332 CURVE SMOOTH",
"179 314 OFFCURVE",
"193 297 OFFCURVE",
"200 278 CURVE SMOOTH",
"222 217 OFFCURVE",
"161 165 OFFCURVE",
"134 178 CURVE SMOOTH",
"126 182 OFFCURVE",
"122 175 OFFCURVE",
"129 172 CURVE SMOOTH",
"172 151 OFFCURVE",
"249 196 OFFCURVE",
"225 261 CURVE SMOOTH",
"213 296 OFFCURVE",
"178 330 OFFCURVE",
"179 369 CURVE SMOOTH",
"180 406 OFFCURVE",
"210 433 OFFCURVE",
"270 450 CURVE SMOOTH",
"350 472 OFFCURVE",
"560 504 OFFCURVE",
"639 538 CURVE",
"642 532 OFFCURVE",
"647 529 OFFCURVE",
"656 528 CURVE",
"642 517 OFFCURVE",
"627 502 OFFCURVE",
"622 496 CURVE",
"606 493 OFFCURVE",
"595 487 OFFCURVE",
"586 476 CURVE SMOOTH",
"572 460 OFFCURVE",
"561 445 OFFCURVE",
"546 426 CURVE SMOOTH",
"506 371 OFFCURVE",
"458 296 OFFCURVE",
"406 227 CURVE",
"370 223 OFFCURVE",
"333 214 OFFCURVE",
"305 211 CURVE SMOOTH",
"292 209 OFFCURVE",
"274 197 OFFCURVE",
"266 187 CURVE SMOOTH",
"261 179 OFFCURVE",
"261 172 OFFCURVE",
"291 176 CURVE SMOOTH",
"303 177 OFFCURVE",
"319 182 OFFCURVE",
"338 187 CURVE SMOOTH",
"353 190 OFFCURVE",
"368 195 OFFCURVE",
"384 198 CURVE",
"349 153 OFFCURVE",
"313 112 OFFCURVE",
"279 84 CURVE SMOOTH",
"167 -6 OFFCURVE",
"41 3 OFFCURVE",
"34 166 CURVE",
"33 169 OFFCURVE",
"40 184 OFFCURVE",
"37 188 CURVE SMOOTH",
"34 193 OFFCURVE",
"24 184 OFFCURVE",
"21 169 CURVE SMOOTH",
"0 83 OFFCURVE",
"37 -14 OFFCURVE",
"140 -14 CURVE SMOOTH",
"246 -15 OFFCURVE",
"336 92 OFFCURVE",
"413 204 CURVE",
"434 208 OFFCURVE",
"470 215 OFFCURVE",
"503 218 CURVE",
"507 219 OFFCURVE",
"511 219 OFFCURVE",
"515 219 CURVE",
"499 180 OFFCURVE",
"482 136 OFFCURVE",
"473 99 CURVE SMOOTH",
"460 46 OFFCURVE",
"465 -1 OFFCURVE",
"496 -9 CURVE SMOOTH",
"546 -22 OFFCURVE",
"610 51 OFFCURVE",
"638 85 CURVE SMOOTH",
"655 106 OFFCURVE",
"674 131 OFFCURVE",
"689 152 CURVE SMOOTH",
"691 155 OFFCURVE",
"682 157 OFFCURVE",
"681 155 CURVE",
"668 139 OFFCURVE",
"637 98 OFFCURVE",
"633 94 CURVE SMOOTH",
"594 47 OFFCURVE",
"497 -36 OFFCURVE",
"516 98 CURVE SMOOTH",
"522 140 OFFCURVE",
"536 189 OFFCURVE",
"545 219 CURVE",
"573 217 OFFCURVE",
"592 209 OFFCURVE",
"582 192 CURVE SMOOTH",
"578 183 OFFCURVE",
"587 182 OFFCURVE",
"592 191 CURVE SMOOTH",
"601 207 OFFCURVE",
"587 231 OFFCURVE",
"550 234 CURVE",
"576 317 OFFCURVE",
"607 401 OFFCURVE",
"643 480 CURVE SMOOTH",
"651 497 OFFCURVE",
"666 518 OFFCURVE",
"678 527 CURVE",
"679 527 OFFCURVE",
"679 528 OFFCURVE",
"679 530 CURVE",
"691 533 OFFCURVE",
"703 539 OFFCURVE",
"715 548 CURVE SMOOTH",
"732 562 OFFCURVE",
"743 578 OFFCURVE",
"748 596 CURVE SMOOTH"
);
},
{
closed = 1;
nodes = (
"494 235 OFFCURVE",
"464 234 OFFCURVE",
"431 230 CURVE",
"475 295 OFFCURVE",
"514 359 OFFCURVE",
"550 402 CURVE SMOOTH",
"573 428 OFFCURVE",
"591 427 OFFCURVE",
"591 423 CURVE SMOOTH",
"591 413 OFFCURVE",
"569 355 OFFCURVE",
"546 296 CURVE SMOOTH",
"540 280 OFFCURVE",
"531 259 OFFCURVE",
"521 235 CURVE"
);
},
{
closed = 1;
nodes = (
"726 583 OFFCURVE",
"719 571 OFFCURVE",
"708 560 CURVE SMOOTH",
"696 547 OFFCURVE",
"683 541 OFFCURVE",
"672 541 CURVE SMOOTH",
"666 541 OFFCURVE",
"663 544 OFFCURVE",
"666 554 CURVE",
"668 556 OFFCURVE",
"669 559 OFFCURVE",
"668 561 CURVE",
"672 568 OFFCURVE",
"676 576 OFFCURVE",
"683 583 CURVE SMOOTH",
"708 610 LINE",
"702 614 LINE",
"711 620 OFFCURVE",
"718 622 OFFCURVE",
"723 622 CURVE SMOOTH",
"732 622 OFFCURVE",
"735 615 OFFCURVE",
"730 596 CURVE SMOOTH"
);
}
);
width = 591;
}
);
note = Aring;
unicode = 00C5;
},
{
glyphname = Atilde;
lastChange = "2021-04-19 06:54:11 +0000";
layers = (
{
hints = (
{
horizontal = 1;
place = "{-7, 21}";
target = up;
type = BottomGhost;
},
{
horizontal = 1;
place = "{218, 24}";
type = Stem;
},
{
horizontal = 1;
place = "{573, -20}";
target = down;
type = TopGhost;
},
{
horizontal = 1;
place = "{624, -20}";
target = down;
type = TopGhost;
},
{
place = "{16, 17}";
type = Stem;
},
{
place = "{200, 36}";
type = Stem;
},
{
place = "{549, 61}";
type = Stem;
}
);
layerId = "C2A7C206-1962-4FAA-88DB-FE8C23752EC9";
paths = (
{
closed = 1;
nodes = (
"691 155 OFFCURVE",
"682 157 OFFCURVE",
"681 155 CURVE",
"668 139 OFFCURVE",
"637 98 OFFCURVE",
"633 94 CURVE SMOOTH",
"594 47 OFFCURVE",
"497 -36 OFFCURVE",
"516 98 CURVE SMOOTH",
"522 139 OFFCURVE",
"535 189 OFFCURVE",
"545 219 CURVE",
"573 217 OFFCURVE",
"591 208 OFFCURVE",
"582 192 CURVE SMOOTH",
"578 183 OFFCURVE",
"587 182 OFFCURVE",
"592 191 CURVE SMOOTH",
"601 207 OFFCURVE",
"586 231 OFFCURVE",
"550 234 CURVE",
"576 318 OFFCURVE",
"607 401 OFFCURVE",
"643 480 CURVE SMOOTH",
"651 497 OFFCURVE",
"666 518 OFFCURVE",
"678 527 CURVE SMOOTH",
"681 529 OFFCURVE",
"681 542 OFFCURVE",
"669 536 CURVE SMOOTH",
"653 529 OFFCURVE",
"629 504 OFFCURVE",
"622 496 CURVE",
"606 493 OFFCURVE",
"595 487 OFFCURVE",
"586 476 CURVE SMOOTH",
"572 460 OFFCURVE",
"561 445 OFFCURVE",
"546 426 CURVE SMOOTH",
"506 371 OFFCURVE",
"457 296 OFFCURVE",
"406 227 CURVE",
"369 222 OFFCURVE",
"333 215 OFFCURVE",
"305 211 CURVE SMOOTH",
"292 209 OFFCURVE",
"274 197 OFFCURVE",
"266 187 CURVE SMOOTH",
"261 179 OFFCURVE",
"261 172 OFFCURVE",
"291 176 CURVE SMOOTH",
"303 177 OFFCURVE",
"319 182 OFFCURVE",
"338 187 CURVE SMOOTH",
"352 191 OFFCURVE",
"368 195 OFFCURVE",
"384 198 CURVE",
"349 153 OFFCURVE",
"313 112 OFFCURVE",
"279 84 CURVE SMOOTH",
"167 -6 OFFCURVE",
"41 3 OFFCURVE",
"34 166 CURVE",
"33 169 OFFCURVE",
"40 184 OFFCURVE",
"37 188 CURVE SMOOTH",
"34 193 OFFCURVE",
"24 184 OFFCURVE",
"21 169 CURVE SMOOTH",
"0 83 OFFCURVE",
"37 -14 OFFCURVE",
"140 -14 CURVE SMOOTH",
"246 -15 OFFCURVE",
"336 92 OFFCURVE",
"413 204 CURVE",
"433 208 OFFCURVE",
"469 215 OFFCURVE",
"503 218 CURVE SMOOTH",
"507 218 OFFCURVE",
"510 219 OFFCURVE",
"514 219 CURVE",
"498 179 OFFCURVE",
"482 135 OFFCURVE",
"473 99 CURVE SMOOTH",
"460 46 OFFCURVE",
"465 -1 OFFCURVE",
"496 -9 CURVE SMOOTH",
"546 -22 OFFCURVE",
"610 51 OFFCURVE",
"638 85 CURVE SMOOTH",
"655 106 OFFCURVE",
"674 131 OFFCURVE",
"689 152 CURVE SMOOTH"
);
},
{
closed = 1;
nodes = (
"672 560 OFFCURVE",
"667 567 OFFCURVE",
"661 561 CURVE SMOOTH",
"637 535 OFFCURVE",
"440 504 OFFCURVE",
"358 494 CURVE SMOOTH",
"265 482 OFFCURVE",
"106 470 OFFCURVE",
"171 332 CURVE SMOOTH",
"179 314 OFFCURVE",
"193 297 OFFCURVE",
"200 278 CURVE SMOOTH",
"222 217 OFFCURVE",
"161 165 OFFCURVE",
"134 178 CURVE SMOOTH",
"126 182 OFFCURVE",
"122 175 OFFCURVE",
"129 172 CURVE SMOOTH",
"172 151 OFFCURVE",
"249 196 OFFCURVE",
"225 261 CURVE SMOOTH",
"213 296 OFFCURVE",
"178 330 OFFCURVE",
"179 369 CURVE SMOOTH",
"180 406 OFFCURVE",
"210 433 OFFCURVE",
"270 450 CURVE SMOOTH",
"363 475 OFFCURVE",
"629 514 OFFCURVE",
"666 554 CURVE SMOOTH"
);
},
{
closed = 1;
nodes = (
"474 295 OFFCURVE",
"514 359 OFFCURVE",
"550 402 CURVE SMOOTH",
"573 428 OFFCURVE",
"591 427 OFFCURVE",
"591 423 CURVE SMOOTH",
"591 413 OFFCURVE",
"569 355 OFFCURVE",
"546 296 CURVE SMOOTH",
"540 280 OFFCURVE",
"531 259 OFFCURVE",
"521 235 CURVE",
"494 235 OFFCURVE",
"464 234 OFFCURVE",
"431 231 CURVE"
);
},
{
closed = 1;
nodes = (
"791 641 OFFCURVE",
"789 643 OFFCURVE",
"783 642 CURVE",
"770 630 OFFCURVE",
"758 624 OFFCURVE",
"744 624 CURVE SMOOTH",
"736 624 OFFCURVE",
"724 627 OFFCURVE",
"708 633 CURVE SMOOTH",
"692 639 OFFCURVE",
"679 642 OFFCURVE",
"669 642 CURVE SMOOTH",
"658 642 OFFCURVE",
"647 639 OFFCURVE",
"636 633 CURVE SMOOTH",
"609 620 OFFCURVE",
"592 608 OFFCURVE",
"588 597 CURVE",
"589 593 LINE",
"601 593 OFFCURVE",
"620 615 OFFCURVE",
"643 615 CURVE SMOOTH",
"652 615 OFFCURVE",
"664 611 OFFCURVE",
"680 604 CURVE SMOOTH",
"696 596 OFFCURVE",
"709 592 OFFCURVE",
"719 592 CURVE SMOOTH",
"728 592 OFFCURVE",
"736 595 OFFCURVE",
"745 599 CURVE SMOOTH",
"771 614 OFFCURVE",
"787 626 OFFCURVE",
"790 637 CURVE SMOOTH"
);
}
);
width = 591;
}
);
note = Atilde;
unicode = 00C3;
},
{
glyphname = AE;
lastChange = "2021-04-19 06:54:11 +0000";
layers = (
{
hints = (
{
horizontal = 1;
place = "{-25, 36}";
type = Stem;
},
{
horizontal = 1;
place = "{299, -20}";
target = down;
type = TopGhost;
},
{
horizontal = 1;
place = "{472, 32}";
type = Stem;
},
{
place = "{15, 18}";
type = Stem;
},
{
place = "{155, 24}";
type = Stem;
},
{
place = "{204, 25}";
type = Stem;
},
{
place = "{472, 50}";
type = Stem;
}
);
layerId = "C2A7C206-1962-4FAA-88DB-FE8C23752EC9";
paths = (
{
closed = 1;
nodes = (
"472 82 OFFCURVE",
"473 78 OFFCURVE",
"474 73 CURVE SMOOTH",
"480 42 OFFCURVE",
"489 17 OFFCURVE",
"518 0 CURVE SMOOTH",
"547 -18 OFFCURVE",
"583 -25 OFFCURVE",
"617 -25 CURVE SMOOTH",
"694 -25 OFFCURVE",
"783 11 OFFCURVE",
"835 70 CURVE SMOOTH",
"839 74 OFFCURVE",
"845 81 OFFCURVE",
"845 88 CURVE SMOOTH",
"845 89 OFFCURVE",
"845 90 OFFCURVE",
"843 90 CURVE SMOOTH",
"841 90 OFFCURVE",
"838 87 OFFCURVE",
"837 86 CURVE SMOOTH",
"794 36 OFFCURVE",
"733 12 OFFCURVE",
"668 12 CURVE SMOOTH",
"615 12 OFFCURVE",
"522 31 OFFCURVE",
"522 99 CURVE SMOOTH",
"522 135 OFFCURVE",
"552 216 OFFCURVE",
"566 250 CURVE",
"621 263 OFFCURVE",
"689 279 OFFCURVE",
"745 279 CURVE SMOOTH",
"755 279 OFFCURVE",
"785 279 OFFCURVE",
"785 263 CURVE SMOOTH",
"785 257 OFFCURVE",
"781 253 OFFCURVE",
"781 250 CURVE SMOOTH",
"781 248 OFFCURVE",
"782 247 OFFCURVE",
"784 247 CURVE SMOOTH",
"792 247 OFFCURVE",
"795 260 OFFCURVE",
"795 266 CURVE SMOOTH",
"795 298 OFFCURVE",
"754 299 OFFCURVE",
"731 299 CURVE SMOOTH",
"690 299 OFFCURVE",
"649 294 OFFCURVE",
"609 290 CURVE SMOOTH",
"567 285 LINE",
"579 322 OFFCURVE",
"617 432 OFFCURVE",
"639 460 CURVE SMOOTH",
"644 466 OFFCURVE",
"646 469 OFFCURVE",
"654 470 CURVE SMOOTH",
"666 472 OFFCURVE",
"680 472 OFFCURVE",
"693 472 CURVE SMOOTH",
"719 472 OFFCURVE",
"744 470 OFFCURVE",
"770 470 CURVE SMOOTH",
"775 470 OFFCURVE",
"805 472 OFFCURVE",
"805 462 CURVE SMOOTH",
"805 450 OFFCURVE",
"766 413 OFFCURVE",
"766 403 CURVE SMOOTH",
"766 402 OFFCURVE",
"767 401 OFFCURVE",
"768 401 CURVE SMOOTH",
"773 401 OFFCURVE",
"780 406 OFFCURVE",
"783 409 CURVE SMOOTH",
"799 427 LINE SMOOTH",
"818 446 OFFCURVE",
"840 461 OFFCURVE",
"862 476 CURVE SMOOTH",
"866 478 OFFCURVE",
"881 487 OFFCURVE",
"882 491 CURVE SMOOTH",
"882 492 OFFCURVE",
"883 494 OFFCURVE",
"883 494 CURVE",
"883 497 OFFCURVE",
"882 499 OFFCURVE",
"881 502 CURVE",
"875 504 LINE",
"683 505 LINE",
"674 506 OFFCURVE",
"665 504 OFFCURVE",
"656 502 CURVE",
"662 511 OFFCURVE",
"669 520 OFFCURVE",
"678 527 CURVE SMOOTH",
"679 528 OFFCURVE",
"680 530 OFFCURVE",
"680 532 CURVE SMOOTH",
"680 535 OFFCURVE",
"678 538 OFFCURVE",
"675 538 CURVE SMOOTH",
"662 538 OFFCURVE",
"631 505 OFFCURVE",
"622 496 CURVE",
"607 493 OFFCURVE",
"596 488 OFFCURVE",
"586 476 CURVE SMOOTH",
"572 460 OFFCURVE",
"559 443 OFFCURVE",
"546 426 CURVE SMOOTH",
"505 369 OFFCURVE",
"466 310 OFFCURVE",
"424 252 CURVE",
"385 248 OFFCURVE",
"346 240 OFFCURVE",
"307 233 CURVE SMOOTH",
"296 232 OFFCURVE",
"265 217 OFFCURVE",
"265 203 CURVE SMOOTH",
"265 197 OFFCURVE",
"275 197 OFFCURVE",
"278 197 CURVE SMOOTH",
"310 197 OFFCURVE",
"370 218 OFFCURVE",
"404 225 CURVE",
"346 147 OFFCURVE",
"252 27 OFFCURVE",
"144 27 CURVE SMOOTH",
"67 27 OFFCURVE",
"34 98 OFFCURVE",
"34 166 CURVE SMOOTH",
"34 173 OFFCURVE",
"38 179 OFFCURVE",
"38 185 CURVE SMOOTH",
"38 186 OFFCURVE",
"38 187 OFFCURVE",
"37 188 CURVE SMOOTH",
"34 190 LINE",
"18 188 OFFCURVE",
"15 136 OFFCURVE",
"15 123 CURVE SMOOTH",
"15 48 OFFCURVE",
"60 -14 OFFCURVE",
"140 -14 CURVE SMOOTH",
"266 -14 OFFCURVE",
"369 137 OFFCURVE",
"431 230 CURVE",
"462 236 OFFCURVE",
"493 239 OFFCURVE",
"525 244 CURVE",
"512 214 OFFCURVE",
"472 114 OFFCURVE",
"472 88 CURVE SMOOTH"
);
},
{
closed = 1;
nodes = (
"179 416 OFFCURVE",
"231 439 OFFCURVE",
"270 450 CURVE SMOOTH",
"343 470 OFFCURVE",
"626 514 OFFCURVE",
"666 554 CURVE SMOOTH",
"667 555 OFFCURVE",
"669 557 OFFCURVE",
"669 559 CURVE SMOOTH",
"669 561 OFFCURVE",
"668 563 OFFCURVE",
"666 563 CURVE SMOOTH",
"664 563 OFFCURVE",
"663 562 OFFCURVE",
"661 561 CURVE",
"627 530 OFFCURVE",
"412 500 OFFCURVE",
"358 494 CURVE SMOOTH",
"295 486 OFFCURVE",
"155 477 OFFCURVE",
"155 390 CURVE SMOOTH",
"155 331 OFFCURVE",
"205 298 OFFCURVE",
"205 252 CURVE SMOOTH",
"205 221 OFFCURVE",
"178 176 OFFCURVE",
"143 176 CURVE SMOOTH",
"138 176 OFFCURVE",
"134 179 OFFCURVE",
"129 179 CURVE SMOOTH",
"128 179 OFFCURVE",
"125 178 OFFCURVE",
"125 176 CURVE SMOOTH",
"125 169 OFFCURVE",
"148 167 OFFCURVE",
"153 167 CURVE SMOOTH",
"191 167 OFFCURVE",
"230 197 OFFCURVE",
"230 237 CURVE SMOOTH",
"230 283 OFFCURVE",
"179 318 OFFCURVE",
"179 369 CURVE SMOOTH"
);
},
{
closed = 1;
nodes = (
"502 257 OFFCURVE",
"475 256 OFFCURVE",
"447 254 CURVE",
"480 304 OFFCURVE",
"511 357 OFFCURVE",
"550 402 CURVE SMOOTH",
"558 411 OFFCURVE",
"573 425 OFFCURVE",
"586 425 CURVE SMOOTH",
"587 425 OFFCURVE",
"591 425 OFFCURVE",
"591 423 CURVE SMOOTH",
"591 408 OFFCURVE",
"539 279 OFFCURVE",
"530 257 CURVE"
);
}
);
width = 815;
}
);
note = AE;
unicode = 00C6;
},
{
glyphname = B;
lastChange = "2021-04-19 06:54:11 +0000";
layers = (
{
hints = (
{
horizontal = 1;
place = "{-16, 32}";
type = Stem;
},
{
horizontal = 1;
place = "{304, 27}";
type = Stem;
},
{
horizontal = 1;
place = "{569, 29}";
type = Stem;
},
{
place = "{512, 62}";
type = Stem;
}
);
layerId = "C2A7C206-1962-4FAA-88DB-FE8C23752EC9";
paths = (
{
closed = 1;
nodes = (
"556 200 OFFCURVE",
"517 256 OFFCURVE",
"418 269 CURVE SMOOTH",
"399 271 OFFCURVE",
"405 275 OFFCURVE",
"420 279 CURVE SMOOTH",
"495 296 OFFCURVE",
"542 349 OFFCURVE",
"546 400 CURVE SMOOTH",
"549 460 OFFCURVE",
"488 492 OFFCURVE",
"413 505 CURVE",
"422 522 OFFCURVE",
"432 538 OFFCURVE",
"448 552 CURVE SMOOTH",
"456 560 OFFCURVE",
"467 582 OFFCURVE",
"468 593 CURVE",
"469 595 OFFCURVE",
"468 601 OFFCURVE",
"466 599 CURVE SMOOTH",
"438 572 OFFCURVE",
"410 554 OFFCURVE",
"393 545 CURVE",
"381 534 OFFCURVE",
"378 522 OFFCURVE",
"376 510 CURVE",
"297 518 OFFCURVE",
"211 509 OFFCURVE",
"173 498 CURVE SMOOTH",
"99 477 OFFCURVE",
"52 435 OFFCURVE",
"52 355 CURVE SMOOTH",
"52 283 OFFCURVE",
"111 246 OFFCURVE",
"156 201 CURVE",
"159 197 OFFCURVE",
"165 203 OFFCURVE",
"161 207 CURVE SMOOTH",
"134 234 OFFCURVE",
"111 259 OFFCURVE",
"93 291 CURVE SMOOTH",
"60 349 OFFCURVE",
"71 399 OFFCURVE",
"125 440 CURVE SMOOTH",
"159 466 OFFCURVE",
"279 489 OFFCURVE",
"373 480 CURVE",
"370 470 OFFCURVE",
"353 432 OFFCURVE",
"351 426 CURVE SMOOTH",
"289 282 LINE",
"281 281 OFFCURVE",
"273 279 OFFCURVE",
"267 273 CURVE SMOOTH",
"258 265 OFFCURVE",
"253 258 OFFCURVE",
"253 254 CURVE SMOOTH",
"253 249 OFFCURVE",
"261 250 OFFCURVE",
"276 252 CURVE",
"231 147 LINE SMOOTH",
"206 90 OFFCURVE",
"183 69 OFFCURVE",
"173 65 CURVE SMOOTH",
"164 61 OFFCURVE",
"171 52 OFFCURVE",
"194 67 CURVE SMOOTH",
"207 76 OFFCURVE",
"227 72 OFFCURVE",
"241 107 CURVE SMOOTH",
"302 256 LINE",
"463 271 OFFCURVE",
"506 205 OFFCURVE",
"495 139 CURVE SMOOTH",
"484 72 OFFCURVE",
"416 1 OFFCURVE",
"282 9 CURVE SMOOTH",
"229 13 OFFCURVE",
"109 47 OFFCURVE",
"71 39 CURVE SMOOTH",
"50 34 OFFCURVE",
"37 25 OFFCURVE",
"31 11 CURVE SMOOTH",
"21 -11 OFFCURVE",
"40 -39 OFFCURVE",
"97 -28 CURVE SMOOTH",
"104 -26 OFFCURVE",
"106 -15 OFFCURVE",
"97 -18 CURVE SMOOTH",
"46 -35 OFFCURVE",
"22 28 OFFCURVE",
"142 2 CURVE SMOOTH",
"169 -4 OFFCURVE",
"232 -8 OFFCURVE",
"279 -9 CURVE SMOOTH",
"453 -15 OFFCURVE",
"541 66 OFFCURVE",
"550 142 CURVE SMOOTH"
);
},
{
closed = 1;
nodes = (
"358 390 LINE SMOOTH",
"370 419 OFFCURVE",
"384 448 OFFCURVE",
"399 476 CURVE",
"455 466 OFFCURVE",
"497 443 OFFCURVE",
"497 398 CURVE SMOOTH",
"497 345 OFFCURVE",
"439 281 OFFCURVE",
"329 281 CURVE SMOOTH",
"323 281 OFFCURVE",
"318 281 OFFCURVE",
"313 282 CURVE"
);
}
);
width = 554;
}
);
note = B;
unicode = 0042;
},
{
glyphname = C;
lastChange = "2021-04-19 06:54:11 +0000";
layers = (
{
hints = (
{
horizontal = 1;
place = "{6, 37}";
type = Stem;
},
{
horizontal = 1;
place = "{499, -20}";
target = down;
type = TopGhost;
},
{
place = "{50, 15}";
type = Stem;
}
);
layerId = "C2A7C206-1962-4FAA-88DB-FE8C23752EC9";
paths = (
{
closed = 1;
nodes = (
"551 531 OFFCURVE",
"528 543 OFFCURVE",
"510 528 CURVE SMOOTH",
"501 521 OFFCURVE",
"497 504 OFFCURVE",
"487 491 CURVE",
"479 500 OFFCURVE",
"462 504 OFFCURVE",
"442 506 CURVE SMOOTH",
"262 525 OFFCURVE",
"102 377 OFFCURVE",
"55 210 CURVE SMOOTH",
"-8 -18 OFFCURVE",
"185 -89 OFFCURVE",
"358 -6 CURVE SMOOTH",
"418 23 OFFCURVE",
"459 71 OFFCURVE",
"508 139 CURVE",
"513 148 OFFCURVE",
"504 150 OFFCURVE",
"498 143 CURVE SMOOTH",
"450 84 OFFCURVE",
"417 46 OFFCURVE",
"354 18 CURVE SMOOTH",
"193 -55 OFFCURVE",
"49 -7 OFFCURVE",
"106 192 CURVE SMOOTH",
"140 315 OFFCURVE",
"294 542 OFFCURVE",
"445 481 CURVE SMOOTH",
"466 473 OFFCURVE",
"475 454 OFFCURVE",
"458 416 CURVE SMOOTH",
"431 353 LINE SMOOTH",
"425 339 OFFCURVE",
"444 334 OFFCURVE",
"448 348 CURVE SMOOTH",
"471 411 OFFCURVE",
"495 459 OFFCURVE",
"539 514 CURVE SMOOTH"
);
}
);
width = 421;
}
);
note = C;
unicode = 0043;
},
{
glyphname = Ccedilla;
lastChange = "2021-04-19 06:54:11 +0000";
layers = (
{
hints = (
{
horizontal = 1;
place = "{491, 17}";
type = Stem;
},
{
horizontal = 1;
place = "{535, -20}";
target = down;
type = TopGhost;
},
{
place = "{43, 50}";
type = Stem;
}
);
layerId = "C2A7C206-1962-4FAA-88DB-FE8C23752EC9";
paths = (
{
closed = 1;
nodes = (
"551 531 OFFCURVE",
"528 543 OFFCURVE",
"510 528 CURVE SMOOTH",
"501 521 OFFCURVE",
"497 504 OFFCURVE",
"487 491 CURVE",
"479 500 OFFCURVE",
"462 504 OFFCURVE",
"442 506 CURVE SMOOTH",
"262 525 OFFCURVE",
"102 377 OFFCURVE",
"55 210 CURVE SMOOTH",
"14 61 OFFCURVE",
"82 -21 OFFCURVE",
"182 -37 CURVE",
"163 -53 OFFCURVE",
"147 -83 OFFCURVE",
"140 -106 CURVE SMOOTH",
"137 -118 OFFCURVE",
"140 -134 OFFCURVE",
"149 -154 CURVE SMOOTH",
"158 -174 OFFCURVE",
"161 -188 OFFCURVE",
"159 -196 CURVE SMOOTH",
"151 -222 OFFCURVE",
"138 -237 OFFCURVE",
"119 -242 CURVE",
"97 -245 OFFCURVE",
"76 -248 OFFCURVE",
"55 -252 CURVE SMOOTH",
"49 -253 OFFCURVE",
"44 -256 OFFCURVE",
"43 -261 CURVE SMOOTH",
"41 -267 OFFCURVE",
"43 -271 OFFCURVE",
"49 -271 CURVE SMOOTH",
"79 -271 OFFCURVE",
"108 -265 OFFCURVE",
"137 -251 CURVE SMOOTH",
"171 -236 OFFCURVE",
"193 -214 OFFCURVE",
"201 -187 CURVE SMOOTH",
"205 -170 OFFCURVE",
"202 -152 OFFCURVE",
"191 -131 CURVE SMOOTH",
"173 -97 OFFCURVE",
"179 -63 OFFCURVE",
"207 -39 CURVE",
"254 -41 OFFCURVE",
"307 -30 OFFCURVE",
"358 -6 CURVE SMOOTH",
"418 23 OFFCURVE",
"459 71 OFFCURVE",
"508 139 CURVE",
"513 148 OFFCURVE",
"504 150 OFFCURVE",
"498 143 CURVE SMOOTH",
"450 84 OFFCURVE",
"417 46 OFFCURVE",
"354 18 CURVE SMOOTH",
"193 -55 OFFCURVE",
"49 -7 OFFCURVE",
"106 192 CURVE SMOOTH",
"140 315 OFFCURVE",
"294 542 OFFCURVE",
"445 481 CURVE SMOOTH",
"466 473 OFFCURVE",
"475 454 OFFCURVE",
"458 416 CURVE SMOOTH",
"431 353 LINE SMOOTH",
"425 339 OFFCURVE",
"444 334 OFFCURVE",
"448 348 CURVE SMOOTH",
"471 411 OFFCURVE",
"495 459 OFFCURVE",
"539 514 CURVE SMOOTH"
);
}
);
width = 525;
}
);
note = Ccedilla;
unicode = 00C7;
},
{
glyphname = D;
lastChange = "2021-04-19 06:54:11 +0000";
layers = (
{
hints = (
{
horizontal = 1;
place = "{-9, 43}";
type = Stem;
},
{
horizontal = 1;
place = "{581, -20}";
target = down;
type = TopGhost;
},
{
horizontal = 1;
place = "{648, 24}";
type = Stem;
},
{
place = "{77, 17}";
type = Stem;
},
{
place = "{644, 45}";
type = Stem;
}
);
layerId = "C2A7C206-1962-4FAA-88DB-FE8C23752EC9";
paths = (
{
closed = 1;
nodes = (
"597 339 OFFCURVE",
"468 441 OFFCURVE",
"352 482 CURVE",
"367 523 OFFCURVE",
"394 575 OFFCURVE",
"444 575 CURVE SMOOTH",
"453 575 OFFCURVE",
"460 571 OFFCURVE",
"460 570 CURVE",
"464 563 OFFCURVE",
"474 568 OFFCURVE",
"470 575 CURVE SMOOTH",
"466 583 OFFCURVE",
"453 587 OFFCURVE",
"444 587 CURVE SMOOTH",
"386 587 OFFCURVE",
"350 551 OFFCURVE",
"324 492 CURVE",
"292 503 OFFCURVE",
"217 519 OFFCURVE",
"180 517 CURVE SMOOTH",
"103 513 OFFCURVE",
"49 483 OFFCURVE",
"34 405 CURVE SMOOTH",
"21 335 OFFCURVE",
"73 285 OFFCURVE",
"109 232 CURVE SMOOTH",
"112 227 OFFCURVE",
"118 231 OFFCURVE",
"115 236 CURVE SMOOTH",
"94 268 OFFCURVE",
"76 298 OFFCURVE",
"64 333 CURVE SMOOTH",
"41 397 OFFCURVE",
"61 443 OFFCURVE",
"122 472 CURVE SMOOTH",
"165 492 OFFCURVE",
"270 466 OFFCURVE",
"308 453 CURVE",
"266 352 OFFCURVE",
"144 63 OFFCURVE",
"135 52 CURVE SMOOTH",
"125 40 OFFCURVE",
"121 34 OFFCURVE",
"108 32 CURVE SMOOTH",
"88 29 OFFCURVE",
"69 34 OFFCURVE",
"55 33 CURVE SMOOTH",
"24 30 OFFCURVE",
"11 3 OFFCURVE",
"7 -4 CURVE SMOOTH",
"1 -14 OFFCURVE",
"8 -15 OFFCURVE",
"10 -13 CURVE SMOOTH",
"17 -4 OFFCURVE",
"29 0 OFFCURVE",
"47 0 CURVE SMOOTH",
"115 -1 OFFCURVE",
"188 -8 OFFCURVE",
"260 -7 CURVE SMOOTH",
"446 -5 OFFCURVE",
"597 88 OFFCURVE",
"597 206 CURVE SMOOTH"
);
},
{
closed = 1;
nodes = (
"554 91 OFFCURVE",
"436 13 OFFCURVE",
"269 11 CURVE SMOOTH",
"225 11 OFFCURVE",
"168 21 OFFCURVE",
"152 24 CURVE",
"169 52 OFFCURVE",
"193 105 OFFCURVE",
"338 445 CURVE",
"437 417 OFFCURVE",
"554 303 OFFCURVE",
"554 197 CURVE SMOOTH"
);
}
);
width = 564;
}
);
note = D;
unicode = 0044;
},
{
glyphname = Eth;
lastChange = "2021-04-19 06:54:11 +0000";
layers = (
{
hints = (
{
horizontal = 1;
place = "{-9, 43}";
type = Stem;
},
{
horizontal = 1;
place = "{581, -20}";
target = down;
type = TopGhost;
},
{
horizontal = 1;
place = "{648, 24}";
type = Stem;
},
{
place = "{77, 17}";
type = Stem;
},
{
place = "{644, 45}";
type = Stem;
},
{
horizontal = 1;
place = "{158, 33}";
type = Stem;
}
);
layerId = "C2A7C206-1962-4FAA-88DB-FE8C23752EC9";
paths = (
{
closed = 1;
nodes = (
"367 523 OFFCURVE",
"394 575 OFFCURVE",
"444 575 CURVE SMOOTH",
"453 575 OFFCURVE",
"460 571 OFFCURVE",
"460 570 CURVE",
"464 563 OFFCURVE",
"474 568 OFFCURVE",
"470 575 CURVE SMOOTH",
"466 583 OFFCURVE",
"453 587 OFFCURVE",
"444 587 CURVE SMOOTH",
"386 587 OFFCURVE",
"350 551 OFFCURVE",
"324 492 CURVE",
"292 503 OFFCURVE",
"217 519 OFFCURVE",
"180 517 CURVE SMOOTH",
"103 513 OFFCURVE",
"49 483 OFFCURVE",
"34 405 CURVE SMOOTH",
"21 335 OFFCURVE",
"73 285 OFFCURVE",
"109 232 CURVE SMOOTH",
"112 227 OFFCURVE",
"118 231 OFFCURVE",
"115 236 CURVE SMOOTH",
"94 268 OFFCURVE",
"76 298 OFFCURVE",
"64 333 CURVE SMOOTH",
"41 397 OFFCURVE",
"61 443 OFFCURVE",
"122 472 CURVE SMOOTH",
"165 492 OFFCURVE",
"270 466 OFFCURVE",
"308 453 CURVE",
"285 397 OFFCURVE",
"237 283 OFFCURVE",
"197 191 CURVE",
"172 192 OFFCURVE",
"147 192 OFFCURVE",
"122 192 CURVE SMOOTH",
"98 192 OFFCURVE",
"82 183 OFFCURVE",
"77 162 CURVE",
"85 159 OFFCURVE",
"97 158 OFFCURVE",
"112 158 CURVE SMOOTH",
"128 158 OFFCURVE",
"152 160 OFFCURVE",
"185 163 CURVE",
"159 102 OFFCURVE",
"138 56 OFFCURVE",
"135 52 CURVE SMOOTH",
"125 40 OFFCURVE",
"121 34 OFFCURVE",
"108 32 CURVE SMOOTH",
"88 29 OFFCURVE",
"69 34 OFFCURVE",
"55 33 CURVE SMOOTH",
"24 30 OFFCURVE",
"11 3 OFFCURVE",
"7 -4 CURVE SMOOTH",
"1 -14 OFFCURVE",
"8 -15 OFFCURVE",
"10 -13 CURVE SMOOTH",
"17 -4 OFFCURVE",
"29 0 OFFCURVE",
"47 0 CURVE SMOOTH",
"115 -1 OFFCURVE",
"188 -8 OFFCURVE",
"260 -7 CURVE SMOOTH",
"446 -5 OFFCURVE",
"597 88 OFFCURVE",
"597 206 CURVE SMOOTH",
"597 339 OFFCURVE",
"468 441 OFFCURVE",
"352 482 CURVE"
);
},
{
closed = 1;
nodes = (
"225 11 OFFCURVE",
"168 21 OFFCURVE",
"152 24 CURVE",
"163 41 OFFCURVE",
"176 68 OFFCURVE",
"219 167 CURVE",
"230 169 LINE SMOOTH",
"253 171 OFFCURVE",
"271 173 OFFCURVE",
"282 175 CURVE SMOOTH",
"294 176 OFFCURVE",
"301 180 OFFCURVE",
"302 183 CURVE",
"302 185 OFFCURVE",
"302 188 OFFCURVE",
"300 188 CURVE",
"301 190 LINE",
"277 190 OFFCURVE",
"253 190 OFFCURVE",
"229 191 CURVE",
"255 250 OFFCURVE",
"290 332 OFFCURVE",
"338 445 CURVE",
"437 417 OFFCURVE",
"554 303 OFFCURVE",
"554 197 CURVE SMOOTH",
"554 91 OFFCURVE",
"436 13 OFFCURVE",
"269 11 CURVE SMOOTH"
);
}
);
width = 564;
}
);
unicode = 00D0;
},
{
glyphname = E;
lastChange = "2021-04-19 06:54:11 +0000";
layers = (
{
hints = (
{
horizontal = 1;
place = "{-13, 54}";
type = Stem;
},
{
horizontal = 1;
place = "{288, 56}";
type = Stem;
},
{
horizontal = 1;
place = "{553, 38}";
type = Stem;
},
{
place = "{146, 52}";
type = Stem;
}
);
layerId = "C2A7C206-1962-4FAA-88DB-FE8C23752EC9";
paths = (
{
closed = 1;
nodes = (
"449 269 OFFCURVE",
"440 296 OFFCURVE",
"402 298 CURVE SMOOTH",
"362 300 OFFCURVE",
"311 296 OFFCURVE",
"257 290 CURVE SMOOTH",
"228 285 LINE",
"260 362 OFFCURVE",
"295 437 OFFCURVE",
"313 460 CURVE SMOOTH",
"318 468 OFFCURVE",
"322 469 OFFCURVE",
"327 470 CURVE SMOOTH",
"361 475 OFFCURVE",
"385 470 OFFCURVE",
"418 470 CURVE SMOOTH",
"457 470 OFFCURVE",
"462 468 OFFCURVE",
"444 444 CURVE SMOOTH",
"432 428 OFFCURVE",
"423 419 OFFCURVE",
"422 416 CURVE",
"404 392 OFFCURVE",
"425 402 OFFCURVE",
"432 409 CURVE",
"470 457 OFFCURVE",
"530 484 OFFCURVE",
"531 491 CURVE SMOOTH",
"532 494 OFFCURVE",
"532 496 OFFCURVE",
"530 502 CURVE",
"524 504 LINE",
"332 505 LINE",
"348 546 OFFCURVE",
"311 558 OFFCURVE",
"305 533 CURVE",
"297 517 OFFCURVE",
"304 504 OFFCURVE",
"279 507 CURVE SMOOTH",
"187 516 OFFCURVE",
"9 535 OFFCURVE",
"42 386 CURVE SMOOTH",
"46 366 OFFCURVE",
"55 332 OFFCURVE",
"61 313 CURVE SMOOTH",
"71 283 OFFCURVE",
"82 296 OFFCURVE",
"79 305 CURVE SMOOTH",
"66 339 OFFCURVE",
"48 382 OFFCURVE",
"58 420 CURVE SMOOTH",
"68 456 OFFCURVE",
"101 469 OFFCURVE",
"163 471 CURVE SMOOTH",
"285 475 LINE",
"267 427 OFFCURVE",
"228 353 OFFCURVE",
"192 278 CURVE",
"178 276 OFFCURVE",
"165 273 OFFCURVE",
"154 272 CURVE SMOOTH",
"140 271 OFFCURVE",
"122 259 OFFCURVE",
"115 249 CURVE SMOOTH",
"109 241 OFFCURVE",
"104 226 OFFCURVE",
"133 230 CURVE SMOOTH",
"144 231 OFFCURVE",
"158 235 OFFCURVE",
"174 239 CURVE",
"146 178 OFFCURVE",
"124 120 OFFCURVE",
"123 82 CURVE SMOOTH",
"121 55 OFFCURVE",
"136 17 OFFCURVE",
"166 0 CURVE SMOOTH",
"248 -47 OFFCURVE",
"365 -21 OFFCURVE",
"444 34 CURVE SMOOTH",
"459 44 OFFCURVE",
"472 57 OFFCURVE",
"484 70 CURVE SMOOTH",
"498 85 OFFCURVE",
"495 98 OFFCURVE",
"486 86 CURVE SMOOTH",
"448 39 OFFCURVE",
"384 13 OFFCURVE",
"325 12 CURVE SMOOTH",
"252 9 OFFCURVE",
"167 37 OFFCURVE",
"171 103 CURVE SMOOTH",
"172 131 OFFCURVE",
"190 189 OFFCURVE",
"214 250 CURVE",
"241 256 LINE SMOOTH",
"267 261 OFFCURVE",
"460 306 OFFCURVE",
"431 253 CURVE SMOOTH",
"426 245 OFFCURVE",
"436 244 OFFCURVE",
"440 252 CURVE SMOOTH"
);
}
);
width = 450;
}
);
note = E;
unicode = 0045;
},
{
glyphname = Eacute;
lastChange = "2021-04-19 06:54:11 +0000";
layers = (
{
hints = (
{
horizontal = 1;
place = "{-25, 36}";
type = Stem;
},
{
horizontal = 1;
place = "{279, 19}";
type = Stem;
},
{
horizontal = 1;
place = "{475, 38}";
type = Stem;
},
{
place = "{123, 48}";
type = Stem;
}
);
layerId = "C2A7C206-1962-4FAA-88DB-FE8C23752EC9";
paths = (
{
closed = 1;
nodes = (
"449 269 OFFCURVE",
"440 296 OFFCURVE",
"402 298 CURVE SMOOTH",
"362 300 OFFCURVE",
"311 296 OFFCURVE",
"257 290 CURVE SMOOTH",
"228 285 LINE",
"260 362 OFFCURVE",
"295 437 OFFCURVE",
"313 460 CURVE SMOOTH",
"318 468 OFFCURVE",
"322 469 OFFCURVE",
"327 470 CURVE SMOOTH",
"361 475 OFFCURVE",
"385 470 OFFCURVE",
"418 470 CURVE SMOOTH",
"457 470 OFFCURVE",
"462 468 OFFCURVE",
"444 444 CURVE SMOOTH",
"432 428 OFFCURVE",
"423 419 OFFCURVE",
"422 416 CURVE",
"404 392 OFFCURVE",
"425 402 OFFCURVE",
"432 409 CURVE",
"470 457 OFFCURVE",
"530 484 OFFCURVE",
"531 491 CURVE SMOOTH",
"532 494 OFFCURVE",
"532 496 OFFCURVE",
"530 502 CURVE",
"524 504 LINE",
"332 505 LINE",
"348 546 OFFCURVE",
"311 558 OFFCURVE",
"305 533 CURVE",
"297 517 OFFCURVE",
"304 504 OFFCURVE",
"279 507 CURVE SMOOTH",
"187 516 OFFCURVE",
"9 535 OFFCURVE",
"42 386 CURVE SMOOTH",
"46 366 OFFCURVE",
"55 332 OFFCURVE",
"61 313 CURVE SMOOTH",
"71 283 OFFCURVE",
"82 296 OFFCURVE",
"79 305 CURVE SMOOTH",
"66 339 OFFCURVE",
"48 382 OFFCURVE",
"58 420 CURVE SMOOTH",
"68 456 OFFCURVE",
"101 469 OFFCURVE",
"163 471 CURVE SMOOTH",
"285 475 LINE",
"267 427 OFFCURVE",
"228 353 OFFCURVE",
"192 278 CURVE",
"178 276 OFFCURVE",
"165 273 OFFCURVE",
"154 272 CURVE SMOOTH",
"140 271 OFFCURVE",
"122 259 OFFCURVE",
"115 249 CURVE SMOOTH",
"109 241 OFFCURVE",
"104 226 OFFCURVE",
"133 230 CURVE SMOOTH",
"144 231 OFFCURVE",
"158 235 OFFCURVE",
"174 239 CURVE",
"146 178 OFFCURVE",
"124 120 OFFCURVE",
"123 82 CURVE SMOOTH",
"121 55 OFFCURVE",
"136 17 OFFCURVE",
"166 0 CURVE SMOOTH",
"248 -47 OFFCURVE",
"365 -21 OFFCURVE",
"444 34 CURVE SMOOTH",
"459 44 OFFCURVE",
"472 57 OFFCURVE",
"484 70 CURVE SMOOTH",
"498 85 OFFCURVE",
"495 98 OFFCURVE",
"486 86 CURVE SMOOTH",
"448 39 OFFCURVE",
"384 13 OFFCURVE",
"325 12 CURVE SMOOTH",
"252 9 OFFCURVE",
"167 37 OFFCURVE",
"171 103 CURVE SMOOTH",
"172 131 OFFCURVE",
"190 189 OFFCURVE",
"214 250 CURVE",
"241 256 LINE SMOOTH",
"267 261 OFFCURVE",
"460 306 OFFCURVE",
"431 253 CURVE SMOOTH",
"426 245 OFFCURVE",
"436 244 OFFCURVE",
"440 252 CURVE SMOOTH"
);
},
{
closed = 1;
nodes = (
"516 673 OFFCURVE",
"513 681 OFFCURVE",
"500 681 CURVE SMOOTH",
"497 681 OFFCURVE",
"493 680 OFFCURVE",
"490 677 CURVE",
"476 668 OFFCURVE",
"455 651 OFFCURVE",
"425 627 CURVE SMOOTH",
"390 600 OFFCURVE",
"371 583 OFFCURVE",
"369 576 CURVE SMOOTH",
"368 574 OFFCURVE",
"369 573 OFFCURVE",
"372 573 CURVE SMOOTH",
"373 573 LINE SMOOTH",
"403 580 OFFCURVE",
"445 613 OFFCURVE",
"472 630 CURVE SMOOTH",
"487 640 OFFCURVE",
"498 646 OFFCURVE",
"506 650 CURVE",
"509 653 OFFCURVE",
"512 656 OFFCURVE",
"512 660 CURVE"
);
}
);
width = 450;
}
);
note = Eacute;
unicode = 00C9;
},
{
glyphname = Ecircumflex;
lastChange = "2021-04-19 06:54:11 +0000";
layers = (
{
hints = (
{
horizontal = 1;
place = "{-13, 54}";
type = Stem;
},
{
horizontal = 1;
place = "{288, 56}";
type = Stem;
},
{
horizontal = 1;
place = "{553, 38}";
type = Stem;
},
{
place = "{146, 52}";
type = Stem;
}
);
layerId = "C2A7C206-1962-4FAA-88DB-FE8C23752EC9";
paths = (
{
closed = 1;
nodes = (
"449 269 OFFCURVE",
"440 296 OFFCURVE",
"402 298 CURVE SMOOTH",
"362 300 OFFCURVE",
"311 296 OFFCURVE",
"257 290 CURVE SMOOTH",
"228 285 LINE",
"260 362 OFFCURVE",
"295 437 OFFCURVE",
"313 460 CURVE SMOOTH",
"318 468 OFFCURVE",
"322 469 OFFCURVE",
"327 470 CURVE SMOOTH",
"361 475 OFFCURVE",
"385 470 OFFCURVE",
"418 470 CURVE SMOOTH",
"457 470 OFFCURVE",
"462 468 OFFCURVE",
"444 444 CURVE SMOOTH",
"432 428 OFFCURVE",
"423 419 OFFCURVE",
"422 416 CURVE",
"404 392 OFFCURVE",
"425 402 OFFCURVE",
"432 409 CURVE",
"470 457 OFFCURVE",
"530 484 OFFCURVE",
"531 491 CURVE SMOOTH",
"532 494 OFFCURVE",
"532 496 OFFCURVE",
"530 502 CURVE",
"524 504 LINE",
"332 505 LINE",
"348 546 OFFCURVE",
"311 558 OFFCURVE",
"305 533 CURVE",
"297 517 OFFCURVE",
"304 504 OFFCURVE",
"279 507 CURVE SMOOTH",
"187 516 OFFCURVE",
"9 535 OFFCURVE",
"42 386 CURVE SMOOTH",
"46 366 OFFCURVE",
"55 332 OFFCURVE",
"61 313 CURVE SMOOTH",
"71 283 OFFCURVE",
"82 296 OFFCURVE",
"79 305 CURVE SMOOTH",
"66 339 OFFCURVE",
"48 382 OFFCURVE",
"58 420 CURVE SMOOTH",
"68 456 OFFCURVE",
"101 469 OFFCURVE",
"163 471 CURVE SMOOTH",
"285 475 LINE",
"267 427 OFFCURVE",
"228 353 OFFCURVE",
"192 278 CURVE",
"178 276 OFFCURVE",
"165 273 OFFCURVE",
"154 272 CURVE SMOOTH",
"140 271 OFFCURVE",
"122 259 OFFCURVE",
"115 249 CURVE SMOOTH",
"109 241 OFFCURVE",
"104 226 OFFCURVE",
"133 230 CURVE SMOOTH",
"144 231 OFFCURVE",
"158 235 OFFCURVE",
"174 239 CURVE",
"146 178 OFFCURVE",
"124 120 OFFCURVE",
"123 82 CURVE SMOOTH",
"121 55 OFFCURVE",
"136 17 OFFCURVE",
"166 0 CURVE SMOOTH",
"248 -47 OFFCURVE",
"365 -21 OFFCURVE",
"444 34 CURVE SMOOTH",
"459 44 OFFCURVE",
"472 57 OFFCURVE",
"484 70 CURVE SMOOTH",
"498 85 OFFCURVE",
"495 98 OFFCURVE",
"486 86 CURVE SMOOTH",
"448 39 OFFCURVE",
"384 13 OFFCURVE",
"325 12 CURVE SMOOTH",
"252 9 OFFCURVE",
"167 37 OFFCURVE",
"171 103 CURVE SMOOTH",
"172 131 OFFCURVE",
"190 189 OFFCURVE",
"214 250 CURVE",
"241 256 LINE SMOOTH",
"267 261 OFFCURVE",
"460 306 OFFCURVE",
"431 253 CURVE SMOOTH",
"426 245 OFFCURVE",
"436 244 OFFCURVE",
"440 252 CURVE SMOOTH"
);
},
{
closed = 1;
nodes = (
"504 577 OFFCURVE",
"502 603 OFFCURVE",
"499 652 CURVE SMOOTH",
"499 653 OFFCURVE",
"496 655 OFFCURVE",
"490 655 CURVE SMOOTH",
"485 655 OFFCURVE",
"478 655 OFFCURVE",
"469 654 CURVE",
"386 603 OFFCURVE",
"343 578 OFFCURVE",
"341 576 CURVE",
"341 573 OFFCURVE",
"344 572 OFFCURVE",
"349 572 CURVE SMOOTH",
"353 572 OFFCURVE",
"393 590 OFFCURVE",
"467 624 CURVE",
"485 576 LINE SMOOTH",
"486 573 OFFCURVE",
"490 571 OFFCURVE",
"495 571 CURVE SMOOTH",
"500 572 OFFCURVE",
"503 574 OFFCURVE",
"503 576 CURVE"
);
}
);
width = 450;
}
);
note = Ecircumflex;
unicode = 00CA;
},
{
glyphname = Edieresis;
lastChange = "2021-04-19 06:54:11 +0000";
layers = (
{
hints = (
{
horizontal = 1;
place = "{-13, 54}";
type = Stem;
},
{
horizontal = 1;
place = "{288, 56}";
type = Stem;
},
{
horizontal = 1;
place = "{553, 38}";
type = Stem;
},
{
place = "{146, 52}";
type = Stem;
}
);
layerId = "C2A7C206-1962-4FAA-88DB-FE8C23752EC9";
paths = (
{
closed = 1;
nodes = (
"449 269 OFFCURVE",
"440 296 OFFCURVE",
"402 298 CURVE SMOOTH",
"362 300 OFFCURVE",
"311 296 OFFCURVE",
"257 290 CURVE SMOOTH",
"228 285 LINE",
"260 362 OFFCURVE",
"295 437 OFFCURVE",
"313 460 CURVE SMOOTH",
"318 468 OFFCURVE",
"322 469 OFFCURVE",
"327 470 CURVE SMOOTH",
"361 475 OFFCURVE",
"385 470 OFFCURVE",
"418 470 CURVE SMOOTH",
"457 470 OFFCURVE",
"462 468 OFFCURVE",
"444 444 CURVE SMOOTH",
"432 428 OFFCURVE",
"423 419 OFFCURVE",
"422 416 CURVE",
"404 392 OFFCURVE",
"425 402 OFFCURVE",
"432 409 CURVE",
"470 457 OFFCURVE",
"530 484 OFFCURVE",
"531 491 CURVE SMOOTH",
"532 494 OFFCURVE",
"532 496 OFFCURVE",
"530 502 CURVE",
"524 504 LINE",
"332 505 LINE",
"348 546 OFFCURVE",
"311 558 OFFCURVE",
"305 533 CURVE",
"297 517 OFFCURVE",
"304 504 OFFCURVE",
"279 507 CURVE SMOOTH",
"187 516 OFFCURVE",
"9 535 OFFCURVE",
"42 386 CURVE SMOOTH",
"46 366 OFFCURVE",
"55 332 OFFCURVE",
"61 313 CURVE SMOOTH",
"71 283 OFFCURVE",
"82 296 OFFCURVE",
"79 305 CURVE SMOOTH",
"66 339 OFFCURVE",
"48 382 OFFCURVE",
"58 420 CURVE SMOOTH",
"68 456 OFFCURVE",
"101 469 OFFCURVE",
"163 471 CURVE SMOOTH",
"285 475 LINE",
"267 427 OFFCURVE",
"228 353 OFFCURVE",
"192 278 CURVE",
"178 276 OFFCURVE",
"165 273 OFFCURVE",
"154 272 CURVE SMOOTH",
"140 271 OFFCURVE",
"122 259 OFFCURVE",
"115 249 CURVE SMOOTH",
"109 241 OFFCURVE",
"104 226 OFFCURVE",
"133 230 CURVE SMOOTH",
"144 231 OFFCURVE",
"158 235 OFFCURVE",
"174 239 CURVE",
"146 178 OFFCURVE",
"124 120 OFFCURVE",
"123 82 CURVE SMOOTH",
"121 55 OFFCURVE",
"136 17 OFFCURVE",
"166 0 CURVE SMOOTH",
"248 -47 OFFCURVE",
"365 -21 OFFCURVE",
"444 34 CURVE SMOOTH",
"459 44 OFFCURVE",
"472 57 OFFCURVE",
"484 70 CURVE SMOOTH",
"498 85 OFFCURVE",
"495 98 OFFCURVE",
"486 86 CURVE SMOOTH",
"448 39 OFFCURVE",
"384 13 OFFCURVE",
"325 12 CURVE SMOOTH",
"252 9 OFFCURVE",
"167 37 OFFCURVE",
"171 103 CURVE SMOOTH",
"172 131 OFFCURVE",
"190 189 OFFCURVE",
"214 250 CURVE",
"241 256 LINE SMOOTH",
"267 261 OFFCURVE",
"460 306 OFFCURVE",
"431 253 CURVE SMOOTH",
"426 245 OFFCURVE",
"436 244 OFFCURVE",
"440 252 CURVE SMOOTH"
);
},
{
closed = 1;
nodes = (
"502 640 OFFCURVE",
"501 642 OFFCURVE",
"497 643 CURVE",
"487 643 OFFCURVE",
"476 638 OFFCURVE",
"465 629 CURVE SMOOTH",
"453 620 OFFCURVE",
"446 611 OFFCURVE",
"443 602 CURVE SMOOTH",
"439 588 OFFCURVE",
"440 578 OFFCURVE",
"450 578 CURVE SMOOTH",
"466 578 OFFCURVE",
"477 584 OFFCURVE",
"481 597 CURVE SMOOTH",
"482 601 OFFCURVE",
"485 607 OFFCURVE",
"490 616 CURVE SMOOTH",
"496 625 OFFCURVE",
"500 633 OFFCURVE",
"501 638 CURVE"
);
},
{
closed = 1;
nodes = (
"404 640 OFFCURVE",
"403 642 OFFCURVE",
"399 643 CURVE",
"389 643 OFFCURVE",
"379 638 OFFCURVE",
"367 629 CURVE SMOOTH",
"356 620 OFFCURVE",
"348 611 OFFCURVE",
"346 602 CURVE SMOOTH",
"342 588 OFFCURVE",
"343 578 OFFCURVE",
"353 578 CURVE SMOOTH",
"369 578 OFFCURVE",
"379 584 OFFCURVE",
"383 597 CURVE SMOOTH",
"384 601 OFFCURVE",
"387 607 OFFCURVE",
"393 616 CURVE SMOOTH",
"399 625 OFFCURVE",
"402 633 OFFCURVE",
"404 638 CURVE"
);
}
);
width = 450;
}
);
note = Edieresis;
unicode = 00CB;
},
{
glyphname = Egrave;
lastChange = "2021-04-19 06:54:11 +0000";
layers = (
{
hints = (
{
horizontal = 1;
place = "{-13, 54}";
type = Stem;
},
{
horizontal = 1;
place = "{288, 56}";
type = Stem;
},
{
horizontal = 1;
place = "{553, 38}";
type = Stem;
},
{
place = "{146, 52}";
type = Stem;
}
);
layerId = "C2A7C206-1962-4FAA-88DB-FE8C23752EC9";
paths = (
{
closed = 1;
nodes = (
"449 269 OFFCURVE",
"440 296 OFFCURVE",
"402 298 CURVE SMOOTH",
"362 300 OFFCURVE",
"311 296 OFFCURVE",
"257 290 CURVE SMOOTH",
"228 285 LINE",
"260 362 OFFCURVE",
"295 437 OFFCURVE",
"313 460 CURVE SMOOTH",
"318 468 OFFCURVE",
"322 469 OFFCURVE",
"327 470 CURVE SMOOTH",
"361 475 OFFCURVE",
"385 470 OFFCURVE",
"418 470 CURVE SMOOTH",
"457 470 OFFCURVE",
"462 468 OFFCURVE",
"444 444 CURVE SMOOTH",
"432 428 OFFCURVE",
"423 419 OFFCURVE",
"422 416 CURVE",
"404 392 OFFCURVE",
"425 402 OFFCURVE",
"432 409 CURVE",
"470 457 OFFCURVE",
"530 484 OFFCURVE",
"531 491 CURVE SMOOTH",
"532 494 OFFCURVE",
"532 496 OFFCURVE",
"530 502 CURVE",
"524 504 LINE",
"332 505 LINE",
"348 546 OFFCURVE",
"311 558 OFFCURVE",
"305 533 CURVE",
"297 517 OFFCURVE",
"304 504 OFFCURVE",
"279 507 CURVE SMOOTH",
"187 516 OFFCURVE",
"9 535 OFFCURVE",
"42 386 CURVE SMOOTH",
"46 366 OFFCURVE",
"55 332 OFFCURVE",
"61 313 CURVE SMOOTH",
"71 283 OFFCURVE",
"82 296 OFFCURVE",
"79 305 CURVE SMOOTH",
"66 339 OFFCURVE",
"48 382 OFFCURVE",
"58 420 CURVE SMOOTH",
"68 456 OFFCURVE",
"101 469 OFFCURVE",
"163 471 CURVE SMOOTH",
"285 475 LINE",
"267 427 OFFCURVE",
"228 353 OFFCURVE",
"192 278 CURVE",
"178 276 OFFCURVE",
"165 273 OFFCURVE",
"154 272 CURVE SMOOTH",
"140 271 OFFCURVE",
"122 259 OFFCURVE",
"115 249 CURVE SMOOTH",
"109 241 OFFCURVE",
"104 226 OFFCURVE",
"133 230 CURVE SMOOTH",
"144 231 OFFCURVE",
"158 235 OFFCURVE",
"174 239 CURVE",
"146 178 OFFCURVE",
"124 120 OFFCURVE",
"123 82 CURVE SMOOTH",
"121 55 OFFCURVE",
"136 17 OFFCURVE",
"166 0 CURVE SMOOTH",
"248 -47 OFFCURVE",
"365 -21 OFFCURVE",
"444 34 CURVE SMOOTH",
"459 44 OFFCURVE",
"472 57 OFFCURVE",
"484 70 CURVE SMOOTH",
"498 85 OFFCURVE",
"495 98 OFFCURVE",
"486 86 CURVE SMOOTH",
"448 39 OFFCURVE",
"384 13 OFFCURVE",
"325 12 CURVE SMOOTH",
"252 9 OFFCURVE",
"167 37 OFFCURVE",
"171 103 CURVE SMOOTH",
"172 131 OFFCURVE",
"190 189 OFFCURVE",
"214 250 CURVE",
"241 256 LINE SMOOTH",
"267 261 OFFCURVE",
"460 306 OFFCURVE",
"431 253 CURVE SMOOTH",
"426 245 OFFCURVE",
"436 244 OFFCURVE",
"440 252 CURVE SMOOTH"
);
},
{
closed = 1;
nodes = (
"445 568 OFFCURVE",
"431 583 OFFCURVE",
"405 607 CURVE SMOOTH",
"378 630 OFFCURVE",
"362 643 OFFCURVE",
"359 643 CURVE SMOOTH",
"347 643 OFFCURVE",
"338 636 OFFCURVE",
"335 623 CURVE SMOOTH",
"334 619 OFFCURVE",
"335 615 OFFCURVE",
"339 612 CURVE SMOOTH",
"347 605 OFFCURVE",
"364 595 OFFCURVE",
"387 582 CURVE SMOOTH",
"414 566 OFFCURVE",
"431 558 OFFCURVE",
"438 558 CURVE",
"442 559 OFFCURVE",
"443 561 OFFCURVE",
"444 562 CURVE"
);
}
);
width = 450;
}
);
note = Egrave;
unicode = 00C8;
},
{
glyphname = F;
lastChange = "2021-04-19 06:54:11 +0000";
layers = (
{
hints = (
{
horizontal = 1;
place = "{-25, 59}";
type = Stem;
},
{
horizontal = 1;
place = "{287, 37}";
type = Stem;
},
{
horizontal = 1;
place = "{580, 20}";
type = Stem;
},
{
horizontal = 1;
place = "{636, -20}";
target = down;
type = TopGhost;
},
{
place = "{107, 27}";
type = Stem;
},
{
place = "{492, 10}";
type = Stem;
}
);
layerId = "C2A7C206-1962-4FAA-88DB-FE8C23752EC9";
paths = (
{
closed = 1;
nodes = (
"461 533 OFFCURVE",
"458 541 OFFCURVE",
"448 541 CURVE SMOOTH",
"439 541 OFFCURVE",
"427 535 OFFCURVE",
"422 529 CURVE SMOOTH",
"420 526 OFFCURVE",
"415 509 OFFCURVE",
"410 491 CURVE",
"382 494 OFFCURVE",
"354 497 OFFCURVE",
"327 501 CURVE SMOOTH",
"294 505 OFFCURVE",
"260 510 OFFCURVE",
"227 510 CURVE SMOOTH",
"169 510 OFFCURVE",
"122 493 OFFCURVE",
"122 427 CURVE SMOOTH",
"122 386 OFFCURVE",
"142 354 OFFCURVE",
"142 321 CURVE SMOOTH",
"142 285 OFFCURVE",
"113 243 OFFCURVE",
"74 243 CURVE SMOOTH",
"61 243 OFFCURVE",
"57 251 OFFCURVE",
"52 251 CURVE SMOOTH",
"51 251 OFFCURVE",
"49 250 OFFCURVE",
"49 248 CURVE SMOOTH",
"49 237 OFFCURVE",
"83 231 OFFCURVE",
"91 231 CURVE SMOOTH",
"131 231 OFFCURVE",
"167 258 OFFCURVE",
"167 299 CURVE SMOOTH",
"167 335 OFFCURVE",
"145 367 OFFCURVE",
"145 403 CURVE SMOOTH",
"145 467 OFFCURVE",
"220 473 OFFCURVE",
"268 473 CURVE SMOOTH",
"300 473 OFFCURVE",
"332 471 OFFCURVE",
"363 469 CURVE SMOOTH",
"404 466 LINE",
"398 443 LINE SMOOTH",
"383 394 OFFCURVE",
"366 342 OFFCURVE",
"348 290 CURVE",
"311 285 OFFCURVE",
"275 278 OFFCURVE",
"238 272 CURVE SMOOTH",
"224 270 OFFCURVE",
"194 254 OFFCURVE",
"194 238 CURVE SMOOTH",
"194 231 OFFCURVE",
"203 230 OFFCURVE",
"208 230 CURVE SMOOTH",
"236 230 OFFCURVE",
"294 250 OFFCURVE",
"325 256 CURVE SMOOTH",
"336 258 LINE",
"318 210 OFFCURVE",
"298 162 OFFCURVE",
"277 119 CURVE SMOOTH",
"256 76 OFFCURVE",
"222 29 OFFCURVE",
"170 29 CURVE SMOOTH",
"104 29 OFFCURVE",
"75 79 OFFCURVE",
"65 137 CURVE SMOOTH",
"63 152 OFFCURVE",
"63 167 OFFCURVE",
"61 182 CURVE",
"60 185 OFFCURVE",
"58 188 OFFCURVE",
"55 188 CURVE SMOOTH",
"51 188 OFFCURVE",
"49 185 OFFCURVE",
"49 182 CURVE SMOOTH",
"49 108 OFFCURVE",
"76 -21 OFFCURVE",
"170 -21 CURVE SMOOTH",
"195 -21 OFFCURVE",
"218 -10 OFFCURVE",
"236 8 CURVE SMOOTH",
"272 42 OFFCURVE",
"304 128 OFFCURVE",
"323 175 CURVE SMOOTH",
"335 204 OFFCURVE",
"347 233 OFFCURVE",
"358 263 CURVE",
"398 271 OFFCURVE",
"438 279 OFFCURVE",
"478 279 CURVE SMOOTH",
"488 279 OFFCURVE",
"518 279 OFFCURVE",
"518 263 CURVE SMOOTH",
"518 257 OFFCURVE",
"514 253 OFFCURVE",
"514 250 CURVE SMOOTH",
"514 248 OFFCURVE",
"515 247 OFFCURVE",
"517 247 CURVE SMOOTH",
"524 247 OFFCURVE",
"528 259 OFFCURVE",
"528 266 CURVE SMOOTH",
"528 298 OFFCURVE",
"486 299 OFFCURVE",
"463 299 CURVE SMOOTH",
"432 299 OFFCURVE",
"401 297 OFFCURVE",
"370 293 CURVE",
"415 410 LINE SMOOTH",
"423 430 OFFCURVE",
"434 447 OFFCURVE",
"443 464 CURVE",
"469 463 OFFCURVE",
"495 463 OFFCURVE",
"521 463 CURVE SMOOTH",
"539 463 OFFCURVE",
"671 464 OFFCURVE",
"671 492 CURVE SMOOTH",
"671 495 OFFCURVE",
"669 499 OFFCURVE",
"666 499 CURVE SMOOTH",
"664 499 OFFCURVE",
"663 498 OFFCURVE",
"661 497 CURVE",
"645 484 OFFCURVE",
"591 484 OFFCURVE",
"571 484 CURVE SMOOTH",
"532 484 OFFCURVE",
"492 485 OFFCURVE",
"453 488 CURVE",
"457 499 OFFCURVE",
"460 511 OFFCURVE",
"461 524 CURVE SMOOTH"
);
}
);
width = 421;
}
);
note = F;
unicode = 0046;
},
{
glyphname = G;
lastChange = "2021-04-19 06:54:11 +0000";
layers = (
{
hints = (
{
horizontal = 1;
place = "{-371, 52}";
type = Stem;
},
{
horizontal = 1;
place = "{-14, 43}";
type = Stem;
},
{
horizontal = 1;
place = "{262, 12}";
type = Stem;
},
{
horizontal = 1;
place = "{552, 61}";
type = Stem;
},
{
horizontal = 1;
place = "{659, -20}";
target = down;
type = TopGhost;
},
{
place = "{-752, 30}";
type = Stem;
},
{
place = "{-469, 38}";
type = Stem;
},
{
place = "{-200, 14}";
type = Stem;
}
);
layerId = "C2A7C206-1962-4FAA-88DB-FE8C23752EC9";
paths = (
{
closed = 1;
nodes = (
"140 -24 OFFCURVE",
"2 90 OFFCURVE",
"154 301 CURVE SMOOTH",
"222 396 OFFCURVE",
"348 497 OFFCURVE",
"479 486 CURVE SMOOTH",
"515 483 OFFCURVE",
"537 465 OFFCURVE",
"515 416 CURVE SMOOTH",
"503 391 OFFCURVE",
"493 365 OFFCURVE",
"488 353 CURVE SMOOTH",
"482 339 OFFCURVE",
"501 334 OFFCURVE",
"505 348 CURVE SMOOTH",
"527 411 OFFCURVE",
"552 459 OFFCURVE",
"595 514 CURVE SMOOTH",
"608 531 OFFCURVE",
"585 543 OFFCURVE",
"567 528 CURVE SMOOTH",
"558 521 OFFCURVE",
"554 504 OFFCURVE",
"544 491 CURVE",
"533 503 OFFCURVE",
"512 508 OFFCURVE",
"486 507 CURVE SMOOTH",
"344 506 OFFCURVE",
"212 422 OFFCURVE",
"123 324 CURVE SMOOTH",
"-66 114 OFFCURVE",
"43 -98 OFFCURVE",
"316 40 CURVE SMOOTH",
"347 56 OFFCURVE",
"438 114 OFFCURVE",
"476 164 CURVE",
"451 50 OFFCURVE",
"351 -155 OFFCURVE",
"276 -225 CURVE SMOOTH",
"230 -267 OFFCURVE",
"146 -294 OFFCURVE",
"131 -208 CURVE SMOOTH",
"122 -158 OFFCURVE",
"153 -78 OFFCURVE",
"181 -42 CURVE SMOOTH",
"183 -40 OFFCURVE",
"180 -33 OFFCURVE",
"175 -37 CURVE SMOOTH",
"146 -63 OFFCURVE",
"94 -139 OFFCURVE",
"106 -210 CURVE SMOOTH",
"121 -293 OFFCURVE",
"224 -289 OFFCURVE",
"281 -256 CURVE SMOOTH",
"417 -178 OFFCURVE",
"455 28 OFFCURVE",
"514 161 CURVE SMOOTH",
"544 228 OFFCURVE",
"573 218 OFFCURVE",
"596 219 CURVE",
"598 223 OFFCURVE",
"600 229 OFFCURVE",
"595 231 CURVE",
"595 231 OFFCURVE",
"374 226 OFFCURVE",
"329 229 CURVE SMOOTH",
"308 231 OFFCURVE",
"299 217 OFFCURVE",
"310 200 CURVE SMOOTH",
"318 187 OFFCURVE",
"335 165 OFFCURVE",
"344 158 CURVE",
"348 153 OFFCURVE",
"351 164 OFFCURVE",
"350 166 CURVE SMOOTH",
"345 173 OFFCURVE",
"330 193 OFFCURVE",
"361 200 CURVE SMOOTH",
"401 208 OFFCURVE",
"454 212 OFFCURVE",
"474 204 CURVE",
"462 150 OFFCURVE",
"352 75 OFFCURVE",
"312 56 CURVE SMOOTH"
);
}
);
width = 561;
}
);
note = G;
unicode = 0047;
},
{
glyphname = H;
lastChange = "2021-04-19 06:54:11 +0000";
layers = (
{
hints = (
{
horizontal = 1;
place = "{-1, 62}";
type = Stem;
},
{
horizontal = 1;
place = "{663, -20}";
target = down;
type = TopGhost;
},
{
place = "{22, 12}";
type = Stem;
},
{
place = "{139, 53}";
type = Stem;
},
{
place = "{636, 56}";
type = Stem;
}
);
layerId = "C2A7C206-1962-4FAA-88DB-FE8C23752EC9";
paths = (
{
closed = 1;
nodes = (
"670 229 OFFCURVE",
"657 256 OFFCURVE",
"603 258 CURVE SMOOTH",
"592 258 OFFCURVE",
"583 259 OFFCURVE",
"574 259 CURVE",
"602 334 OFFCURVE",
"635 409 OFFCURVE",
"672 480 CURVE SMOOTH",
"681 497 OFFCURVE",
"697 518 OFFCURVE",
"709 527 CURVE SMOOTH",
"712 529 OFFCURVE",
"713 542 OFFCURVE",
"700 536 CURVE SMOOTH",
"684 529 OFFCURVE",
"654 519 OFFCURVE",
"646 511 CURVE",
"633 488 OFFCURVE",
"620 462 OFFCURVE",
"604 430 CURVE SMOOTH",
"595 412 OFFCURVE",
"607 409 OFFCURVE",
"611 409 CURVE",
"611 400 OFFCURVE",
"591 355 OFFCURVE",
"564 296 CURVE SMOOTH",
"547 259 LINE",
"469 257 OFFCURVE",
"392 245 OFFCURVE",
"315 236 CURVE",
"364 356 LINE SMOOTH",
"382 399 OFFCURVE",
"395 433 OFFCURVE",
"407 459 CURVE SMOOTH",
"424 499 OFFCURVE",
"433 510 OFFCURVE",
"443 519 CURVE SMOOTH",
"453 527 OFFCURVE",
"473 576 OFFCURVE",
"453 564 CURVE",
"443 552 OFFCURVE",
"434 544 OFFCURVE",
"425 536 CURVE SMOOTH",
"424 535 OFFCURVE",
"423 534 OFFCURVE",
"422 534 CURVE",
"432 547 OFFCURVE",
"426 558 OFFCURVE",
"415 549 CURVE SMOOTH",
"391 527 OFFCURVE",
"294 502 OFFCURVE",
"257 496 CURVE SMOOTH",
"187 484 OFFCURVE",
"61 470 OFFCURVE",
"111 329 CURVE SMOOTH",
"117 311 OFFCURVE",
"128 293 OFFCURVE",
"133 274 CURVE SMOOTH",
"149 212 OFFCURVE",
"108 161 OFFCURVE",
"87 175 CURVE SMOOTH",
"81 179 OFFCURVE",
"78 172 OFFCURVE",
"83 168 CURVE SMOOTH",
"116 147 OFFCURVE",
"182 185 OFFCURVE",
"164 251 CURVE SMOOTH",
"154 286 OFFCURVE",
"120 329 OFFCURVE",
"121 369 CURVE SMOOTH",
"122 406 OFFCURVE",
"145 434 OFFCURVE",
"190 451 CURVE SMOOTH",
"235 467 OFFCURVE",
"323 492 OFFCURVE",
"396 517 CURVE SMOOTH",
"402 519 LINE",
"384 505 OFFCURVE",
"376 493 OFFCURVE",
"374 453 CURVE SMOOTH",
"374 448 LINE",
"373 445 OFFCURVE",
"367 427 OFFCURVE",
"354 393 CURVE SMOOTH",
"342 361 OFFCURVE",
"320 298 OFFCURVE",
"291 234 CURVE",
"289 233 OFFCURVE",
"286 233 OFFCURVE",
"284 233 CURVE SMOOTH",
"265 232 OFFCURVE",
"240 220 OFFCURVE",
"230 210 CURVE SMOOTH",
"222 202 OFFCURVE",
"215 187 OFFCURVE",
"255 191 CURVE SMOOTH",
"260 191 OFFCURVE",
"266 192 OFFCURVE",
"272 193 CURVE",
"253 153 OFFCURVE",
"230 117 OFFCURVE",
"207 90 CURVE SMOOTH",
"182 62 OFFCURVE",
"155 52 OFFCURVE",
"127 52 CURVE SMOOTH",
"60 52 OFFCURVE",
"37 130 OFFCURVE",
"36 184 CURVE",
"37 194 OFFCURVE",
"28 187 OFFCURVE",
"26 181 CURVE",
"21 140 OFFCURVE",
"34 51 OFFCURVE",
"78 17 CURVE SMOOTH",
"163 -49 OFFCURVE",
"229 52 OFFCURVE",
"263 120 CURVE SMOOTH",
"274 144 OFFCURVE",
"287 170 OFFCURVE",
"298 197 CURVE",
"321 202 LINE SMOOTH",
"392 216 OFFCURVE",
"464 229 OFFCURVE",
"536 235 CURVE",
"517 196 OFFCURVE",
"499 157 OFFCURVE",
"486 112 CURVE SMOOTH",
"466 49 OFFCURVE",
"461 -7 OFFCURVE",
"511 -11 CURVE SMOOTH",
"556 -15 OFFCURVE",
"625 63 OFFCURVE",
"647 88 CURVE SMOOTH",
"700 152 LINE SMOOTH",
"702 155 OFFCURVE",
"702 158 OFFCURVE",
"701 160 CURVE SMOOTH",
"700 161 OFFCURVE",
"700 162 OFFCURVE",
"699 161 CURVE SMOOTH",
"686 145 OFFCURVE",
"644 98 OFFCURVE",
"641 94 CURVE SMOOTH",
"602 51 OFFCURVE",
"574 35 OFFCURVE",
"555 26 CURVE SMOOTH",
"483 -8 OFFCURVE",
"536 154 OFFCURVE",
"560 220 CURVE SMOOTH",
"566 238 LINE",
"621 241 OFFCURVE",
"662 237 OFFCURVE",
"644 213 CURVE SMOOTH",
"638 205 OFFCURVE",
"651 204 OFFCURVE",
"657 212 CURVE SMOOTH"
);
}
);
width = 597;
}
);
note = H;
unicode = 0048;
},
{
glyphname = I;
lastChange = "2021-04-19 06:54:11 +0000";
layers = (
{
hints = (
{
horizontal = 1;
place = "{-35, 63}";
type = Stem;
},
{
horizontal = 1;
place = "{635, -20}";
target = down;
type = TopGhost;
},
{
place = "{235, 54}";
type = Stem;
}
);
layerId = "C2A7C206-1962-4FAA-88DB-FE8C23752EC9";
paths = (
{
closed = 1;
nodes = (
"424 550 OFFCURVE",
"404 524 OFFCURVE",
"395 519 CURVE SMOOTH",
"334 482 OFFCURVE",
"140 495 OFFCURVE",
"140 405 CURVE SMOOTH",
"140 363 OFFCURVE",
"182 326 OFFCURVE",
"182 280 CURVE SMOOTH",
"182 262 OFFCURVE",
"170 220 OFFCURVE",
"147 220 CURVE SMOOTH",
"143 220 OFFCURVE",
"140 223 OFFCURVE",
"139 223 CURVE SMOOTH",
"137 223 OFFCURVE",
"136 222 OFFCURVE",
"136 220 CURVE SMOOTH",
"136 214 OFFCURVE",
"151 212 OFFCURVE",
"156 212 CURVE SMOOTH",
"184 212 OFFCURVE",
"206 239 OFFCURVE",
"206 266 CURVE SMOOTH",
"206 305 OFFCURVE",
"169 339 OFFCURVE",
"169 380 CURVE SMOOTH",
"169 415 OFFCURVE",
"195 435 OFFCURVE",
"225 447 CURVE SMOOTH",
"272 465 OFFCURVE",
"321 480 OFFCURVE",
"369 496 CURVE",
"350 478 OFFCURVE",
"353 456 OFFCURVE",
"352 432 CURVE SMOOTH",
"352 427 OFFCURVE",
"337 383 OFFCURVE",
"335 377 CURVE SMOOTH",
"304 281 OFFCURVE",
"262 134 OFFCURVE",
"199 57 CURVE SMOOTH",
"179 33 OFFCURVE",
"154 19 OFFCURVE",
"122 19 CURVE SMOOTH",
"67 19 OFFCURVE",
"39 71 OFFCURVE",
"29 118 CURVE SMOOTH",
"26 129 OFFCURVE",
"23 141 OFFCURVE",
"23 152 CURVE SMOOTH",
"23 153 OFFCURVE",
"24 157 OFFCURVE",
"21 157 CURVE SMOOTH",
"14 157 OFFCURVE",
"14 145 OFFCURVE",
"14 140 CURVE SMOOTH",
"14 72 OFFCURVE",
"49 -37 OFFCURVE",
"131 -37 CURVE SMOOTH",
"191 -37 OFFCURVE",
"233 40 OFFCURVE",
"254 88 CURVE SMOOTH",
"290 170 OFFCURVE",
"316 256 OFFCURVE",
"347 340 CURVE SMOOTH",
"359 375 OFFCURVE",
"371 409 OFFCURVE",
"384 443 CURVE SMOOTH",
"393 466 OFFCURVE",
"401 485 OFFCURVE",
"417 503 CURVE SMOOTH",
"425 511 OFFCURVE",
"433 533 OFFCURVE",
"433 544 CURVE SMOOTH",
"433 546 OFFCURVE",
"433 550 OFFCURVE",
"430 550 CURVE SMOOTH"
);
}
);
width = 322;
}
);
note = I;
unicode = 0049;
},
{
glyphname = Iacute;
lastChange = "2021-04-19 06:54:11 +0000";
layers = (
{
hints = (
{
horizontal = 1;
place = "{-35, 63}";
type = Stem;
},
{
horizontal = 1;
place = "{635, -20}";
target = down;
type = TopGhost;
},
{
place = "{235, 54}";
type = Stem;
}
);
layerId = "C2A7C206-1962-4FAA-88DB-FE8C23752EC9";
paths = (
{
closed = 1;
nodes = (
"424 550 OFFCURVE",
"404 524 OFFCURVE",
"395 519 CURVE SMOOTH",
"334 482 OFFCURVE",
"140 495 OFFCURVE",
"140 405 CURVE SMOOTH",
"140 363 OFFCURVE",
"182 326 OFFCURVE",
"182 280 CURVE SMOOTH",
"182 262 OFFCURVE",
"170 220 OFFCURVE",
"147 220 CURVE SMOOTH",
"143 220 OFFCURVE",
"140 223 OFFCURVE",
"139 223 CURVE SMOOTH",
"137 223 OFFCURVE",
"136 222 OFFCURVE",
"136 220 CURVE SMOOTH",
"136 214 OFFCURVE",
"151 212 OFFCURVE",
"156 212 CURVE SMOOTH",
"184 212 OFFCURVE",
"206 239 OFFCURVE",
"206 266 CURVE SMOOTH",
"206 305 OFFCURVE",
"169 339 OFFCURVE",
"169 380 CURVE SMOOTH",
"169 415 OFFCURVE",
"195 435 OFFCURVE",
"225 447 CURVE SMOOTH",
"272 465 OFFCURVE",
"321 480 OFFCURVE",
"369 496 CURVE",
"350 478 OFFCURVE",
"353 456 OFFCURVE",
"352 432 CURVE SMOOTH",
"352 427 OFFCURVE",
"337 383 OFFCURVE",
"335 377 CURVE SMOOTH",
"304 281 OFFCURVE",
"262 134 OFFCURVE",
"199 57 CURVE SMOOTH",
"179 33 OFFCURVE",
"154 19 OFFCURVE",
"122 19 CURVE SMOOTH",
"67 19 OFFCURVE",
"39 71 OFFCURVE",
"29 118 CURVE SMOOTH",
"26 129 OFFCURVE",
"23 141 OFFCURVE",
"23 152 CURVE SMOOTH",
"23 153 OFFCURVE",
"24 157 OFFCURVE",
"21 157 CURVE SMOOTH",
"14 157 OFFCURVE",
"14 145 OFFCURVE",
"14 140 CURVE SMOOTH",
"14 72 OFFCURVE",
"49 -37 OFFCURVE",
"131 -37 CURVE SMOOTH",
"191 -37 OFFCURVE",
"233 40 OFFCURVE",
"254 88 CURVE SMOOTH",
"290 170 OFFCURVE",
"316 256 OFFCURVE",
"347 340 CURVE SMOOTH",
"359 375 OFFCURVE",
"371 409 OFFCURVE",
"384 443 CURVE SMOOTH",
"393 466 OFFCURVE",
"401 485 OFFCURVE",
"417 503 CURVE SMOOTH",
"425 511 OFFCURVE",
"433 533 OFFCURVE",
"433 544 CURVE SMOOTH",
"433 546 OFFCURVE",
"433 550 OFFCURVE",
"430 550 CURVE SMOOTH"
);
},
{
closed = 1;
nodes = (
"511 668 OFFCURVE",
"508 681 OFFCURVE",
"496 680 CURVE SMOOTH",
"492 680 OFFCURVE",
"487 678 OFFCURVE",
"482 674 CURVE SMOOTH",
"463 662 OFFCURVE",
"432 639 OFFCURVE",
"389 607 CURVE SMOOTH",
"338 568 OFFCURVE",
"348 571 OFFCURVE",
"346 564 CURVE SMOOTH",
"345 561 OFFCURVE",
"347 560 OFFCURVE",
"349 560 CURVE SMOOTH",
"359 560 OFFCURVE",
"365 563 OFFCURVE",
"447 616 CURVE SMOOTH",
"493 644 LINE SMOOTH",
"499 648 OFFCURVE",
"503 652 OFFCURVE",
"505 657 CURVE SMOOTH"
);
}
);
width = 322;
}
);
note = Iacute;
unicode = 00CD;
},
{
glyphname = Icircumflex;
lastChange = "2021-04-19 06:54:11 +0000";
layers = (
{
hints = (
{
horizontal = 1;
place = "{-35, 63}";
type = Stem;
},
{
horizontal = 1;
place = "{635, -20}";
target = down;
type = TopGhost;
},
{
place = "{235, 54}";
type = Stem;
}
);
layerId = "C2A7C206-1962-4FAA-88DB-FE8C23752EC9";
paths = (
{
closed = 1;
nodes = (
"424 550 OFFCURVE",
"404 524 OFFCURVE",
"395 519 CURVE SMOOTH",
"334 482 OFFCURVE",
"140 495 OFFCURVE",
"140 405 CURVE SMOOTH",
"140 363 OFFCURVE",
"182 326 OFFCURVE",
"182 280 CURVE SMOOTH",
"182 262 OFFCURVE",
"170 220 OFFCURVE",
"147 220 CURVE SMOOTH",
"143 220 OFFCURVE",
"140 223 OFFCURVE",
"139 223 CURVE SMOOTH",
"137 223 OFFCURVE",
"136 222 OFFCURVE",
"136 220 CURVE SMOOTH",
"136 214 OFFCURVE",
"151 212 OFFCURVE",
"156 212 CURVE SMOOTH",
"184 212 OFFCURVE",
"206 239 OFFCURVE",
"206 266 CURVE SMOOTH",
"206 305 OFFCURVE",
"169 339 OFFCURVE",
"169 380 CURVE SMOOTH",
"169 415 OFFCURVE",
"195 435 OFFCURVE",
"225 447 CURVE SMOOTH",
"272 465 OFFCURVE",
"321 480 OFFCURVE",
"369 496 CURVE",
"350 478 OFFCURVE",
"353 456 OFFCURVE",
"352 432 CURVE SMOOTH",
"352 427 OFFCURVE",
"337 383 OFFCURVE",
"335 377 CURVE SMOOTH",
"304 281 OFFCURVE",
"262 134 OFFCURVE",
"199 57 CURVE SMOOTH",
"179 33 OFFCURVE",
"154 19 OFFCURVE",
"122 19 CURVE SMOOTH",
"67 19 OFFCURVE",
"39 71 OFFCURVE",
"29 118 CURVE SMOOTH",
"26 129 OFFCURVE",
"23 141 OFFCURVE",
"23 152 CURVE SMOOTH",
"23 153 OFFCURVE",
"24 157 OFFCURVE",
"21 157 CURVE SMOOTH",
"14 157 OFFCURVE",
"14 145 OFFCURVE",
"14 140 CURVE SMOOTH",
"14 72 OFFCURVE",
"49 -37 OFFCURVE",
"131 -37 CURVE SMOOTH",
"191 -37 OFFCURVE",
"233 40 OFFCURVE",
"254 88 CURVE SMOOTH",
"290 170 OFFCURVE",
"316 256 OFFCURVE",
"347 340 CURVE SMOOTH",
"359 375 OFFCURVE",
"371 409 OFFCURVE",
"384 443 CURVE SMOOTH",
"393 466 OFFCURVE",
"401 485 OFFCURVE",
"417 503 CURVE SMOOTH",
"425 511 OFFCURVE",
"433 533 OFFCURVE",
"433 544 CURVE SMOOTH",
"433 546 OFFCURVE",
"433 550 OFFCURVE",
"430 550 CURVE SMOOTH"
);
},
{
closed = 1;
nodes = (
"492 577 OFFCURVE",
"490 603 OFFCURVE",
"487 652 CURVE SMOOTH",
"487 653 OFFCURVE",
"484 655 OFFCURVE",
"478 655 CURVE SMOOTH",
"473 655 OFFCURVE",
"467 655 OFFCURVE",
"458 654 CURVE",
"374 603 OFFCURVE",
"331 578 OFFCURVE",
"329 576 CURVE",
"330 573 OFFCURVE",
"332 572 OFFCURVE",
"337 572 CURVE SMOOTH",
"341 572 OFFCURVE",
"381 590 OFFCURVE",
"455 624 CURVE",
"473 576 LINE",
"475 573 OFFCURVE",
"478 571 OFFCURVE",
"483 571 CURVE SMOOTH",
"489 572 OFFCURVE",
"491 574 OFFCURVE",
"492 576 CURVE"
);
}
);
width = 322;
}
);
note = Icircumflex;
unicode = 00CE;
},
{
glyphname = Idieresis;
lastChange = "2021-04-19 06:54:11 +0000";
layers = (
{
hints = (
{
horizontal = 1;
place = "{-35, 63}";
type = Stem;
},
{
horizontal = 1;
place = "{635, -20}";
target = down;
type = TopGhost;
},
{
place = "{235, 54}";
type = Stem;
}
);
layerId = "C2A7C206-1962-4FAA-88DB-FE8C23752EC9";
paths = (
{
closed = 1;
nodes = (
"424 550 OFFCURVE",
"404 524 OFFCURVE",
"395 519 CURVE SMOOTH",
"334 482 OFFCURVE",
"140 495 OFFCURVE",
"140 405 CURVE SMOOTH",
"140 363 OFFCURVE",
"182 326 OFFCURVE",
"182 280 CURVE SMOOTH",
"182 262 OFFCURVE",
"170 220 OFFCURVE",
"147 220 CURVE SMOOTH",
"143 220 OFFCURVE",
"140 223 OFFCURVE",
"139 223 CURVE SMOOTH",
"137 223 OFFCURVE",
"136 222 OFFCURVE",
"136 220 CURVE SMOOTH",
"136 214 OFFCURVE",
"151 212 OFFCURVE",
"156 212 CURVE SMOOTH",
"184 212 OFFCURVE",
"206 239 OFFCURVE",
"206 266 CURVE SMOOTH",
"206 305 OFFCURVE",
"169 339 OFFCURVE",
"169 380 CURVE SMOOTH",
"169 415 OFFCURVE",
"195 435 OFFCURVE",
"225 447 CURVE SMOOTH",
"272 465 OFFCURVE",
"321 480 OFFCURVE",
"369 496 CURVE",
"350 478 OFFCURVE",
"353 456 OFFCURVE",
"352 432 CURVE SMOOTH",
"352 427 OFFCURVE",
"337 383 OFFCURVE",
"335 377 CURVE SMOOTH",
"304 281 OFFCURVE",
"262 134 OFFCURVE",
"199 57 CURVE SMOOTH",
"179 33 OFFCURVE",
"154 19 OFFCURVE",
"122 19 CURVE SMOOTH",
"67 19 OFFCURVE",
"39 71 OFFCURVE",
"29 118 CURVE SMOOTH",
"26 129 OFFCURVE",
"23 141 OFFCURVE",
"23 152 CURVE SMOOTH",
"23 153 OFFCURVE",
"24 157 OFFCURVE",
"21 157 CURVE SMOOTH",
"14 157 OFFCURVE",
"14 145 OFFCURVE",
"14 140 CURVE SMOOTH",
"14 72 OFFCURVE",
"49 -37 OFFCURVE",
"131 -37 CURVE SMOOTH",
"191 -37 OFFCURVE",
"233 40 OFFCURVE",
"254 88 CURVE SMOOTH",
"290 170 OFFCURVE",
"316 256 OFFCURVE",
"347 340 CURVE SMOOTH",
"359 375 OFFCURVE",
"371 409 OFFCURVE",
"384 443 CURVE SMOOTH",
"393 466 OFFCURVE",
"401 485 OFFCURVE",
"417 503 CURVE SMOOTH",
"425 511 OFFCURVE",
"433 533 OFFCURVE",
"433 544 CURVE SMOOTH",
"433 546 OFFCURVE",
"433 550 OFFCURVE",
"430 550 CURVE SMOOTH"
);
},
{
closed = 1;
nodes = (
"527 638 LINE",
"527 640 OFFCURVE",
"526 642 OFFCURVE",
"522 643 CURVE",
"512 643 OFFCURVE",
"501 638 OFFCURVE",
"490 629 CURVE SMOOTH",
"478 620 OFFCURVE",
"471 611 OFFCURVE",
"469 602 CURVE SMOOTH",
"464 588 OFFCURVE",
"466 578 OFFCURVE",
"476 578 CURVE SMOOTH",
"491 578 OFFCURVE",
"502 584 OFFCURVE",
"506 597 CURVE SMOOTH",
"507 601 OFFCURVE",
"510 607 OFFCURVE",
"516 616 CURVE"
);
},
{
closed = 1;
nodes = (
"430 640 OFFCURVE",
"429 642 OFFCURVE",
"424 643 CURVE",
"414 643 OFFCURVE",
"404 638 OFFCURVE",
"392 629 CURVE SMOOTH",
"381 620 OFFCURVE",
"374 611 OFFCURVE",
"371 602 CURVE SMOOTH",
"367 588 OFFCURVE",
"368 578 OFFCURVE",
"378 578 CURVE SMOOTH",
"394 578 OFFCURVE",
"405 584 OFFCURVE",
"408 597 CURVE SMOOTH",
"409 601 OFFCURVE",
"412 607 OFFCURVE",
"418 616 CURVE SMOOTH",
"424 625 OFFCURVE",
"428 633 OFFCURVE",
"429 638 CURVE"
);
}
);
width = 322;
}
);
note = Idieresis;
unicode = 00CF;
},
{
glyphname = Igrave;
lastChange = "2021-04-19 06:54:11 +0000";
layers = (
{
hints = (
{
horizontal = 1;
place = "{-35, 63}";
type = Stem;
},
{
horizontal = 1;
place = "{635, -20}";
target = down;
type = TopGhost;
},
{
place = "{235, 54}";
type = Stem;
}
);
layerId = "C2A7C206-1962-4FAA-88DB-FE8C23752EC9";
paths = (
{
closed = 1;
nodes = (
"424 550 OFFCURVE",
"404 524 OFFCURVE",
"395 519 CURVE SMOOTH",
"334 482 OFFCURVE",
"140 495 OFFCURVE",
"140 405 CURVE SMOOTH",
"140 363 OFFCURVE",
"182 326 OFFCURVE",
"182 280 CURVE SMOOTH",
"182 262 OFFCURVE",
"170 220 OFFCURVE",
"147 220 CURVE SMOOTH",
"143 220 OFFCURVE",
"140 223 OFFCURVE",
"139 223 CURVE SMOOTH",
"137 223 OFFCURVE",
"136 222 OFFCURVE",
"136 220 CURVE SMOOTH",
"136 214 OFFCURVE",
"151 212 OFFCURVE",
"156 212 CURVE SMOOTH",
"184 212 OFFCURVE",
"206 239 OFFCURVE",
"206 266 CURVE SMOOTH",
"206 305 OFFCURVE",
"169 339 OFFCURVE",
"169 380 CURVE SMOOTH",
"169 415 OFFCURVE",
"195 435 OFFCURVE",
"225 447 CURVE SMOOTH",
"272 465 OFFCURVE",
"321 480 OFFCURVE",
"369 496 CURVE",
"350 478 OFFCURVE",
"353 456 OFFCURVE",
"352 432 CURVE SMOOTH",
"352 427 OFFCURVE",
"337 383 OFFCURVE",
"335 377 CURVE SMOOTH",
"304 281 OFFCURVE",
"262 134 OFFCURVE",
"199 57 CURVE SMOOTH",
"179 33 OFFCURVE",
"154 19 OFFCURVE",
"122 19 CURVE SMOOTH",
"67 19 OFFCURVE",
"39 71 OFFCURVE",
"29 118 CURVE SMOOTH",
"26 129 OFFCURVE",
"23 141 OFFCURVE",
"23 152 CURVE SMOOTH",
"23 153 OFFCURVE",
"24 157 OFFCURVE",
"21 157 CURVE SMOOTH",
"14 157 OFFCURVE",
"14 145 OFFCURVE",
"14 140 CURVE SMOOTH",
"14 72 OFFCURVE",
"49 -37 OFFCURVE",
"131 -37 CURVE SMOOTH",
"191 -37 OFFCURVE",
"233 40 OFFCURVE",
"254 88 CURVE SMOOTH",
"290 170 OFFCURVE",
"316 256 OFFCURVE",
"347 340 CURVE SMOOTH",
"359 375 OFFCURVE",
"371 409 OFFCURVE",
"384 443 CURVE SMOOTH",
"393 466 OFFCURVE",
"401 485 OFFCURVE",
"417 503 CURVE SMOOTH",
"425 511 OFFCURVE",
"433 533 OFFCURVE",
"433 544 CURVE SMOOTH",
"433 546 OFFCURVE",
"433 550 OFFCURVE",
"430 550 CURVE SMOOTH"
);
},
{
closed = 1;
nodes = (
"462 591 OFFCURVE",
"448 606 OFFCURVE",
"421 629 CURVE SMOOTH",
"395 653 OFFCURVE",
"379 665 OFFCURVE",
"375 665 CURVE SMOOTH",
"363 665 OFFCURVE",
"355 658 OFFCURVE",
"352 646 CURVE SMOOTH",
"350 641 OFFCURVE",
"352 637 OFFCURVE",
"355 635 CURVE SMOOTH",
"364 628 OFFCURVE",
"381 618 OFFCURVE",
"404 604 CURVE SMOOTH",
"431 589 OFFCURVE",
"448 580 OFFCURVE",
"455 580 CURVE",
"459 582 OFFCURVE",
"460 583 OFFCURVE",
"460 584 CURVE SMOOTH"
);
}
);
width = 322;
}
);
note = Igrave;
unicode = 00CC;
},
{
glyphname = J;
lastChange = "2021-04-19 06:54:11 +0000";
layers = (
{
hints = (
{
horizontal = 1;
place = "{-189, 53}";
type = Stem;
},
{
horizontal = 1;
place = "{662, -20}";
target = down;
type = TopGhost;
},
{
place = "{-68, 13}";
type = Stem;
},
{
place = "{126, 28}";
type = Stem;
}
);
layerId = "C2A7C206-1962-4FAA-88DB-FE8C23752EC9";
paths = (
{
closed = 1;
nodes = (
"548 552 OFFCURVE",
"541 544 OFFCURVE",
"531 536 CURVE SMOOTH",
"529 534 LINE",
"499 519 OFFCURVE",
"441 508 OFFCURVE",
"416 504 CURVE SMOOTH",
"359 495 OFFCURVE",
"234 478 OFFCURVE",
"286 378 CURVE SMOOTH",
"293 364 OFFCURVE",
"308 335 OFFCURVE",
"312 319 CURVE SMOOTH",
"326 269 OFFCURVE",
"292 227 OFFCURVE",
"275 238 CURVE SMOOTH",
"270 241 OFFCURVE",
"267 235 OFFCURVE",
"272 233 CURVE",
"299 216 OFFCURVE",
"352 246 OFFCURVE",
"338 300 CURVE SMOOTH",
"330 329 OFFCURVE",
"302 364 OFFCURVE",
"303 396 CURVE SMOOTH",
"304 427 OFFCURVE",
"322 449 OFFCURVE",
"359 463 CURVE SMOOTH",
"502 512 LINE",
"489 499 OFFCURVE",
"483 485 OFFCURVE",
"483 451 CURVE SMOOTH",
"483 449 OFFCURVE",
"482 443 OFFCURVE",
"480 438 CURVE",
"443 301 OFFCURVE",
"362 73 OFFCURVE",
"279 -31 CURVE SMOOTH",
"199 -131 OFFCURVE",
"46 -149 OFFCURVE",
"46 0 CURVE SMOOTH",
"46 46 OFFCURVE",
"60 99 OFFCURVE",
"105 142 CURVE",
"108 125 OFFCURVE",
"130 138 OFFCURVE",
"134 146 CURVE SMOOTH",
"138 155 OFFCURVE",
"153 185 OFFCURVE",
"140 179 CURVE SMOOTH",
"130 174 OFFCURVE",
"100 158 OFFCURVE",
"78 133 CURVE SMOOTH",
"42 91 OFFCURVE",
"7 31 OFFCURVE",
"9 -46 CURVE SMOOTH",
"12 -150 OFFCURVE",
"113 -174 OFFCURVE",
"186 -141 CURVE SMOOTH",
"365 -59 OFFCURVE",
"448 278 OFFCURVE",
"518 459 CURVE SMOOTH",
"533 499 OFFCURVE",
"542 510 OFFCURVE",
"551 519 CURVE SMOOTH",
"560 527 OFFCURVE",
"577 576 OFFCURVE",
"559 564 CURVE"
);
}
);
width = 409;
}
);
note = J;
unicode = 004A;
},
{
glyphname = K;
lastChange = "2021-04-19 06:54:11 +0000";
layers = (
{
hints = (
{
horizontal = 1;
place = "{465, 12}";
type = Stem;
},
{
horizontal = 1;
place = "{498, 27}";
type = Stem;
}
);
layerId = "C2A7C206-1962-4FAA-88DB-FE8C23752EC9";
paths = (
{
closed = 1;
nodes = (
"410 538 OFFCURVE",
"403 531 OFFCURVE",
"393 523 CURVE",
"391 522 OFFCURVE",
"390 520 OFFCURVE",
"389 519 CURVE",
"359 506 OFFCURVE",
"302 495 OFFCURVE",
"278 491 CURVE SMOOTH",
"221 481 OFFCURVE",
"96 465 OFFCURVE",
"148 365 CURVE SMOOTH",
"155 350 OFFCURVE",
"170 321 OFFCURVE",
"174 305 CURVE SMOOTH",
"188 255 OFFCURVE",
"154 214 OFFCURVE",
"137 224 CURVE SMOOTH",
"132 227 OFFCURVE",
"129 222 OFFCURVE",
"134 219 CURVE SMOOTH",
"161 202 OFFCURVE",
"214 232 OFFCURVE",
"200 287 CURVE SMOOTH",
"192 315 OFFCURVE",
"164 350 OFFCURVE",
"165 383 CURVE SMOOTH",
"165 413 OFFCURVE",
"184 436 OFFCURVE",
"221 449 CURVE SMOOTH",
"252 461 OFFCURVE",
"311 481 OFFCURVE",
"365 499 CURVE",
"353 486 OFFCURVE",
"348 473 OFFCURVE",
"348 440 CURVE SMOOTH",
"348 435 LINE",
"331 379 LINE SMOOTH",
"311 321 OFFCURVE",
"260 139 OFFCURVE",
"195 60 CURVE SMOOTH",
"172 31 OFFCURVE",
"145 22 OFFCURVE",
"117 22 CURVE SMOOTH",
"50 22 OFFCURVE",
"24 100 OFFCURVE",
"19 154 CURVE",
"20 164 OFFCURVE",
"11 157 OFFCURVE",
"9 151 CURVE",
"7 110 OFFCURVE",
"24 21 OFFCURVE",
"71 -13 CURVE SMOOTH",
"159 -79 OFFCURVE",
"219 22 OFFCURVE",
"249 90 CURVE SMOOTH",
"275 153 LINE",
"309 191 OFFCURVE",
"335 214 OFFCURVE",
"351 227 CURVE",
"363 223 OFFCURVE",
"462 15 OFFCURVE",
"553 -34 CURVE SMOOTH",
"613 -66 OFFCURVE",
"660 -18 OFFCURVE",
"635 45 CURVE SMOOTH",
"628 65 OFFCURVE",
"617 90 OFFCURVE",
"605 108 CURVE SMOOTH",
"600 116 OFFCURVE",
"591 116 OFFCURVE",
"597 106 CURVE SMOOTH",
"611 80 OFFCURVE",
"628 44 OFFCURVE",
"628 16 CURVE SMOOTH",
"628 -17 OFFCURVE",
"600 -18 OFFCURVE",
"579 -6 CURVE SMOOTH",
"533 20 OFFCURVE",
"489 84 OFFCURVE",
"466 116 CURVE SMOOTH",
"441 150 OFFCURVE",
"391 223 OFFCURVE",
"377 250 CURVE",
"403 278 OFFCURVE",
"616 479 OFFCURVE",
"734 552 CURVE SMOOTH",
"774 577 OFFCURVE",
"836 600 OFFCURVE",
"866 546 CURVE SMOOTH",
"872 535 OFFCURVE",
"880 537 OFFCURVE",
"878 549 CURVE",
"823 647 OFFCURVE",
"690 571 OFFCURVE",
"625 520 CURVE SMOOTH",
"532 445 OFFCURVE",
"393 304 OFFCURVE",
"287 185 CURVE",
"309 246 OFFCURVE",
"330 309 OFFCURVE",
"342 343 CURVE SMOOTH",
"380 446 LINE SMOOTH",
"395 486 OFFCURVE",
"404 497 OFFCURVE",
"413 505 CURVE SMOOTH",
"422 514 OFFCURVE",
"439 562 OFFCURVE",
"421 550 CURVE"
);
}
);
width = 644;
}
);
note = K;
unicode = 004B;
},
{
glyphname = L;
lastChange = "2021-04-19 06:54:11 +0000";
layers = (
{
hints = (
{
horizontal = 1;
place = "{-20, 24}";
type = Stem;
},
{
horizontal = 1;
place = "{56, 51}";
type = Stem;
},
{
horizontal = 1;
place = "{645, -20}";
target = down;
type = TopGhost;
},
{
place = "{4, 38}";
type = Stem;
},
{
place = "{521, 21}";
type = Stem;
}
);
layerId = "C2A7C206-1962-4FAA-88DB-FE8C23752EC9";
paths = (
{
closed = 1;
nodes = (
"584 -23 OFFCURVE",
"552 -46 OFFCURVE",
"512 -47 CURVE SMOOTH",
"418 -47 OFFCURVE",
"307 8 OFFCURVE",
"217 57 CURVE",
"247 124 OFFCURVE",
"309 307 OFFCURVE",
"371 412 CURVE SMOOTH",
"401 461 OFFCURVE",
"435 494 OFFCURVE",
"469 494 CURVE SMOOTH",
"536 494 OFFCURVE",
"563 416 OFFCURVE",
"567 361 CURVE",
"566 352 OFFCURVE",
"575 359 OFFCURVE",
"577 365 CURVE",
"579 405 OFFCURVE",
"564 497 OFFCURVE",
"516 529 CURVE SMOOTH",
"441 578 OFFCURVE",
"367 493 OFFCURVE",
"337 425 CURVE SMOOTH",
"285 308 OFFCURVE",
"246 185 OFFCURVE",
"198 66 CURVE",
"134 102 OFFCURVE",
"82 131 OFFCURVE",
"56 131 CURVE SMOOTH",
"3 131 OFFCURVE",
"14 29 OFFCURVE",
"56 -28 CURVE SMOOTH",
"98 -85 OFFCURVE",
"149 -74 OFFCURVE",
"180 -20 CURVE SMOOTH",
"186 -10 OFFCURVE",
"193 6 OFFCURVE",
"202 24 CURVE",
"301 -27 OFFCURVE",
"409 -79 OFFCURVE",
"512 -65 CURVE SMOOTH",
"588 -54 OFFCURVE",
"639 7 OFFCURVE",
"570 59 CURVE SMOOTH",
"566 62 OFFCURVE",
"560 64 OFFCURVE",
"558 58 CURVE SMOOTH",
"557 53 OFFCURVE",
"573 41 OFFCURVE",
"577 22 CURVE SMOOTH"
);
},
{
closed = 1;
nodes = (
"177 14 OFFCURVE",
"170 -1 OFFCURVE",
"165 -10 CURVE SMOOTH",
"135 -67 OFFCURVE",
"82 -80 OFFCURVE",
"67 33 CURVE SMOOTH",
"61 75 OFFCURVE",
"67 91 OFFCURVE",
"117 67 CURVE SMOOTH",
"139 57 OFFCURVE",
"161 45 OFFCURVE",
"185 33 CURVE"
);
}
);
width = 602;
}
);
note = L;
unicode = 004C;
},
{
glyphname = M;
lastChange = "2021-04-19 06:54:11 +0000";
layers = (
{
hints = (
{
horizontal = 1;
place = "{-17, 58}";
type = Stem;
},
{
horizontal = 1;
place = "{562, -20}";
target = down;
type = TopGhost;
},
{
horizontal = 1;
place = "{624, -20}";
target = down;
type = TopGhost;
},
{
place = "{-821, 9}";
type = Stem;
},
{
place = "{-548, 15}";
type = Stem;
},
{
place = "{-73, 50}";
type = Stem;
}
);
layerId = "C2A7C206-1962-4FAA-88DB-FE8C23752EC9";
paths = (
{
closed = 1;
nodes = (
"399 478 OFFCURVE",
"391 470 OFFCURVE",
"382 462 CURVE SMOOTH",
"347 433 OFFCURVE",
"334 431 OFFCURVE",
"334 376 CURVE SMOOTH",
"334 371 LINE",
"333 367 OFFCURVE",
"328 349 OFFCURVE",
"316 313 CURVE SMOOTH",
"296 253 OFFCURVE",
"255 134 OFFCURVE",
"206 75 CURVE SMOOTH",
"182 46 OFFCURVE",
"154 36 OFFCURVE",
"125 36 CURVE SMOOTH",
"56 36 OFFCURVE",
"28 116 OFFCURVE",
"23 173 CURVE",
"25 183 OFFCURVE",
"15 176 OFFCURVE",
"13 169 CURVE",
"11 127 OFFCURVE",
"29 35 OFFCURVE",
"77 -1 CURVE SMOOTH",
"169 -69 OFFCURVE",
"236 47 OFFCURVE",
"262 106 CURVE SMOOTH",
"276 138 OFFCURVE",
"309 221 OFFCURVE",
"329 275 CURVE SMOOTH",
"349 333 LINE",
"375 252 OFFCURVE",
"425 179 OFFCURVE",
"448 108 CURVE",
"387 -9 OFFCURVE",
"455 -31 OFFCURVE",
"486 47 CURVE SMOOTH",
"494 67 OFFCURVE",
"497 87 OFFCURVE",
"486 117 CURVE",
"530 184 OFFCURVE",
"660 330 OFFCURVE",
"710 405 CURVE",
"707 391 OFFCURVE",
"701 372 OFFCURVE",
"691 343 CURVE SMOOTH",
"660 250 OFFCURVE",
"628 186 OFFCURVE",
"610 115 CURVE SMOOTH",
"587 20 OFFCURVE",
"606 -55 OFFCURVE",
"703 18 CURVE SMOOTH",
"750 53 OFFCURVE",
"788 105 OFFCURVE",
"823 152 CURVE SMOOTH",
"825 155 OFFCURVE",
"824 158 OFFCURVE",
"823 160 CURVE",
"823 161 OFFCURVE",
"822 162 OFFCURVE",
"822 161 CURVE",
"784 113 OFFCURVE",
"740 53 OFFCURVE",
"685 26 CURVE SMOOTH",
"615 -8 OFFCURVE",
"660 159 OFFCURVE",
"681 228 CURVE SMOOTH",
"709 319 OFFCURVE",
"743 411 OFFCURVE",
"782 497 CURVE SMOOTH",
"790 515 OFFCURVE",
"806 536 OFFCURVE",
"818 546 CURVE SMOOTH",
"821 548 OFFCURVE",
"822 561 OFFCURVE",
"809 555 CURVE SMOOTH",
"792 547 OFFCURVE",
"768 522 OFFCURVE",
"760 513 CURVE",
"743 510 OFFCURVE",
"734 493 OFFCURVE",
"729 479 CURVE SMOOTH",
"719 455 OFFCURVE",
"718 447 OFFCURVE",
"716 437 CURVE",
"678 383 OFFCURVE",
"543 232 OFFCURVE",
"469 140 CURVE",
"440 210 OFFCURVE",
"379 323 OFFCURVE",
"374 400 CURVE",
"385 427 OFFCURVE",
"393 436 OFFCURVE",
"402 444 CURVE SMOOTH",
"411 453 OFFCURVE",
"429 503 OFFCURVE",
"410 490 CURVE"
);
},
{
closed = 1;
nodes = (
"510 543 OFFCURVE",
"505 550 OFFCURVE",
"499 544 CURVE SMOOTH",
"474 517 OFFCURVE",
"384 506 OFFCURVE",
"298 495 CURVE SMOOTH",
"202 483 OFFCURVE",
"36 471 OFFCURVE",
"104 328 CURVE SMOOTH",
"113 309 OFFCURVE",
"127 291 OFFCURVE",
"134 271 CURVE SMOOTH",
"157 209 OFFCURVE",
"94 155 OFFCURVE",
"65 168 CURVE SMOOTH",
"58 172 OFFCURVE",
"53 165 OFFCURVE",
"61 161 CURVE SMOOTH",
"105 140 OFFCURVE",
"185 186 OFFCURVE",
"160 255 CURVE SMOOTH",
"148 290 OFFCURVE",
"112 325 OFFCURVE",
"113 366 CURVE SMOOTH",
"114 404 OFFCURVE",
"145 433 OFFCURVE",
"207 450 CURVE SMOOTH",
"303 476 OFFCURVE",
"466 496 OFFCURVE",
"504 537 CURVE SMOOTH"
);
}
);
width = 724;
}
);
note = M;
unicode = 004D;
},
{
glyphname = N;
lastChange = "2021-04-19 06:54:11 +0000";
layers = (
{
hints = (
{
horizontal = 1;
place = "{-37, 50}";
type = Stem;
},
{
horizontal = 1;
place = "{188, 10}";
type = Stem;
},
{
horizontal = 1;
place = "{478, 36}";
type = Stem;
},
{
horizontal = 1;
place = "{557, -20}";
target = down;
type = TopGhost;
},
{
place = "{54, 21}";
type = Stem;
},
{
place = "{91, 30}";
type = Stem;
}
);
layerId = "C2A7C206-1962-4FAA-88DB-FE8C23752EC9";
paths = (
{
closed = 1;
nodes = (
"76 466 OFFCURVE",
"114 485 OFFCURVE",
"157 476 CURVE SMOOTH",
"219 463 OFFCURVE",
"276 401 OFFCURVE",
"317 357 CURVE",
"325 346 OFFCURVE",
"329 329 OFFCURVE",
"324 312 CURVE SMOOTH",
"314 276 OFFCURVE",
"280 190 OFFCURVE",
"264 155 CURVE SMOOTH",
"243 113 OFFCURVE",
"217 67 OFFCURVE",
"183 39 CURVE SMOOTH",
"137 2 OFFCURVE",
"82 4 OFFCURVE",
"42 49 CURVE SMOOTH",
"21 73 OFFCURVE",
"16 97 OFFCURVE",
"9 129 CURVE",
"3 131 OFFCURVE",
"2 129 OFFCURVE",
"1 123 CURVE",
"3 93 OFFCURVE",
"11 49 OFFCURVE",
"31 16 CURVE SMOOTH",
"67 -43 OFFCURVE",
"135 -56 OFFCURVE",
"184 -7 CURVE SMOOTH",
"255 65 OFFCURVE",
"329 264 OFFCURVE",
"348 315 CURVE",
"348 315 OFFCURVE",
"352 322 OFFCURVE",
"357 318 CURVE SMOOTH",
"427 262 OFFCURVE",
"480 165 OFFCURVE",
"534 85 CURVE",
"525 48 OFFCURVE",
"527 18 OFFCURVE",
"529 -6 CURVE SMOOTH",
"532 -27 OFFCURVE",
"544 -44 OFFCURVE",
"556 -43 CURVE SMOOTH",
"577 -43 OFFCURVE",
"588 1 OFFCURVE",
"584 40 CURVE SMOOTH",
"580 70 OFFCURVE",
"571 98 OFFCURVE",
"562 117 CURVE",
"568 198 OFFCURVE",
"661 482 OFFCURVE",
"695 544 CURVE",
"691 559 OFFCURVE",
"670 560 OFFCURVE",
"664 550 CURVE SMOOTH",
"652 527 OFFCURVE",
"636 505 OFFCURVE",
"627 475 CURVE SMOOTH",
"625 470 OFFCURVE",
"634 461 OFFCURVE",
"632 456 CURVE SMOOTH",
"596 349 OFFCURVE",
"552 178 OFFCURVE",
"543 138 CURVE",
"537 145 OFFCURVE",
"485 253 OFFCURVE",
"368 378 CURVE",
"385 423 OFFCURVE",
"395 460 OFFCURVE",
"400 482 CURVE SMOOTH",
"405 507 OFFCURVE",
"383 514 OFFCURVE",
"375 488 CURVE SMOOTH",
"347 401 OFFCURVE",
"357 420 OFFCURVE",
"349 394 CURVE",
"303 437 OFFCURVE",
"221 516 OFFCURVE",
"155 514 CURVE SMOOTH",
"81 513 OFFCURVE",
"31 448 OFFCURVE",
"64 355 CURVE SMOOTH",
"71 336 OFFCURVE",
"81 319 OFFCURVE",
"87 300 CURVE SMOOTH",
"103 238 OFFCURVE",
"62 187 OFFCURVE",
"41 200 CURVE SMOOTH",
"35 204 OFFCURVE",
"31 198 OFFCURVE",
"37 194 CURVE SMOOTH",
"70 173 OFFCURVE",
"136 210 OFFCURVE",
"118 277 CURVE SMOOTH",
"108 312 OFFCURVE",
"74 355 OFFCURVE",
"75 394 CURVE SMOOTH"
);
}
);
width = 665;
}
);
note = N;
unicode = 004E;
},
{
glyphname = Eng;
lastChange = "2021-04-19 06:54:11 +0000";
layers = (
{
hints = (
{
horizontal = 1;
place = "{-37, 50}";
type = Stem;
},
{
horizontal = 1;
place = "{188, 10}";
type = Stem;
},
{
horizontal = 1;
place = "{478, 36}";
type = Stem;
},
{
horizontal = 1;
place = "{557, -20}";
target = down;
type = TopGhost;
},
{
place = "{54, 21}";
type = Stem;
},
{
place = "{91, 30}";
type = Stem;
},
{
horizontal = 1;
place = "{-189, 53}";
type = Stem;
},
{
horizontal = 1;
place = "{662, -20}";
target = down;
type = TopGhost;
},
{
place = "{597, 13}";
type = Stem;
},
{
place = "{791, 28}";
type = Stem;
}
);
layerId = "C2A7C206-1962-4FAA-88DB-FE8C23752EC9";
paths = (
{
closed = 1;
nodes = (
"652 527 OFFCURVE",
"636 505 OFFCURVE",
"627 475 CURVE SMOOTH",
"625 470 OFFCURVE",
"634 461 OFFCURVE",
"632 456 CURVE SMOOTH",
"596 349 OFFCURVE",
"552 178 OFFCURVE",
"543 138 CURVE",
"537 145 OFFCURVE",
"485 253 OFFCURVE",
"368 378 CURVE",
"385 423 OFFCURVE",
"395 460 OFFCURVE",
"400 482 CURVE SMOOTH",
"405 507 OFFCURVE",
"383 514 OFFCURVE",
"375 488 CURVE SMOOTH",
"347 401 OFFCURVE",
"357 420 OFFCURVE",
"349 394 CURVE",
"303 437 OFFCURVE",
"221 516 OFFCURVE",
"155 514 CURVE SMOOTH",
"81 513 OFFCURVE",
"31 448 OFFCURVE",
"64 355 CURVE SMOOTH",
"71 336 OFFCURVE",
"81 319 OFFCURVE",
"87 300 CURVE SMOOTH",
"103 238 OFFCURVE",
"62 187 OFFCURVE",
"41 200 CURVE SMOOTH",
"35 204 OFFCURVE",
"31 198 OFFCURVE",
"37 194 CURVE SMOOTH",
"70 173 OFFCURVE",
"136 210 OFFCURVE",
"118 277 CURVE SMOOTH",
"108 312 OFFCURVE",
"74 355 OFFCURVE",
"75 394 CURVE SMOOTH",
"76 466 OFFCURVE",
"114 485 OFFCURVE",
"157 476 CURVE SMOOTH",
"219 463 OFFCURVE",
"276 401 OFFCURVE",
"317 357 CURVE",
"325 346 OFFCURVE",
"329 329 OFFCURVE",
"324 312 CURVE SMOOTH",
"314 276 OFFCURVE",
"280 190 OFFCURVE",
"264 155 CURVE SMOOTH",
"243 113 OFFCURVE",
"217 67 OFFCURVE",
"183 39 CURVE SMOOTH",
"137 2 OFFCURVE",
"82 4 OFFCURVE",
"42 49 CURVE SMOOTH",
"21 73 OFFCURVE",
"16 97 OFFCURVE",
"9 129 CURVE",
"3 131 OFFCURVE",
"2 129 OFFCURVE",
"1 123 CURVE",
"3 93 OFFCURVE",
"11 49 OFFCURVE",
"31 16 CURVE SMOOTH",
"67 -43 OFFCURVE",
"135 -56 OFFCURVE",
"184 -7 CURVE SMOOTH",
"255 65 OFFCURVE",
"329 264 OFFCURVE",
"348 315 CURVE",
"348 315 OFFCURVE",
"352 322 OFFCURVE",
"357 318 CURVE SMOOTH",
"424 264 OFFCURVE",
"476 172 OFFCURVE",
"528 94 CURVE",
"505 -13 OFFCURVE",
"457 -172 OFFCURVE",
"393 -248 CURVE SMOOTH",
"327 -326 OFFCURVE",
"180 -340 OFFCURVE",
"162 -224 CURVE SMOOTH",
"156 -188 OFFCURVE",
"164 -147 OFFCURVE",
"202 -114 CURVE",
"207 -127 OFFCURVE",
"227 -117 OFFCURVE",
"230 -111 CURVE SMOOTH",
"233 -104 OFFCURVE",
"244 -80 OFFCURVE",
"232 -85 CURVE SMOOTH",
"223 -89 OFFCURVE",
"195 -101 OFFCURVE",
"177 -121 CURVE SMOOTH",
"147 -153 OFFCURVE",
"120 -200 OFFCURVE",
"132 -260 CURVE SMOOTH",
"147 -340 OFFCURVE",
"249 -359 OFFCURVE",
"316 -333 CURVE SMOOTH",
"480 -270 OFFCURVE",
"516 -23 OFFCURVE",
"562 117 CURVE",
"585 198 OFFCURVE",
"661 482 OFFCURVE",
"695 544 CURVE",
"691 559 OFFCURVE",
"670 560 OFFCURVE",
"664 550 CURVE SMOOTH"
);
}
);
width = 675;
}
);
unicode = 014A;
},
{
glyphname = Ntilde;
lastChange = "2021-04-19 06:54:11 +0000";
layers = (
{
hints = (
{
horizontal = 1;
place = "{-37, 50}";
type = Stem;
},
{
horizontal = 1;
place = "{188, 10}";
type = Stem;
},
{
horizontal = 1;
place = "{478, 36}";
type = Stem;
},
{
place = "{54, 21}";
type = Stem;
},
{
place = "{91, 30}";
type = Stem;
}
);
layerId = "C2A7C206-1962-4FAA-88DB-FE8C23752EC9";
paths = (
{
closed = 1;
nodes = (
"76 466 OFFCURVE",
"114 485 OFFCURVE",
"157 476 CURVE SMOOTH",
"219 463 OFFCURVE",
"276 401 OFFCURVE",
"317 357 CURVE",
"325 346 OFFCURVE",
"329 329 OFFCURVE",
"324 312 CURVE SMOOTH",
"314 276 OFFCURVE",
"280 190 OFFCURVE",
"264 155 CURVE SMOOTH",
"243 113 OFFCURVE",
"217 67 OFFCURVE",
"183 39 CURVE SMOOTH",
"137 2 OFFCURVE",
"82 4 OFFCURVE",
"42 49 CURVE SMOOTH",
"21 73 OFFCURVE",
"16 97 OFFCURVE",
"9 129 CURVE",
"3 131 OFFCURVE",
"2 129 OFFCURVE",
"1 123 CURVE",
"3 93 OFFCURVE",
"11 49 OFFCURVE",
"31 16 CURVE SMOOTH",
"67 -43 OFFCURVE",
"135 -56 OFFCURVE",
"184 -7 CURVE SMOOTH",
"255 65 OFFCURVE",
"329 264 OFFCURVE",
"348 315 CURVE",
"348 315 OFFCURVE",
"352 322 OFFCURVE",
"357 318 CURVE SMOOTH",
"427 262 OFFCURVE",
"480 165 OFFCURVE",
"534 85 CURVE",
"525 48 OFFCURVE",
"527 18 OFFCURVE",
"529 -6 CURVE SMOOTH",
"532 -27 OFFCURVE",
"544 -44 OFFCURVE",
"556 -43 CURVE SMOOTH",
"577 -43 OFFCURVE",
"588 1 OFFCURVE",
"584 40 CURVE SMOOTH",
"580 70 OFFCURVE",
"571 98 OFFCURVE",
"562 117 CURVE",
"568 198 OFFCURVE",
"661 482 OFFCURVE",
"695 544 CURVE",
"691 559 OFFCURVE",
"670 560 OFFCURVE",
"664 550 CURVE SMOOTH",
"652 527 OFFCURVE",
"636 505 OFFCURVE",
"627 475 CURVE SMOOTH",
"625 470 OFFCURVE",
"634 461 OFFCURVE",
"632 456 CURVE SMOOTH",
"596 349 OFFCURVE",
"552 178 OFFCURVE",
"543 138 CURVE",
"537 145 OFFCURVE",
"485 253 OFFCURVE",
"368 378 CURVE",
"385 423 OFFCURVE",
"395 460 OFFCURVE",
"400 482 CURVE SMOOTH",
"405 507 OFFCURVE",
"383 514 OFFCURVE",
"375 488 CURVE SMOOTH",
"347 401 OFFCURVE",
"357 420 OFFCURVE",
"349 394 CURVE",
"303 437 OFFCURVE",
"221 516 OFFCURVE",
"155 514 CURVE SMOOTH",
"81 513 OFFCURVE",
"31 448 OFFCURVE",
"64 355 CURVE SMOOTH",
"71 336 OFFCURVE",
"81 319 OFFCURVE",
"87 300 CURVE SMOOTH",
"103 238 OFFCURVE",
"62 187 OFFCURVE",
"41 200 CURVE SMOOTH",
"35 204 OFFCURVE",
"31 198 OFFCURVE",
"37 194 CURVE SMOOTH",
"70 173 OFFCURVE",
"136 210 OFFCURVE",
"118 277 CURVE SMOOTH",
"108 312 OFFCURVE",
"74 355 OFFCURVE",
"75 394 CURVE SMOOTH"
);
},
{
closed = 1;
nodes = (
"640 607 OFFCURVE",
"637 608 OFFCURVE",
"632 608 CURVE",
"619 596 OFFCURVE",
"606 590 OFFCURVE",
"593 590 CURVE SMOOTH",
"585 590 OFFCURVE",
"572 593 OFFCURVE",
"557 599 CURVE SMOOTH",
"541 605 OFFCURVE",
"528 608 OFFCURVE",
"518 608 CURVE SMOOTH",
"507 608 OFFCURVE",
"496 605 OFFCURVE",
"485 599 CURVE SMOOTH",
"458 586 OFFCURVE",
"441 574 OFFCURVE",
"437 562 CURVE",
"438 559 LINE",
"450 559 OFFCURVE",
"469 581 OFFCURVE",
"491 581 CURVE SMOOTH",
"500 581 OFFCURVE",
"513 577 OFFCURVE",
"529 570 CURVE SMOOTH",
"544 562 OFFCURVE",
"558 558 OFFCURVE",
"568 558 CURVE SMOOTH",
"577 558 OFFCURVE",
"586 561 OFFCURVE",
"594 565 CURVE SMOOTH",
"620 580 OFFCURVE",
"636 593 OFFCURVE",
"639 602 CURVE SMOOTH"
);
}
);
width = 665;
}
);
note = Ntilde;
unicode = 00D1;
},
{
glyphname = O;
lastChange = "2021-04-19 06:54:11 +0000";
layers = (
{
hints = (
{
horizontal = 1;
place = "{-18, 37}";
type = Stem;
},
{
horizontal = 1;
place = "{466, 54}";
type = Stem;
},
{
place = "{100, 27}";
type = Stem;
},
{
place = "{497, 27}";
type = Stem;
}
);
layerId = "C2A7C206-1962-4FAA-88DB-FE8C23752EC9";
paths = (
{
closed = 1;
nodes = (
"564 320 OFFCURVE",
"546 478 OFFCURVE",
"399 499 CURVE",
"432 520 OFFCURVE",
"480 544 OFFCURVE",
"480 507 CURVE SMOOTH",
"480 499 OFFCURVE",
"490 501 OFFCURVE",
"491 509 CURVE SMOOTH",
"497 577 OFFCURVE",
"369 521 OFFCURVE",
"332 497 CURVE",
"216 487 OFFCURVE",
"31 426 OFFCURVE",
"51 289 CURVE SMOOTH",
"54 261 OFFCURVE",
"77 235 OFFCURVE",
"106 213 CURVE",
"62 90 OFFCURVE",
"81 -18 OFFCURVE",
"216 -18 CURVE SMOOTH",
"347 -18 OFFCURVE",
"446 100 OFFCURVE",
"502 205 CURVE SMOOTH"
);
},
{
closed = 1;
nodes = (
"438 136 OFFCURVE",
"324 -3 OFFCURVE",
"213 -3 CURVE SMOOTH",
"139 -3 OFFCURVE",
"110 75 OFFCURVE",
"146 186 CURVE",
"179 166 OFFCURVE",
"212 151 OFFCURVE",
"231 143 CURVE SMOOTH",
"236 141 OFFCURVE",
"239 151 OFFCURVE",
"235 154 CURVE SMOOTH",
"214 166 OFFCURVE",
"182 180 OFFCURVE",
"152 201 CURVE",
"159 222 OFFCURVE",
"169 243 OFFCURVE",
"181 266 CURVE SMOOTH",
"240 376 OFFCURVE",
"314 442 OFFCURVE",
"359 470 CURVE",
"491 509 OFFCURVE",
"551 380 OFFCURVE",
"480 226 CURVE SMOOTH"
);
},
{
closed = 1;
nodes = (
"114 232 LINE",
"107 240 LINE SMOOTH",
"-6 361 OFFCURVE",
"166 432 OFFCURVE",
"276 458 CURVE",
"214 407 OFFCURVE",
"159 335 OFFCURVE",
"122 251 CURVE SMOOTH"
);
}
);
width = 469;
}
);
note = O;
unicode = 004F;
},
{
glyphname = Oacute;
lastChange = "2021-04-19 06:54:11 +0000";
layers = (
{
hints = (
{
horizontal = 1;
place = "{-18, 37}";
type = Stem;
},
{
horizontal = 1;
place = "{466, 54}";
type = Stem;
},
{
place = "{100, 27}";
type = Stem;
},
{
place = "{497, 27}";
type = Stem;
}
);
layerId = "C2A7C206-1962-4FAA-88DB-FE8C23752EC9";
paths = (
{
closed = 1;
nodes = (
"564 320 OFFCURVE",
"546 478 OFFCURVE",
"399 499 CURVE",
"432 520 OFFCURVE",
"480 544 OFFCURVE",
"480 507 CURVE SMOOTH",
"480 499 OFFCURVE",
"490 501 OFFCURVE",
"491 509 CURVE SMOOTH",
"497 577 OFFCURVE",
"369 521 OFFCURVE",
"332 497 CURVE",
"216 487 OFFCURVE",
"31 426 OFFCURVE",
"51 289 CURVE SMOOTH",
"54 261 OFFCURVE",
"77 235 OFFCURVE",
"106 213 CURVE",
"62 90 OFFCURVE",
"81 -18 OFFCURVE",
"216 -18 CURVE SMOOTH",
"347 -18 OFFCURVE",
"446 100 OFFCURVE",
"502 205 CURVE SMOOTH"
);
},
{
closed = 1;
nodes = (
"438 136 OFFCURVE",
"324 -3 OFFCURVE",
"213 -3 CURVE SMOOTH",
"139 -3 OFFCURVE",
"110 75 OFFCURVE",
"146 186 CURVE",
"179 166 OFFCURVE",
"212 151 OFFCURVE",
"231 143 CURVE SMOOTH",
"236 141 OFFCURVE",
"239 151 OFFCURVE",
"235 154 CURVE SMOOTH",
"214 166 OFFCURVE",
"182 180 OFFCURVE",
"152 201 CURVE",
"159 222 OFFCURVE",
"169 243 OFFCURVE",
"181 266 CURVE SMOOTH",
"240 376 OFFCURVE",
"314 442 OFFCURVE",
"359 470 CURVE",
"491 509 OFFCURVE",
"551 380 OFFCURVE",
"480 226 CURVE SMOOTH"
);
},
{
closed = 1;
nodes = (
"114 232 LINE",
"107 240 LINE SMOOTH",
"-6 361 OFFCURVE",
"166 432 OFFCURVE",
"276 458 CURVE",
"214 407 OFFCURVE",
"159 335 OFFCURVE",
"122 251 CURVE SMOOTH"
);
},
{
closed = 1;
nodes = (
"551 665 OFFCURVE",
"547 678 OFFCURVE",
"536 677 CURVE SMOOTH",
"532 677 OFFCURVE",
"527 674 OFFCURVE",
"522 671 CURVE SMOOTH",
"503 659 OFFCURVE",
"471 636 OFFCURVE",
"428 603 CURVE SMOOTH",
"377 565 OFFCURVE",
"387 568 OFFCURVE",
"385 561 CURVE SMOOTH",
"384 558 OFFCURVE",
"387 557 OFFCURVE",
"389 557 CURVE SMOOTH",
"399 557 OFFCURVE",
"404 560 OFFCURVE",
"487 613 CURVE SMOOTH",
"507 626 OFFCURVE",
"523 635 OFFCURVE",
"533 641 CURVE SMOOTH",
"538 645 OFFCURVE",
"542 649 OFFCURVE",
"545 654 CURVE SMOOTH"
);
}
);
width = 469;
}
);
note = Oacute;
unicode = 00D3;
},
{
glyphname = Ocircumflex;
lastChange = "2021-04-19 06:54:11 +0000";
layers = (
{
hints = (
{
horizontal = 1;
place = "{-18, 37}";
type = Stem;
},
{
horizontal = 1;
place = "{466, 54}";
type = Stem;
},
{
place = "{100, 27}";
type = Stem;
},
{
place = "{497, 27}";
type = Stem;
}
);
layerId = "C2A7C206-1962-4FAA-88DB-FE8C23752EC9";
paths = (
{
closed = 1;
nodes = (
"564 320 OFFCURVE",
"546 478 OFFCURVE",
"399 499 CURVE",
"432 520 OFFCURVE",
"480 544 OFFCURVE",
"480 507 CURVE SMOOTH",
"480 499 OFFCURVE",
"490 501 OFFCURVE",
"491 509 CURVE SMOOTH",
"497 577 OFFCURVE",
"369 521 OFFCURVE",
"332 497 CURVE",
"216 487 OFFCURVE",
"31 426 OFFCURVE",
"51 289 CURVE SMOOTH",
"54 261 OFFCURVE",
"77 235 OFFCURVE",
"106 213 CURVE",
"62 90 OFFCURVE",
"81 -18 OFFCURVE",
"216 -18 CURVE SMOOTH",
"347 -18 OFFCURVE",
"446 100 OFFCURVE",
"502 205 CURVE SMOOTH"
);
},
{
closed = 1;
nodes = (
"438 136 OFFCURVE",
"324 -3 OFFCURVE",
"213 -3 CURVE SMOOTH",
"139 -3 OFFCURVE",
"110 75 OFFCURVE",
"146 186 CURVE",
"179 166 OFFCURVE",
"212 151 OFFCURVE",
"231 143 CURVE SMOOTH",
"236 141 OFFCURVE",
"239 151 OFFCURVE",
"235 154 CURVE SMOOTH",
"214 166 OFFCURVE",
"182 180 OFFCURVE",
"152 201 CURVE",
"159 222 OFFCURVE",
"169 243 OFFCURVE",
"181 266 CURVE SMOOTH",
"240 376 OFFCURVE",
"314 442 OFFCURVE",
"359 470 CURVE",
"491 509 OFFCURVE",
"551 380 OFFCURVE",
"480 226 CURVE SMOOTH"
);
},
{
closed = 1;
nodes = (
"114 232 LINE",
"107 240 LINE SMOOTH",
"-6 361 OFFCURVE",
"166 432 OFFCURVE",
"276 458 CURVE",
"214 407 OFFCURVE",
"159 335 OFFCURVE",
"122 251 CURVE SMOOTH"
);
},
{
closed = 1;
nodes = (
"547 569 OFFCURVE",
"545 595 OFFCURVE",
"542 644 CURVE SMOOTH",
"542 645 OFFCURVE",
"539 647 OFFCURVE",
"533 647 CURVE SMOOTH",
"528 647 OFFCURVE",
"521 646 OFFCURVE",
"512 645 CURVE",
"429 595 OFFCURVE",
"386 570 OFFCURVE",
"384 568 CURVE",
"384 565 OFFCURVE",
"387 564 OFFCURVE",
"392 564 CURVE SMOOTH",
"396 564 OFFCURVE",
"436 582 OFFCURVE",
"510 616 CURVE",
"527 568 LINE",
"529 565 OFFCURVE",
"533 563 OFFCURVE",
"538 563 CURVE SMOOTH",
"543 564 OFFCURVE",
"546 566 OFFCURVE",
"546 567 CURVE"
);
}
);
width = 469;
}
);
note = Ocircumflex;
unicode = 00D4;
},
{
glyphname = Odieresis;
lastChange = "2021-04-19 06:54:11 +0000";
layers = (
{
hints = (
{
horizontal = 1;
place = "{-18, 15}";
type = Stem;
},
{
horizontal = 1;
place = "{526, 15}";
type = Stem;
},
{
place = "{85, 45}";
type = Stem;
},
{
place = "{480, 11}";
type = Stem;
},
{
place = "{510, 25}";
type = Stem;
}
);
layerId = "C2A7C206-1962-4FAA-88DB-FE8C23752EC9";
paths = (
{
closed = 1;
nodes = (
"564 320 OFFCURVE",
"546 478 OFFCURVE",
"399 499 CURVE",
"432 520 OFFCURVE",
"480 544 OFFCURVE",
"480 507 CURVE SMOOTH",
"480 499 OFFCURVE",
"490 501 OFFCURVE",
"491 509 CURVE SMOOTH",
"497 577 OFFCURVE",
"369 521 OFFCURVE",
"332 497 CURVE",
"216 487 OFFCURVE",
"31 426 OFFCURVE",
"51 289 CURVE SMOOTH",
"54 261 OFFCURVE",
"77 235 OFFCURVE",
"106 213 CURVE",
"62 90 OFFCURVE",
"81 -18 OFFCURVE",
"216 -18 CURVE SMOOTH",
"347 -18 OFFCURVE",
"446 100 OFFCURVE",
"502 205 CURVE SMOOTH"
);
},
{
closed = 1;
nodes = (
"438 136 OFFCURVE",
"324 -3 OFFCURVE",
"213 -3 CURVE SMOOTH",
"139 -3 OFFCURVE",
"110 75 OFFCURVE",
"146 186 CURVE",
"179 166 OFFCURVE",
"212 151 OFFCURVE",
"231 143 CURVE SMOOTH",
"236 141 OFFCURVE",
"239 151 OFFCURVE",
"235 154 CURVE SMOOTH",
"214 166 OFFCURVE",
"182 180 OFFCURVE",
"152 201 CURVE",
"159 222 OFFCURVE",
"169 243 OFFCURVE",
"181 266 CURVE SMOOTH",
"240 376 OFFCURVE",
"314 442 OFFCURVE",
"359 470 CURVE",
"491 509 OFFCURVE",
"551 380 OFFCURVE",
"480 226 CURVE SMOOTH"
);
},
{
closed = 1;
nodes = (
"114 232 LINE",
"107 240 LINE SMOOTH",
"-6 361 OFFCURVE",
"166 432 OFFCURVE",
"276 458 CURVE",
"214 407 OFFCURVE",
"159 335 OFFCURVE",
"122 251 CURVE SMOOTH"
);
},
{
closed = 1;
nodes = (
"459 633 OFFCURVE",
"458 635 OFFCURVE",
"454 635 CURVE SMOOTH",
"444 635 OFFCURVE",
"433 631 OFFCURVE",
"422 622 CURVE SMOOTH",
"411 613 OFFCURVE",
"404 604 OFFCURVE",
"401 594 CURVE SMOOTH",
"397 581 OFFCURVE",
"398 571 OFFCURVE",
"408 571 CURVE SMOOTH",
"423 571 OFFCURVE",
"434 577 OFFCURVE",
"438 589 CURVE SMOOTH",
"439 593 OFFCURVE",
"442 600 OFFCURVE",
"448 609 CURVE SMOOTH",
"454 619 OFFCURVE",
"457 626 OFFCURVE",
"459 631 CURVE"
);
},
{
closed = 1;
nodes = (
"557 633 OFFCURVE",
"556 635 OFFCURVE",
"551 635 CURVE SMOOTH",
"541 635 OFFCURVE",
"531 631 OFFCURVE",
"520 622 CURVE SMOOTH",
"509 613 OFFCURVE",
"501 604 OFFCURVE",
"499 594 CURVE SMOOTH",
"495 581 OFFCURVE",
"496 571 OFFCURVE",
"505 571 CURVE SMOOTH",
"521 571 OFFCURVE",
"532 577 OFFCURVE",
"535 589 CURVE SMOOTH",
"536 593 OFFCURVE",
"540 600 OFFCURVE",
"545 609 CURVE SMOOTH",
"551 619 OFFCURVE",
"555 626 OFFCURVE",
"556 631 CURVE"
);
}
);
width = 469;
}
);
note = Odieresis;
unicode = 00D6;
},
{
glyphname = Ograve;
lastChange = "2021-04-19 06:54:11 +0000";
layers = (
{
hints = (
{
horizontal = 1;
place = "{-18, 37}";
type = Stem;
},
{
horizontal = 1;
place = "{466, 54}";
type = Stem;
},
{
place = "{100, 27}";
type = Stem;
},
{
place = "{497, 27}";
type = Stem;
}
);
layerId = "C2A7C206-1962-4FAA-88DB-FE8C23752EC9";
paths = (
{
closed = 1;
nodes = (
"564 320 OFFCURVE",
"546 478 OFFCURVE",
"399 499 CURVE",
"432 520 OFFCURVE",
"480 544 OFFCURVE",
"480 507 CURVE SMOOTH",
"480 499 OFFCURVE",
"490 501 OFFCURVE",
"491 509 CURVE SMOOTH",
"497 577 OFFCURVE",
"369 521 OFFCURVE",
"332 497 CURVE",
"216 487 OFFCURVE",
"31 426 OFFCURVE",
"51 289 CURVE SMOOTH",
"54 261 OFFCURVE",
"77 235 OFFCURVE",
"106 213 CURVE",
"62 90 OFFCURVE",
"81 -18 OFFCURVE",
"216 -18 CURVE SMOOTH",
"347 -18 OFFCURVE",
"446 100 OFFCURVE",
"502 205 CURVE SMOOTH"
);
},
{
closed = 1;
nodes = (
"438 136 OFFCURVE",
"324 -3 OFFCURVE",
"213 -3 CURVE SMOOTH",
"139 -3 OFFCURVE",
"110 75 OFFCURVE",
"146 186 CURVE",
"179 166 OFFCURVE",
"212 151 OFFCURVE",
"231 143 CURVE SMOOTH",
"236 141 OFFCURVE",
"239 151 OFFCURVE",
"235 154 CURVE SMOOTH",
"214 166 OFFCURVE",
"182 180 OFFCURVE",
"152 201 CURVE",
"159 222 OFFCURVE",
"169 243 OFFCURVE",
"181 266 CURVE SMOOTH",
"240 376 OFFCURVE",
"314 442 OFFCURVE",
"359 470 CURVE",
"491 509 OFFCURVE",
"551 380 OFFCURVE",
"480 226 CURVE SMOOTH"
);
},
{
closed = 1;
nodes = (
"114 232 LINE",
"107 240 LINE SMOOTH",
"-6 361 OFFCURVE",
"166 432 OFFCURVE",
"276 458 CURVE",
"214 407 OFFCURVE",
"159 335 OFFCURVE",
"122 251 CURVE SMOOTH"
);
},
{
closed = 1;
nodes = (
"514 576 OFFCURVE",
"499 592 OFFCURVE",
"473 615 CURVE SMOOTH",
"446 638 OFFCURVE",
"430 651 OFFCURVE",
"427 651 CURVE SMOOTH",
"415 651 OFFCURVE",
"407 644 OFFCURVE",
"403 631 CURVE SMOOTH",
"402 627 OFFCURVE",
"403 623 OFFCURVE",
"407 620 CURVE SMOOTH",
"415 613 OFFCURVE",
"432 604 OFFCURVE",
"455 590 CURVE SMOOTH",
"482 574 OFFCURVE",
"499 566 OFFCURVE",
"506 566 CURVE",
"510 567 OFFCURVE",
"511 569 OFFCURVE",
"512 570 CURVE"
);
}
);
width = 469;
}
);
note = Ograve;
unicode = 00D2;
},
{
glyphname = Oslash;
lastChange = "2021-04-19 06:54:11 +0000";
layers = (
{
hints = (
{
horizontal = 1;
place = "{-18, 37}";
type = Stem;
},
{
horizontal = 1;
place = "{466, 54}";
type = Stem;
},
{
place = "{100, 27}";
type = Stem;
},
{
place = "{497, 27}";
type = Stem;
}
);
layerId = "C2A7C206-1962-4FAA-88DB-FE8C23752EC9";
paths = (
{
closed = 1;
nodes = (
"658 583 OFFCURVE",
"652 589 OFFCURVE",
"638 589 CURVE SMOOTH",
"626 589 OFFCURVE",
"575 546 OFFCURVE",
"485 461 CURVE",
"464 480 OFFCURVE",
"436 494 OFFCURVE",
"399 499 CURVE",
"432 519 OFFCURVE",
"480 544 OFFCURVE",
"480 507 CURVE SMOOTH",
"480 499 OFFCURVE",
"490 501 OFFCURVE",
"491 509 CURVE SMOOTH",
"498 577 OFFCURVE",
"369 524 OFFCURVE",
"333 497 CURVE",
"217 489 OFFCURVE",
"31 426 OFFCURVE",
"51 289 CURVE SMOOTH",
"54 262 OFFCURVE",
"78 236 OFFCURVE",
"107 213 CURVE",
"87 157 OFFCURVE",
"80 105 OFFCURVE",
"90 65 CURVE",
"67 38 OFFCURVE",
"50 17 OFFCURVE",
"40 2 CURVE SMOOTH",
"19 -29 OFFCURVE",
"5 -57 OFFCURVE",
"-2 -80 CURVE SMOOTH",
"-7 -96 OFFCURVE",
"-5 -106 OFFCURVE",
"7 -106 CURVE SMOOTH",
"14 -106 OFFCURVE",
"30 -99 OFFCURVE",
"33 -91 CURVE",
"33 -90 OFFCURVE",
"33 -88 OFFCURVE",
"32 -87 CURVE SMOOTH",
"27 -82 OFFCURVE",
"26 -76 OFFCURVE",
"28 -67 CURVE",
"31 -60 OFFCURVE",
"34 -51 OFFCURVE",
"41 -41 CURVE SMOOTH",
"54 -20 OFFCURVE",
"74 4 OFFCURVE",
"99 32 CURVE SMOOTH",
"102 35 LINE",
"121 2 OFFCURVE",
"158 -18 OFFCURVE",
"216 -18 CURVE SMOOTH",
"347 -18 OFFCURVE",
"446 100 OFFCURVE",
"502 205 CURVE SMOOTH",
"542 279 OFFCURVE",
"548 372 OFFCURVE",
"508 433 CURVE",
"549 470 LINE SMOOTH",
"590 507 OFFCURVE",
"621 535 OFFCURVE",
"642 553 CURVE SMOOTH",
"649 560 OFFCURVE",
"653 565 OFFCURVE",
"655 571 CURVE SMOOTH"
);
},
{
closed = 1;
nodes = (
"518 375 OFFCURVE",
"516 304 OFFCURVE",
"480 226 CURVE SMOOTH",
"438 136 OFFCURVE",
"324 -3 OFFCURVE",
"213 -3 CURVE SMOOTH",
"169 -3 OFFCURVE",
"141 24 OFFCURVE",
"133 69 CURVE",
"164 100 LINE",
"213 151 LINE",
"231 143 LINE SMOOTH",
"236 141 OFFCURVE",
"239 151 OFFCURVE",
"235 154 CURVE SMOOTH",
"231 156 OFFCURVE",
"227 158 OFFCURVE",
"223 161 CURVE",
"301 240 OFFCURVE",
"392 327 OFFCURVE",
"495 421 CURVE"
);
},
{
closed = 1;
nodes = (
"195 176 LINE",
"181 184 OFFCURVE",
"166 192 OFFCURVE",
"152 202 CURVE",
"159 222 OFFCURVE",
"169 244 OFFCURVE",
"181 266 CURVE SMOOTH",
"240 376 OFFCURVE",
"314 442 OFFCURVE",
"359 470 CURVE",
"409 484 OFFCURVE",
"448 475 OFFCURVE",
"474 450 CURVE",
"313 295 LINE"
);
},
{
closed = 1;
nodes = (
"215 407 OFFCURVE",
"160 336 OFFCURVE",
"122 251 CURVE SMOOTH",
"114 232 LINE",
"107 240 LINE SMOOTH",
"-6 361 OFFCURVE",
"167 432 OFFCURVE",
"277 458 CURVE"
);
},
{
closed = 1;
nodes = (
"131 109 LINE",
"132 132 OFFCURVE",
"137 158 OFFCURVE",
"146 186 CURVE",
"184 165 LINE",
"163 143 LINE"
);
}
);
width = 469;
}
);
note = Oslash;
unicode = 00D8;
},
{
glyphname = Otilde;
lastChange = "2021-04-19 06:54:11 +0000";
layers = (
{
hints = (
{
horizontal = 1;
place = "{-18, 37}";
type = Stem;
},
{
horizontal = 1;
place = "{466, 54}";
type = Stem;
},
{
place = "{100, 27}";
type = Stem;
},
{
place = "{497, 27}";
type = Stem;
}
);
layerId = "C2A7C206-1962-4FAA-88DB-FE8C23752EC9";
paths = (
{
closed = 1;
nodes = (
"564 320 OFFCURVE",
"546 478 OFFCURVE",
"399 499 CURVE",
"432 520 OFFCURVE",
"480 544 OFFCURVE",
"480 507 CURVE SMOOTH",
"480 499 OFFCURVE",
"490 501 OFFCURVE",
"491 509 CURVE SMOOTH",
"497 577 OFFCURVE",
"369 521 OFFCURVE",
"332 497 CURVE",
"216 487 OFFCURVE",
"31 426 OFFCURVE",
"51 289 CURVE SMOOTH",
"54 261 OFFCURVE",
"77 235 OFFCURVE",
"106 213 CURVE",
"62 90 OFFCURVE",
"81 -18 OFFCURVE",
"216 -18 CURVE SMOOTH",
"347 -18 OFFCURVE",
"446 100 OFFCURVE",
"502 205 CURVE SMOOTH"
);
},
{
closed = 1;
nodes = (
"438 136 OFFCURVE",
"324 -3 OFFCURVE",
"213 -3 CURVE SMOOTH",
"139 -3 OFFCURVE",
"110 75 OFFCURVE",
"146 186 CURVE",
"179 166 OFFCURVE",
"212 151 OFFCURVE",
"231 143 CURVE SMOOTH",
"236 141 OFFCURVE",
"239 151 OFFCURVE",
"235 154 CURVE SMOOTH",
"214 166 OFFCURVE",
"182 180 OFFCURVE",
"152 201 CURVE",
"159 222 OFFCURVE",
"169 243 OFFCURVE",
"181 266 CURVE SMOOTH",
"240 376 OFFCURVE",
"314 442 OFFCURVE",
"359 470 CURVE",
"491 509 OFFCURVE",
"551 380 OFFCURVE",
"480 226 CURVE SMOOTH"
);
},
{
closed = 1;
nodes = (
"114 232 LINE",
"107 240 LINE SMOOTH",
"-6 361 OFFCURVE",
"166 432 OFFCURVE",
"276 458 CURVE",
"214 407 OFFCURVE",
"159 335 OFFCURVE",
"122 251 CURVE SMOOTH"
);
},
{
closed = 1;
nodes = (
"533 617 OFFCURVE",
"530 619 OFFCURVE",
"525 618 CURVE",
"512 606 OFFCURVE",
"499 601 OFFCURVE",
"486 601 CURVE SMOOTH",
"477 601 OFFCURVE",
"465 603 OFFCURVE",
"449 609 CURVE SMOOTH",
"434 615 OFFCURVE",
"421 618 OFFCURVE",
"411 618 CURVE SMOOTH",
"400 618 OFFCURVE",
"389 615 OFFCURVE",
"377 609 CURVE SMOOTH",
"350 596 OFFCURVE",
"333 584 OFFCURVE",
"330 573 CURVE",
"330 569 LINE",
"343 569 OFFCURVE",
"362 591 OFFCURVE",
"384 591 CURVE SMOOTH",
"393 591 OFFCURVE",
"405 588 OFFCURVE",
"421 580 CURVE SMOOTH",
"437 572 OFFCURVE",
"450 569 OFFCURVE",
"461 569 CURVE SMOOTH",
"469 569 OFFCURVE",
"478 571 OFFCURVE",
"487 576 CURVE SMOOTH",
"513 590 OFFCURVE",
"529 602 OFFCURVE",
"532 613 CURVE SMOOTH"
);
}
);
width = 469;
}
);
note = Otilde;
unicode = 00D5;
},
{
glyphname = OE;
lastChange = "2021-04-19 06:54:11 +0000";
layers = (
{
hints = (
{
horizontal = 1;
place = "{-18, 37}";
type = Stem;
},
{
horizontal = 1;
place = "{466, 54}";
type = Stem;
},
{
place = "{100, 27}";
type = Stem;
},
{
place = "{497, 27}";
type = Stem;
}
);
layerId = "C2A7C206-1962-4FAA-88DB-FE8C23752EC9";
paths = (
{
closed = 1;
nodes = (
"95 179 OFFCURVE",
"86 142 OFFCURVE",
"86 105 CURVE SMOOTH",
"86 22 OFFCURVE",
"135 -18 OFFCURVE",
"216 -18 CURVE SMOOTH",
"302 -18 OFFCURVE",
"373 33 OFFCURVE",
"427 95 CURVE",
"427 90 OFFCURVE",
"426 84 OFFCURVE",
"426 79 CURVE SMOOTH",
"426 2 OFFCURVE",
"505 -25 OFFCURVE",
"569 -25 CURVE SMOOTH",
"647 -25 OFFCURVE",
"736 11 OFFCURVE",
"788 70 CURVE SMOOTH",
"791 74 OFFCURVE",
"797 81 OFFCURVE",
"797 88 CURVE SMOOTH",
"797 89 OFFCURVE",
"797 90 OFFCURVE",
"795 90 CURVE SMOOTH",
"793 90 OFFCURVE",
"790 87 OFFCURVE",
"789 86 CURVE SMOOTH",
"747 36 OFFCURVE",
"685 12 OFFCURVE",
"621 12 CURVE SMOOTH",
"567 12 OFFCURVE",
"474 31 OFFCURVE",
"474 99 CURVE SMOOTH",
"474 123 OFFCURVE",
"490 180 OFFCURVE",
"500 201 CURVE SMOOTH",
"507 218 OFFCURVE",
"516 233 OFFCURVE",
"522 251 CURVE",
"576 264 OFFCURVE",
"642 279 OFFCURVE",
"697 279 CURVE SMOOTH",
"707 279 OFFCURVE",
"737 279 OFFCURVE",
"737 263 CURVE SMOOTH",
"737 257 OFFCURVE",
"733 253 OFFCURVE",
"733 250 CURVE SMOOTH",
"733 248 OFFCURVE",
"734 247 OFFCURVE",
"736 247 CURVE SMOOTH",
"744 247 OFFCURVE",
"747 260 OFFCURVE",
"747 266 CURVE SMOOTH",
"747 298 OFFCURVE",
"706 299 OFFCURVE",
"683 299 CURVE SMOOTH",
"633 299 OFFCURVE",
"581 293 OFFCURVE",
"532 285 CURVE",
"548 323 OFFCURVE",
"592 430 OFFCURVE",
"616 460 CURVE SMOOTH",
"621 466 OFFCURVE",
"623 469 OFFCURVE",
"630 470 CURVE SMOOTH",
"641 471 OFFCURVE",
"652 472 OFFCURVE",
"663 472 CURVE SMOOTH",
"683 472 OFFCURVE",
"702 470 OFFCURVE",
"722 470 CURVE SMOOTH",
"728 470 OFFCURVE",
"757 472 OFFCURVE",
"757 462 CURVE SMOOTH",
"757 450 OFFCURVE",
"718 413 OFFCURVE",
"718 403 CURVE SMOOTH",
"718 402 OFFCURVE",
"719 401 OFFCURVE",
"720 401 CURVE SMOOTH",
"725 401 OFFCURVE",
"733 406 OFFCURVE",
"736 409 CURVE SMOOTH",
"751 427 LINE SMOOTH",
"770 446 OFFCURVE",
"792 461 OFFCURVE",
"814 476 CURVE SMOOTH",
"818 478 OFFCURVE",
"833 487 OFFCURVE",
"834 491 CURVE SMOOTH",
"834 492 OFFCURVE",
"835 494 OFFCURVE",
"835 494 CURVE",
"835 497 OFFCURVE",
"834 499 OFFCURVE",
"833 502 CURVE",
"827 504 LINE",
"636 505 LINE",
"638 511 OFFCURVE",
"639 518 OFFCURVE",
"639 524 CURVE SMOOTH",
"639 534 OFFCURVE",
"634 546 OFFCURVE",
"623 546 CURVE SMOOTH",
"600 546 OFFCURVE",
"614 507 OFFCURVE",
"588 507 CURVE SMOOTH",
"578 507 OFFCURVE",
"569 508 OFFCURVE",
"559 508 CURVE SMOOTH",
"555 508 OFFCURVE",
"535 508 OFFCURVE",
"535 501 CURVE SMOOTH",
"535 487 OFFCURVE",
"577 475 OFFCURVE",
"588 475 CURVE",
"573 435 OFFCURVE",
"553 396 OFFCURVE",
"534 357 CURVE",
"526 435 OFFCURVE",
"478 488 OFFCURVE",
"399 499 CURVE",
"415 509 OFFCURVE",
"444 526 OFFCURVE",
"463 526 CURVE SMOOTH",
"486 526 OFFCURVE",
"474 502 OFFCURVE",
"484 502 CURVE SMOOTH",
"491 502 OFFCURVE",
"491 509 OFFCURVE",
"491 513 CURVE SMOOTH",
"491 535 OFFCURVE",
"475 542 OFFCURVE",
"456 542 CURVE SMOOTH",
"421 542 OFFCURVE",
"361 518 OFFCURVE",
"333 497 CURVE",
"231 490 OFFCURVE",
"49 436 OFFCURVE",
"49 309 CURVE SMOOTH",
"49 264 OFFCURVE",
"74 239 OFFCURVE",
"107 213 CURVE"
);
},
{
closed = 1;
nodes = (
"510 327 OFFCURVE",
"508 300 OFFCURVE",
"496 279 CURVE",
"469 274 OFFCURVE",
"436 274 OFFCURVE",
"418 249 CURVE SMOOTH",
"416 246 OFFCURVE",
"414 242 OFFCURVE",
"414 238 CURVE SMOOTH",
"414 230 OFFCURVE",
"422 230 OFFCURVE",
"428 230 CURVE SMOOTH",
"444 230 OFFCURVE",
"462 235 OFFCURVE",
"478 240 CURVE",
"459 196 LINE SMOOTH",
"456 189 OFFCURVE",
"453 179 OFFCURVE",
"450 173 CURVE SMOOTH",
"442 159 OFFCURVE",
"431 145 OFFCURVE",
"421 132 CURVE SMOOTH",
"373 71 OFFCURVE",
"295 -3 OFFCURVE",
"213 -3 CURVE SMOOTH",
"153 -3 OFFCURVE",
"131 46 OFFCURVE",
"131 98 CURVE SMOOTH",
"131 128 OFFCURVE",
"137 158 OFFCURVE",
"146 186 CURVE",
"155 181 OFFCURVE",
"225 143 OFFCURVE",
"231 143 CURVE SMOOTH",
"235 143 OFFCURVE",
"237 145 OFFCURVE",
"237 149 CURVE SMOOTH",
"237 151 OFFCURVE",
"236 152 OFFCURVE",
"235 154 CURVE",
"210 171 OFFCURVE",
"178 184 OFFCURVE",
"152 202 CURVE",
"160 224 OFFCURVE",
"170 245 OFFCURVE",
"181 266 CURVE SMOOTH",
"218 335 OFFCURVE",
"268 401 OFFCURVE",
"330 449 CURVE SMOOTH",
"339 456 OFFCURVE",
"350 465 OFFCURVE",
"359 470 CURVE",
"370 474 OFFCURVE",
"393 477 OFFCURVE",
"405 477 CURVE SMOOTH",
"477 477 OFFCURVE",
"510 417 OFFCURVE",
"510 351 CURVE SMOOTH"
);
},
{
closed = 1;
nodes = (
"205 400 OFFCURVE",
"149 318 OFFCURVE",
"114 232 CURVE",
"92 254 OFFCURVE",
"70 283 OFFCURVE",
"70 315 CURVE SMOOTH",
"70 398 OFFCURVE",
"213 443 OFFCURVE",
"277 458 CURVE"
);
}
);
width = 793;
}
);
note = OE;
unicode = 0152;
},
{
glyphname = P;
lastChange = "2021-04-19 06:54:11 +0000";
layers = (
{
hints = (
{
horizontal = 1;
place = "{-33, 51}";
type = Stem;
},
{
horizontal = 1;
place = "{553, 37}";
type = Stem;
},
{
horizontal = 1;
place = "{623, -20}";
target = down;
type = TopGhost;
},
{
place = "{828, 35}";
type = Stem;
},
{
place = "{1056, 14}";
type = Stem;
},
{
place = "{1235, 51}";
type = Stem;
},
{
place = "{1443, 67}";
type = Stem;
}
);
layerId = "C2A7C206-1962-4FAA-88DB-FE8C23752EC9";
paths = (
{
closed = 1;
nodes = (
"416 540 OFFCURVE",
"408 532 OFFCURVE",
"399 525 CURVE SMOOTH",
"387 515 OFFCURVE",
"378 509 OFFCURVE",
"371 502 CURVE",
"249 507 OFFCURVE",
"32 483 OFFCURVE",
"51 346 CURVE SMOOTH",
"62 269 OFFCURVE",
"141 223 OFFCURVE",
"165 210 CURVE SMOOTH",
"169 208 OFFCURVE",
"174 212 OFFCURVE",
"171 215 CURVE SMOOTH",
"160 227 OFFCURVE",
"144 239 OFFCURVE",
"130 251 CURVE SMOOTH",
"6 365 OFFCURVE",
"126 456 OFFCURVE",
"249 473 CURVE SMOOTH",
"275 477 OFFCURVE",
"315 480 OFFCURVE",
"357 479 CURVE",
"354 470 OFFCURVE",
"353 458 OFFCURVE",
"353 441 CURVE SMOOTH",
"353 428 OFFCURVE",
"340 393 OFFCURVE",
"336 381 CURVE SMOOTH",
"326 352 OFFCURVE",
"309 296 OFFCURVE",
"287 237 CURVE",
"281 241 OFFCURVE",
"276 245 OFFCURVE",
"272 251 CURVE SMOOTH",
"263 263 OFFCURVE",
"258 259 OFFCURVE",
"262 249 CURVE SMOOTH",
"266 238 OFFCURVE",
"273 229 OFFCURVE",
"281 222 CURVE",
"259 166 OFFCURVE",
"232 110 OFFCURVE",
"202 73 CURVE SMOOTH",
"178 44 OFFCURVE",
"152 34 OFFCURVE",
"124 34 CURVE SMOOTH",
"57 34 OFFCURVE",
"34 118 OFFCURVE",
"29 173 CURVE",
"30 182 OFFCURVE",
"21 175 OFFCURVE",
"20 169 CURVE SMOOTH",
"17 129 OFFCURVE",
"34 39 OFFCURVE",
"81 5 CURVE SMOOTH",
"169 -60 OFFCURVE",
"230 40 OFFCURVE",
"259 108 CURVE SMOOTH",
"273 139 OFFCURVE",
"287 175 OFFCURVE",
"300 211 CURVE",
"336 195 OFFCURVE",
"387 196 OFFCURVE",
"419 202 CURVE SMOOTH",
"599 237 OFFCURVE",
"689 453 OFFCURVE",
"441 494 CURVE SMOOTH",
"431 496 OFFCURVE",
"420 498 OFFCURVE",
"410 499 CURVE",
"418 507 LINE SMOOTH",
"428 515 OFFCURVE",
"445 564 OFFCURVE",
"426 552 CURVE"
);
},
{
closed = 1;
nodes = (
"634 436 OFFCURVE",
"541 243 OFFCURVE",
"410 221 CURVE SMOOTH",
"378 215 OFFCURVE",
"337 216 OFFCURVE",
"306 227 CURVE",
"348 344 LINE SMOOTH",
"363 388 OFFCURVE",
"375 421 OFFCURVE",
"385 447 CURVE SMOOTH",
"389 459 OFFCURVE",
"394 469 OFFCURVE",
"397 477 CURVE",
"409 476 OFFCURVE",
"420 474 OFFCURVE",
"431 472 CURVE SMOOTH"
);
}
);
width = 455;
}
);
note = P;
unicode = 0050;
},
{
glyphname = Thorn;
lastChange = "2021-04-19 06:54:11 +0000";
layers = (
{
hints = (
{
horizontal = 1;
place = "{-8, 33}";
type = Stem;
},
{
horizontal = 1;
place = "{203, 18}";
type = Stem;
},
{
horizontal = 1;
place = "{211, 28}";
type = Stem;
},
{
horizontal = 1;
place = "{254, 27}";
type = Stem;
},
{
horizontal = 1;
place = "{510, 15}";
type = Stem;
},
{
horizontal = 1;
place = "{526, 33}";
type = Stem;
},
{
place = "{303, 38}";
type = Stem;
}
);
layerId = "C2A7C206-1962-4FAA-88DB-FE8C23752EC9";
paths = (
{
closed = 1;
nodes = (
"342 608 OFFCURVE",
"326 618 OFFCURVE",
"316 618 CURVE SMOOTH",
"281 618 OFFCURVE",
"237 590 OFFCURVE",
"205 576 CURVE",
"195 595 OFFCURVE",
"133 298 OFFCURVE",
"118 236 CURVE SMOOTH",
"104 177 OFFCURVE",
"91 118 OFFCURVE",
"78 59 CURVE SMOOTH",
"67 11 OFFCURVE",
"55 -36 OFFCURVE",
"42 -83 CURVE SMOOTH",
"36 -108 OFFCURVE",
"21 -126 OFFCURVE",
"-7 -131 CURVE",
"-11 -135 OFFCURVE",
"1 -142 OFFCURVE",
"13 -139 CURVE SMOOTH",
"-2 -145 OFFCURVE",
"133 -123 OFFCURVE",
"120 -103 CURVE SMOOTH",
"102 -76 OFFCURVE",
"118 22 OFFCURVE",
"139 115 CURVE",
"187 111 OFFCURVE",
"292 110 OFFCURVE",
"352 138 CURVE SMOOTH",
"440 178 OFFCURVE",
"490 297 OFFCURVE",
"405 378 CURVE SMOOTH",
"354 426 OFFCURVE",
"266 424 OFFCURVE",
"209 424 CURVE",
"232 497 OFFCURVE",
"256 558 OFFCURVE",
"272 579 CURVE SMOOTH",
"297 612 OFFCURVE",
"310 602 OFFCURVE",
"330 605 CURVE SMOOTH"
);
},
{
closed = 1;
nodes = (
"151 165 LINE SMOOTH",
"169 238 OFFCURVE",
"194 348 OFFCURVE",
"209 384 CURVE SMOOTH",
"219 409 OFFCURVE",
"271 410 OFFCURVE",
"296 407 CURVE SMOOTH",
"356 399 OFFCURVE",
"399 332 OFFCURVE",
"397 268 CURVE SMOOTH",
"394 143 OFFCURVE",
"218 128 OFFCURVE",
"144 136 CURVE"
);
}
);
width = 541;
}
);
note = Thorn;
unicode = 00DE;
},
{
glyphname = Q;
lastChange = "2021-04-19 06:54:11 +0000";
layers = (
{
hints = (
{
horizontal = 1;
place = "{-329, 21}";
target = up;
type = BottomGhost;
},
{
horizontal = 1;
place = "{-7, 21}";
target = up;
type = BottomGhost;
},
{
horizontal = 1;
place = "{79, 57}";
type = Stem;
},
{
horizontal = 1;
place = "{589, 35}";
type = Stem;
},
{
place = "{83, 31}";
type = Stem;
},
{
place = "{131, 39}";
type = Stem;
},
{
place = "{590, 18}";
type = Stem;
}
);
layerId = "C2A7C206-1962-4FAA-88DB-FE8C23752EC9";
paths = (
{
closed = 1;
nodes = (
"568 321 OFFCURVE",
"550 481 OFFCURVE",
"403 501 CURVE",
"436 522 OFFCURVE",
"484 547 OFFCURVE",
"484 509 CURVE SMOOTH",
"484 502 OFFCURVE",
"494 503 OFFCURVE",
"495 511 CURVE SMOOTH",
"502 580 OFFCURVE",
"374 524 OFFCURVE",
"336 500 CURVE",
"309 498 OFFCURVE",
"278 493 OFFCURVE",
"247 485 CURVE SMOOTH",
"214 476 OFFCURVE",
"189 435 OFFCURVE",
"247 452 CURVE SMOOTH",
"258 455 OFFCURVE",
"269 458 OFFCURVE",
"280 460 CURVE",
"217 409 OFFCURVE",
"162 337 OFFCURVE",
"124 252 CURVE SMOOTH",
"62 112 OFFCURVE",
"68 -19 OFFCURVE",
"219 -19 CURVE SMOOTH",
"350 -19 OFFCURVE",
"450 100 OFFCURVE",
"506 206 CURVE SMOOTH"
);
},
{
closed = 1;
nodes = (
"616 -232 OFFCURVE",
"609 -214 OFFCURVE",
"596 -196 CURVE SMOOTH",
"593 -192 OFFCURVE",
"583 -192 OFFCURVE",
"586 -199 CURVE SMOOTH",
"614 -254 OFFCURVE",
"567 -312 OFFCURVE",
"498 -293 CURVE SMOOTH",
"330 -248 OFFCURVE",
"179 -29 OFFCURVE",
"114 -15 CURVE SMOOTH",
"73 -6 OFFCURVE",
"50 -66 OFFCURVE",
"48 -124 CURVE SMOOTH",
"47 -143 OFFCURVE",
"61 -139 OFFCURVE",
"60 -124 CURVE SMOOTH",
"59 -108 OFFCURVE",
"64 -90 OFFCURVE",
"68 -82 CURVE SMOOTH",
"80 -59 OFFCURVE",
"118 -67 OFFCURVE",
"149 -92 CURVE SMOOTH",
"263 -187 OFFCURVE",
"376 -316 OFFCURVE",
"514 -313 CURVE SMOOTH",
"554 -313 OFFCURVE",
"616 -297 OFFCURVE",
"616 -248 CURVE SMOOTH"
);
},
{
closed = 1;
nodes = (
"438 136 OFFCURVE",
"324 -3 OFFCURVE",
"213 -3 CURVE SMOOTH",
"122 -3 OFFCURVE",
"100 115 OFFCURVE",
"181 266 CURVE SMOOTH",
"240 376 OFFCURVE",
"314 442 OFFCURVE",
"359 470 CURVE",
"489 511 OFFCURVE",
"551 380 OFFCURVE",
"480 226 CURVE SMOOTH"
);
}
);
width = 469;
}
);
note = Q;
unicode = 0051;
},
{
glyphname = R;
lastChange = "2021-04-19 06:54:11 +0000";
layers = (
{
hints = (
{
horizontal = 1;
place = "{-30, 65}";
type = Stem;
},
{
horizontal = 1;
place = "{77, 9}";
type = Stem;
},
{
horizontal = 1;
place = "{367, -20}";
target = down;
type = TopGhost;
},
{
horizontal = 1;
place = "{566, 35}";
type = Stem;
},
{
horizontal = 1;
place = "{647, -20}";
target = down;
type = TopGhost;
},
{
place = "{87, 36}";
type = Stem;
},
{
place = "{658, 74}";
type = Stem;
}
);
layerId = "C2A7C206-1962-4FAA-88DB-FE8C23752EC9";
paths = (
{
closed = 1;
nodes = (
"414 543 OFFCURVE",
"406 536 OFFCURVE",
"397 528 CURVE SMOOTH",
"369 505 LINE",
"248 511 OFFCURVE",
"31 486 OFFCURVE",
"50 350 CURVE SMOOTH",
"60 273 OFFCURVE",
"139 227 OFFCURVE",
"164 213 CURVE SMOOTH",
"167 211 OFFCURVE",
"172 216 OFFCURVE",
"169 219 CURVE SMOOTH",
"158 230 OFFCURVE",
"143 242 OFFCURVE",
"129 255 CURVE SMOOTH",
"5 368 OFFCURVE",
"124 459 OFFCURVE",
"247 476 CURVE SMOOTH",
"274 480 OFFCURVE",
"313 483 OFFCURVE",
"355 482 CURVE",
"352 473 OFFCURVE",
"351 462 OFFCURVE",
"351 445 CURVE SMOOTH",
"351 431 OFFCURVE",
"338 396 OFFCURVE",
"334 384 CURVE SMOOTH",
"327 363 OFFCURVE",
"316 326 OFFCURVE",
"301 284 CURVE",
"294 292 OFFCURVE",
"288 296 OFFCURVE",
"285 296 CURVE",
"280 293 OFFCURVE",
"240 262 OFFCURVE",
"248 265 CURVE SMOOTH",
"260 268 OFFCURVE",
"272 262 OFFCURVE",
"280 253 CURVE SMOOTH",
"287 244 LINE",
"264 182 OFFCURVE",
"234 117 OFFCURVE",
"200 76 CURVE SMOOTH",
"177 48 OFFCURVE",
"151 38 OFFCURVE",
"123 38 CURVE SMOOTH",
"56 38 OFFCURVE",
"32 121 OFFCURVE",
"27 176 CURVE",
"29 186 OFFCURVE",
"19 179 OFFCURVE",
"18 173 CURVE SMOOTH",
"15 132 OFFCURVE",
"33 43 OFFCURVE",
"79 8 CURVE SMOOTH",
"168 -57 OFFCURVE",
"228 44 OFFCURVE",
"258 112 CURVE SMOOTH",
"273 146 OFFCURVE",
"289 186 OFFCURVE",
"303 225 CURVE",
"364 147 OFFCURVE",
"425 38 OFFCURVE",
"490 4 CURVE SMOOTH",
"550 -28 OFFCURVE",
"597 20 OFFCURVE",
"572 83 CURVE SMOOTH",
"565 103 OFFCURVE",
"554 128 OFFCURVE",
"542 146 CURVE SMOOTH",
"537 154 OFFCURVE",
"528 154 OFFCURVE",
"534 144 CURVE SMOOTH",
"548 117 OFFCURVE",
"565 82 OFFCURVE",
"565 54 CURVE SMOOTH",
"565 20 OFFCURVE",
"537 20 OFFCURVE",
"516 32 CURVE SMOOTH",
"472 57 OFFCURVE",
"405 151 OFFCURVE",
"353 220 CURVE",
"438 178 OFFCURVE",
"589 261 OFFCURVE",
"591 371 CURVE SMOOTH",
"593 427 OFFCURVE",
"549 479 OFFCURVE",
"439 498 CURVE SMOOTH",
"408 502 LINE",
"417 510 LINE SMOOTH",
"426 519 OFFCURVE",
"443 567 OFFCURVE",
"424 555 CURVE"
);
},
{
closed = 1;
nodes = (
"514 461 OFFCURVE",
"547 418 OFFCURVE",
"548 372 CURVE SMOOTH",
"548 280 OFFCURVE",
"427 173 OFFCURVE",
"336 245 CURVE",
"332 247 LINE",
"317 266 LINE",
"329 298 OFFCURVE",
"338 327 OFFCURVE",
"346 348 CURVE SMOOTH",
"362 391 OFFCURVE",
"373 424 OFFCURVE",
"383 451 CURVE SMOOTH",
"395 480 LINE",
"407 479 OFFCURVE",
"418 478 OFFCURVE",
"429 476 CURVE SMOOTH"
);
}
);
width = 579;
}
);
note = R;
unicode = 0052;
},
{
glyphname = S;
lastChange = "2021-04-19 06:54:11 +0000";
layers = (
{
hints = (
{
horizontal = 1;
place = "{-129, 41}";
type = Stem;
},
{
horizontal = 1;
place = "{-74, 20}";
type = Stem;
},
{
horizontal = 1;
place = "{284, 23}";
type = Stem;
},
{
horizontal = 1;
place = "{463, 41}";
type = Stem;
},
{
place = "{-4, 15}";
type = Stem;
},
{
place = "{20, 42}";
type = Stem;
},
{
place = "{254, 41}";
type = Stem;
},
{
place = "{465, 19}";
type = Stem;
}
);
layerId = "C2A7C206-1962-4FAA-88DB-FE8C23752EC9";
paths = (
{
closed = 1;
nodes = (
"496 412 OFFCURVE",
"468 535 OFFCURVE",
"293 512 CURVE SMOOTH",
"196 499 OFFCURVE",
"94 417 OFFCURVE",
"79 351 CURVE SMOOTH",
"57 251 OFFCURVE",
"131 233 OFFCURVE",
"209 190 CURVE SMOOTH",
"271 156 OFFCURVE",
"289 135 OFFCURVE",
"289 105 CURVE SMOOTH",
"289 12 OFFCURVE",
"76 -46 OFFCURVE",
"35 39 CURVE SMOOTH",
"30 51 OFFCURVE",
"30 65 OFFCURVE",
"40 81 CURVE SMOOTH",
"42 84 OFFCURVE",
"45 94 OFFCURVE",
"37 92 CURVE SMOOTH",
"17 86 OFFCURVE",
"2 57 OFFCURVE",
"14 28 CURVE SMOOTH",
"23 5 OFFCURVE",
"49 -18 OFFCURVE",
"93 -25 CURVE SMOOTH",
"150 -35 OFFCURVE",
"239 -3 OFFCURVE",
"280 33 CURVE SMOOTH",
"332 77 OFFCURVE",
"345 153 OFFCURVE",
"289 200 CURVE SMOOTH",
"227 251 OFFCURVE",
"107 266 OFFCURVE",
"107 344 CURVE SMOOTH",
"107 395 OFFCURVE",
"174 462 OFFCURVE",
"284 476 CURVE SMOOTH",
"371 488 OFFCURVE",
"492 468 OFFCURVE",
"441 363 CURVE SMOOTH",
"435 351 OFFCURVE",
"443 345 OFFCURVE",
"455 360 CURVE SMOOTH"
);
}
);
width = 337;
}
);
note = S;
unicode = 0053;
},
{
glyphname = Germandbls;
lastChange = "2021-04-19 06:54:11 +0000";
layers = (
{
background = {
hints = (
{
horizontal = 1;
place = "{-16, 32}";
type = Stem;
},
{
horizontal = 1;
place = "{304, 27}";
type = Stem;
},
{
horizontal = 1;
place = "{569, 29}";
type = Stem;
},
{
place = "{512, 62}";
type = Stem;
}
);
paths = (
{
closed = 1;
nodes = (
"556 200 OFFCURVE",
"517 256 OFFCURVE",
"418 269 CURVE SMOOTH",
"399 271 OFFCURVE",
"405 275 OFFCURVE",
"420 279 CURVE SMOOTH",
"495 296 OFFCURVE",
"542 349 OFFCURVE",
"546 400 CURVE SMOOTH",
"549 460 OFFCURVE",
"488 492 OFFCURVE",
"413 505 CURVE",
"422 522 OFFCURVE",
"432 538 OFFCURVE",
"448 552 CURVE SMOOTH",
"456 560 OFFCURVE",
"467 582 OFFCURVE",
"468 593 CURVE",
"469 595 OFFCURVE",
"468 601 OFFCURVE",
"466 599 CURVE SMOOTH",
"438 572 OFFCURVE",
"410 554 OFFCURVE",
"393 545 CURVE",
"381 534 OFFCURVE",
"378 522 OFFCURVE",
"376 510 CURVE",
"297 518 OFFCURVE",
"211 509 OFFCURVE",
"173 498 CURVE SMOOTH",
"99 477 OFFCURVE",
"52 435 OFFCURVE",
"52 355 CURVE SMOOTH",
"52 283 OFFCURVE",
"111 246 OFFCURVE",
"156 201 CURVE",
"159 197 OFFCURVE",
"165 203 OFFCURVE",
"161 207 CURVE SMOOTH",
"134 234 OFFCURVE",
"111 259 OFFCURVE",
"93 291 CURVE SMOOTH",
"60 349 OFFCURVE",
"71 399 OFFCURVE",
"125 440 CURVE SMOOTH",
"159 466 OFFCURVE",
"279 489 OFFCURVE",
"373 480 CURVE",
"370 470 OFFCURVE",
"353 432 OFFCURVE",
"351 426 CURVE SMOOTH",
"289 282 LINE",
"281 281 OFFCURVE",
"273 279 OFFCURVE",
"267 273 CURVE SMOOTH",
"258 265 OFFCURVE",
"253 258 OFFCURVE",
"253 254 CURVE SMOOTH",
"253 249 OFFCURVE",
"261 250 OFFCURVE",
"276 252 CURVE",
"231 147 LINE SMOOTH",
"206 90 OFFCURVE",
"183 69 OFFCURVE",
"173 65 CURVE SMOOTH",
"164 61 OFFCURVE",
"171 52 OFFCURVE",
"194 67 CURVE SMOOTH",
"207 76 OFFCURVE",
"227 72 OFFCURVE",
"241 107 CURVE SMOOTH",
"302 256 LINE",
"463 271 OFFCURVE",
"506 205 OFFCURVE",
"495 139 CURVE SMOOTH",
"484 72 OFFCURVE",
"416 1 OFFCURVE",
"282 9 CURVE SMOOTH",
"229 13 OFFCURVE",
"109 47 OFFCURVE",
"71 39 CURVE SMOOTH",
"50 34 OFFCURVE",
"37 25 OFFCURVE",
"31 11 CURVE SMOOTH",
"21 -11 OFFCURVE",
"40 -39 OFFCURVE",
"97 -28 CURVE SMOOTH",
"104 -26 OFFCURVE",
"106 -15 OFFCURVE",
"97 -18 CURVE SMOOTH",
"46 -35 OFFCURVE",
"22 28 OFFCURVE",
"142 2 CURVE SMOOTH",
"169 -4 OFFCURVE",
"232 -8 OFFCURVE",
"279 -9 CURVE SMOOTH",
"453 -15 OFFCURVE",
"541 66 OFFCURVE",
"550 142 CURVE SMOOTH"
);
},
{
closed = 1;
nodes = (
"358 390 LINE SMOOTH",
"370 419 OFFCURVE",
"384 448 OFFCURVE",
"399 476 CURVE",
"455 466 OFFCURVE",
"497 443 OFFCURVE",
"497 398 CURVE SMOOTH",
"497 345 OFFCURVE",
"439 281 OFFCURVE",
"329 281 CURVE SMOOTH",
"323 281 OFFCURVE",
"318 281 OFFCURVE",
"313 282 CURVE"
);
}
);
};
layerId = "C2A7C206-1962-4FAA-88DB-FE8C23752EC9";
paths = (
{
closed = 1;
nodes = (
"335 521 OFFCURVE",
"298 503 OFFCURVE",
"270 474 CURVE SMOOTH",
"212 418 OFFCURVE",
"169 302 OFFCURVE",
"148 227 CURVE",
"137 227 LINE SMOOTH",
"126 227 OFFCURVE",
"100 216 OFFCURVE",
"99 203 CURVE",
"101 202 LINE",
"107 203 OFFCURVE",
"113 205 OFFCURVE",
"119 205 CURVE SMOOTH",
"139 205 LINE",
"114 121 OFFCURVE",
"98 33 OFFCURVE",
"65 -45 CURVE SMOOTH",
"44 -95 OFFCURVE",
"17 -145 OFFCURVE",
"-35 -173 CURVE SMOOTH",
"-98 -207 OFFCURVE",
"-197 -167 OFFCURVE",
"-174 -93 CURVE SMOOTH",
"-172 -84 OFFCURVE",
"-182 -80 OFFCURVE",
"-185 -89 CURVE SMOOTH",
"-193 -119 OFFCURVE",
"-203 -145 OFFCURVE",
"-195 -164 CURVE SMOOTH",
"-181 -194 OFFCURVE",
"-147 -208 OFFCURVE",
"-101 -208 CURVE SMOOTH",
"21 -208 OFFCURVE",
"91 -68 OFFCURVE",
"126 29 CURVE SMOOTH",
"169 152 OFFCURVE",
"211 381 OFFCURVE",
"288 463 CURVE SMOOTH",
"313 491 OFFCURVE",
"346 509 OFFCURVE",
"386 509 CURVE SMOOTH",
"477 509 OFFCURVE",
"503 413 OFFCURVE",
"462 352 CURVE SMOOTH",
"439 316 OFFCURVE",
"392 296 OFFCURVE",
"343 284 CURVE",
"312 273 OFFCURVE",
"284 252 OFFCURVE",
"306 218 CURVE SMOOTH",
"333 171 OFFCURVE",
"398 134 OFFCURVE",
"399 61 CURVE SMOOTH",
"399 14 OFFCURVE",
"371 -11 OFFCURVE",
"324 -11 CURVE SMOOTH",
"273 -11 OFFCURVE",
"216 22 OFFCURVE",
"216 89 CURVE",
"217 97 OFFCURVE",
"219 104 OFFCURVE",
"222 109 CURVE SMOOTH",
"223 112 OFFCURVE",
"218 118 OFFCURVE",
"212 115 CURVE",
"196 100 OFFCURVE",
"185 60 OFFCURVE",
"194 36 CURVE SMOOTH",
"258 -114 OFFCURVE",
"532 14 OFFCURVE",
"408 157 CURVE SMOOTH",
"380 191 OFFCURVE",
"277 264 OFFCURVE",
"369 278 CURVE",
"418 284 OFFCURVE",
"462 304 OFFCURVE",
"488 337 CURVE SMOOTH",
"551 422 OFFCURVE",
"488 523 OFFCURVE",
"382 523 CURVE SMOOTH"
);
}
);
width = 543;
}
);
unicode = 1E9E;
},
{
glyphname = Schwa;
lastChange = "2021-04-19 06:54:11 +0000";
layers = (
{
hints = (
{
horizontal = 1;
place = "{-12, 18}";
type = Stem;
},
{
horizontal = 1;
place = "{162, 108}";
type = Stem;
},
{
place = "{49, 38}";
type = Stem;
},
{
place = "{231, 31}";
type = Stem;
}
);
layerId = "C2A7C206-1962-4FAA-88DB-FE8C23752EC9";
paths = (
{
closed = 1;
nodes = (
"68 423 OFFCURVE",
"65 414 OFFCURVE",
"76 424 CURVE SMOOTH",
"129 472 OFFCURVE",
"179 513 OFFCURVE",
"268 513 CURVE SMOOTH",
"433 513 OFFCURVE",
"411 400 OFFCURVE",
"341 280 CURVE",
"358 288 OFFCURVE",
"247 263 OFFCURVE",
"172 223 CURVE SMOOTH",
"133 202 OFFCURVE",
"61 136 OFFCURVE",
"52 83 CURVE SMOOTH",
"42 25 OFFCURVE",
"61 -18 OFFCURVE",
"138 -18 CURVE SMOOTH",
"227 -18 OFFCURVE",
"338 192 OFFCURVE",
"383 260 CURVE",
"408 270 OFFCURVE",
"428 283 OFFCURVE",
"395 283 CURVE",
"453 401 OFFCURVE",
"470 548 OFFCURVE",
"299 548 CURVE SMOOTH",
"208 548 OFFCURVE",
"85 464 OFFCURVE",
"71 431 CURVE SMOOTH"
);
},
{
closed = 1;
nodes = (
"71 35 OFFCURVE",
"98 107 OFFCURVE",
"138 148 CURVE SMOOTH",
"194 209 OFFCURVE",
"233 222 OFFCURVE",
"334 259 CURVE",
"319 229 OFFCURVE",
"278 142 OFFCURVE",
"234 91 CURVE SMOOTH",
"168 15 OFFCURVE",
"120 -8 OFFCURVE",
"101 9 CURVE SMOOTH"
);
}
);
width = 486;
}
);
unicode = 018F;
},
{
glyphname = T;
lastChange = "2021-04-19 06:54:11 +0000";
layers = (
{
hints = (
{
horizontal = 1;
place = "{-29, 50}";
type = Stem;
},
{
horizontal = 1;
place = "{534, -20}";
target = down;
type = TopGhost;
},
{
place = "{13, 30}";
type = Stem;
},
{
place = "{49, 12}";
type = Stem;
},
{
place = "{618, 14}";
type = Stem;
}
);
layerId = "C2A7C206-1962-4FAA-88DB-FE8C23752EC9";
paths = (
{
closed = 1;
nodes = (
"445 542 OFFCURVE",
"419 535 OFFCURVE",
"406 521 CURVE",
"403 515 OFFCURVE",
"400 504 OFFCURVE",
"397 492 CURVE",
"309 509 OFFCURVE",
"165 533 OFFCURVE",
"90 499 CURVE SMOOTH",
"32 472 OFFCURVE",
"-4 417 OFFCURVE",
"21 343 CURVE SMOOTH",
"35 300 OFFCURVE",
"69 262 OFFCURVE",
"93 226 CURVE SMOOTH",
"96 222 OFFCURVE",
"103 227 OFFCURVE",
"100 231 CURVE SMOOTH",
"21 347 OFFCURVE",
"0 483 OFFCURVE",
"197 480 CURVE SMOOTH",
"253 479 OFFCURVE",
"323 469 OFFCURVE",
"390 458 CURVE",
"388 450 OFFCURVE",
"386 442 OFFCURVE",
"385 435 CURVE",
"379 415 LINE SMOOTH",
"351 315 OFFCURVE",
"317 205 OFFCURVE",
"275 111 CURVE SMOOTH",
"255 68 OFFCURVE",
"222 21 OFFCURVE",
"170 21 CURVE SMOOTH",
"70 21 OFFCURVE",
"63 133 OFFCURVE",
"61 174 CURVE SMOOTH",
"60 182 OFFCURVE",
"49 182 OFFCURVE",
"49 174 CURVE SMOOTH",
"49 130 OFFCURVE",
"58 66 OFFCURVE",
"86 22 CURVE SMOOTH",
"121 -34 OFFCURVE",
"188 -47 OFFCURVE",
"236 0 CURVE SMOOTH",
"272 35 OFFCURVE",
"302 120 OFFCURVE",
"319 167 CURVE SMOOTH",
"340 223 OFFCURVE",
"345 233 OFFCURVE",
"403 402 CURVE SMOOTH",
"409 420 OFFCURVE",
"417 433 OFFCURVE",
"427 451 CURVE",
"484 441 OFFCURVE",
"537 432 OFFCURVE",
"574 428 CURVE SMOOTH",
"630 422 OFFCURVE",
"651 478 OFFCURVE",
"612 495 CURVE SMOOTH",
"602 499 OFFCURVE",
"603 491 OFFCURVE",
"609 486 CURVE SMOOTH",
"628 472 OFFCURVE",
"612 458 OFFCURVE",
"602 459 CURVE SMOOTH",
"549 460 OFFCURVE",
"495 474 OFFCURVE",
"445 483 CURVE SMOOTH",
"443 483 OFFCURVE",
"442 483 OFFCURVE",
"441 484 CURVE",
"444 494 OFFCURVE",
"445 505 OFFCURVE",
"445 516 CURVE SMOOTH"
);
}
);
width = 379;
}
);
note = T;
unicode = 0054;
},
{
glyphname = U;
lastChange = "2021-04-19 06:54:11 +0000";
layers = (
{
hints = (
{
horizontal = 1;
place = "{-28, 56}";
type = Stem;
},
{
horizontal = 1;
place = "{600, -20}";
target = down;
type = TopGhost;
},
{
horizontal = 1;
place = "{644, -20}";
target = down;
type = TopGhost;
},
{
place = "{239, 59}";
type = Stem;
},
{
place = "{445, 40}";
type = Stem;
},
{
place = "{629, 19}";
type = Stem;
}
);
layerId = "C2A7C206-1962-4FAA-88DB-FE8C23752EC9";
paths = (
{
closed = 1;
nodes = (
"502 309 OFFCURVE",
"433 170 OFFCURVE",
"387 115 CURVE SMOOTH",
"282 -8 OFFCURVE",
"187 12 OFFCURVE",
"217 155 CURVE SMOOTH",
"241 274 OFFCURVE",
"301 379 OFFCURVE",
"316 406 CURVE SMOOTH",
"321 415 OFFCURVE",
"326 423 OFFCURVE",
"334 431 CURVE SMOOTH",
"372 471 OFFCURVE",
"303 474 OFFCURVE",
"295 454 CURVE SMOOTH",
"260 362 OFFCURVE",
"220 269 OFFCURVE",
"185 173 CURVE SMOOTH",
"163 114 OFFCURVE",
"140 -12 OFFCURVE",
"241 -12 CURVE SMOOTH",
"327 -12 OFFCURVE",
"424 141 OFFCURVE",
"478 235 CURVE",
"460 188 OFFCURVE",
"442 139 OFFCURVE",
"433 91 CURVE SMOOTH",
"423 39 OFFCURVE",
"428 -5 OFFCURVE",
"470 -11 CURVE SMOOTH",
"505 -16 OFFCURVE",
"580 63 OFFCURVE",
"600 88 CURVE SMOOTH",
"618 109 OFFCURVE",
"634 131 OFFCURVE",
"650 152 CURVE SMOOTH",
"652 155 OFFCURVE",
"651 158 OFFCURVE",
"650 160 CURVE",
"650 161 OFFCURVE",
"649 162 OFFCURVE",
"649 161 CURVE",
"594 94 LINE SMOOTH",
"444 -82 OFFCURVE",
"468 95 OFFCURVE",
"506 220 CURVE SMOOTH",
"533 309 OFFCURVE",
"566 397 OFFCURVE",
"604 480 CURVE SMOOTH",
"612 497 OFFCURVE",
"629 514 OFFCURVE",
"646 518 CURVE SMOOTH",
"650 519 OFFCURVE",
"652 532 OFFCURVE",
"639 528 CURVE SMOOTH",
"622 523 OFFCURVE",
"590 504 OFFCURVE",
"582 496 CURVE",
"555 496 OFFCURVE",
"556 475 OFFCURVE",
"552 461 CURVE SMOOTH",
"543 431 OFFCURVE",
"540 416 OFFCURVE",
"534 396 CURVE",
"532 392 OFFCURVE",
"531 387 OFFCURVE",
"529 382 CURVE SMOOTH"
);
},
{
closed = 1;
nodes = (
"353 509 OFFCURVE",
"256 484 OFFCURVE",
"219 478 CURVE SMOOTH",
"149 466 OFFCURVE",
"23 452 OFFCURVE",
"73 312 CURVE SMOOTH",
"79 293 OFFCURVE",
"90 276 OFFCURVE",
"95 256 CURVE SMOOTH",
"111 195 OFFCURVE",
"70 144 OFFCURVE",
"49 157 CURVE SMOOTH",
"43 161 OFFCURVE",
"40 154 OFFCURVE",
"45 151 CURVE SMOOTH",
"78 130 OFFCURVE",
"144 167 OFFCURVE",
"126 234 CURVE SMOOTH",
"116 269 OFFCURVE",
"82 311 OFFCURVE",
"83 351 CURVE SMOOTH",
"84 389 OFFCURVE",
"107 417 OFFCURVE",
"152 433 CURVE SMOOTH",
"197 450 OFFCURVE",
"285 475 OFFCURVE",
"358 499 CURVE SMOOTH",
"399 513 OFFCURVE",
"393 545 OFFCURVE",
"377 531 CURVE SMOOTH"
);
}
);
width = 554;
}
);
note = U;
unicode = 0055;
},
{
glyphname = Uacute;
lastChange = "2021-04-19 06:54:11 +0000";
layers = (
{
hints = (
{
horizontal = 1;
place = "{-28, 56}";
type = Stem;
},
{
horizontal = 1;
place = "{600, -20}";
target = down;
type = TopGhost;
},
{
horizontal = 1;
place = "{644, -20}";
target = down;
type = TopGhost;
},
{
place = "{239, 59}";
type = Stem;
},
{
place = "{445, 40}";
type = Stem;
},
{
place = "{629, 19}";
type = Stem;
}
);
layerId = "C2A7C206-1962-4FAA-88DB-FE8C23752EC9";
paths = (
{
closed = 1;
nodes = (
"502 309 OFFCURVE",
"433 170 OFFCURVE",
"387 115 CURVE SMOOTH",
"282 -8 OFFCURVE",
"187 12 OFFCURVE",
"217 155 CURVE SMOOTH",
"241 274 OFFCURVE",
"301 379 OFFCURVE",
"316 406 CURVE SMOOTH",
"321 415 OFFCURVE",
"326 423 OFFCURVE",
"334 431 CURVE SMOOTH",
"372 471 OFFCURVE",
"303 474 OFFCURVE",
"295 454 CURVE SMOOTH",
"260 362 OFFCURVE",
"220 269 OFFCURVE",
"185 173 CURVE SMOOTH",
"163 114 OFFCURVE",
"140 -12 OFFCURVE",
"241 -12 CURVE SMOOTH",
"327 -12 OFFCURVE",
"424 141 OFFCURVE",
"478 235 CURVE",
"460 188 OFFCURVE",
"442 139 OFFCURVE",
"433 91 CURVE SMOOTH",
"423 39 OFFCURVE",
"428 -5 OFFCURVE",
"470 -11 CURVE SMOOTH",
"505 -16 OFFCURVE",
"580 63 OFFCURVE",
"600 88 CURVE SMOOTH",
"618 109 OFFCURVE",
"634 131 OFFCURVE",
"650 152 CURVE SMOOTH",
"652 155 OFFCURVE",
"651 158 OFFCURVE",
"650 160 CURVE",
"650 161 OFFCURVE",
"649 162 OFFCURVE",
"649 161 CURVE",
"594 94 LINE SMOOTH",
"444 -82 OFFCURVE",
"468 95 OFFCURVE",
"506 220 CURVE SMOOTH",
"533 309 OFFCURVE",
"566 397 OFFCURVE",
"604 480 CURVE SMOOTH",
"612 497 OFFCURVE",
"629 514 OFFCURVE",
"646 518 CURVE SMOOTH",
"650 519 OFFCURVE",
"652 532 OFFCURVE",
"639 528 CURVE SMOOTH",
"622 523 OFFCURVE",
"590 504 OFFCURVE",
"582 496 CURVE",
"555 496 OFFCURVE",
"556 475 OFFCURVE",
"552 461 CURVE SMOOTH",
"543 431 OFFCURVE",
"540 416 OFFCURVE",
"534 396 CURVE",
"532 392 OFFCURVE",
"531 387 OFFCURVE",
"529 382 CURVE SMOOTH"
);
},
{
closed = 1;
nodes = (
"353 509 OFFCURVE",
"256 484 OFFCURVE",
"219 478 CURVE SMOOTH",
"149 466 OFFCURVE",
"23 452 OFFCURVE",
"73 312 CURVE SMOOTH",
"79 293 OFFCURVE",
"90 276 OFFCURVE",
"95 256 CURVE SMOOTH",
"111 195 OFFCURVE",
"70 144 OFFCURVE",
"49 157 CURVE SMOOTH",
"43 161 OFFCURVE",
"40 154 OFFCURVE",
"45 151 CURVE SMOOTH",
"78 130 OFFCURVE",
"144 167 OFFCURVE",
"126 234 CURVE SMOOTH",
"116 269 OFFCURVE",
"82 311 OFFCURVE",
"83 351 CURVE SMOOTH",
"84 389 OFFCURVE",
"107 417 OFFCURVE",
"152 433 CURVE SMOOTH",
"197 450 OFFCURVE",
"285 475 OFFCURVE",
"358 499 CURVE SMOOTH",
"399 513 OFFCURVE",
"393 545 OFFCURVE",
"377 531 CURVE SMOOTH"
);
},
{
closed = 1;
nodes = (
"618 642 OFFCURVE",
"615 655 OFFCURVE",
"603 654 CURVE SMOOTH",
"599 654 OFFCURVE",
"594 652 OFFCURVE",
"589 648 CURVE SMOOTH",
"570 636 OFFCURVE",
"539 613 OFFCURVE",
"495 581 CURVE SMOOTH",
"444 542 OFFCURVE",
"455 545 OFFCURVE",
"452 538 CURVE",
"452 535 OFFCURVE",
"454 534 OFFCURVE",
"456 534 CURVE SMOOTH",
"466 534 OFFCURVE",
"471 537 OFFCURVE",
"554 590 CURVE SMOOTH",
"600 618 LINE SMOOTH",
"606 622 OFFCURVE",
"610 626 OFFCURVE",
"612 631 CURVE SMOOTH"
);
}
);
width = 554;
}
);
note = Uacute;
unicode = 00DA;
},
{
glyphname = Ucircumflex;
lastChange = "2021-04-19 06:54:11 +0000";
layers = (
{
hints = (
{
horizontal = 1;
place = "{-28, 56}";
type = Stem;
},
{
horizontal = 1;
place = "{600, -20}";
target = down;
type = TopGhost;
},
{
horizontal = 1;
place = "{644, -20}";
target = down;
type = TopGhost;
},
{
place = "{239, 59}";
type = Stem;
},
{
place = "{445, 40}";
type = Stem;
},
{
place = "{629, 19}";
type = Stem;
}
);
layerId = "C2A7C206-1962-4FAA-88DB-FE8C23752EC9";
paths = (
{
closed = 1;
nodes = (
"502 309 OFFCURVE",
"433 170 OFFCURVE",
"387 115 CURVE SMOOTH",
"282 -8 OFFCURVE",
"187 12 OFFCURVE",
"217 155 CURVE SMOOTH",
"241 274 OFFCURVE",
"301 379 OFFCURVE",
"316 406 CURVE SMOOTH",
"321 415 OFFCURVE",
"326 423 OFFCURVE",
"334 431 CURVE SMOOTH",
"372 471 OFFCURVE",
"303 474 OFFCURVE",
"295 454 CURVE SMOOTH",
"260 362 OFFCURVE",
"220 269 OFFCURVE",
"185 173 CURVE SMOOTH",
"163 114 OFFCURVE",
"140 -12 OFFCURVE",
"241 -12 CURVE SMOOTH",
"327 -12 OFFCURVE",
"424 141 OFFCURVE",
"478 235 CURVE",
"460 188 OFFCURVE",
"442 139 OFFCURVE",
"433 91 CURVE SMOOTH",
"423 39 OFFCURVE",
"428 -5 OFFCURVE",
"470 -11 CURVE SMOOTH",
"505 -16 OFFCURVE",
"580 63 OFFCURVE",
"600 88 CURVE SMOOTH",
"618 109 OFFCURVE",
"634 131 OFFCURVE",
"650 152 CURVE SMOOTH",
"652 155 OFFCURVE",
"651 158 OFFCURVE",
"650 160 CURVE",
"650 161 OFFCURVE",
"649 162 OFFCURVE",
"649 161 CURVE",
"594 94 LINE SMOOTH",
"444 -82 OFFCURVE",
"468 95 OFFCURVE",
"506 220 CURVE SMOOTH",
"533 309 OFFCURVE",
"566 397 OFFCURVE",
"604 480 CURVE SMOOTH",
"612 497 OFFCURVE",
"629 514 OFFCURVE",
"646 518 CURVE SMOOTH",
"650 519 OFFCURVE",
"652 532 OFFCURVE",
"639 528 CURVE SMOOTH",
"622 523 OFFCURVE",
"590 504 OFFCURVE",
"582 496 CURVE",
"555 496 OFFCURVE",
"556 475 OFFCURVE",
"552 461 CURVE SMOOTH",
"543 431 OFFCURVE",
"540 416 OFFCURVE",
"534 396 CURVE",
"532 392 OFFCURVE",
"531 387 OFFCURVE",
"529 382 CURVE SMOOTH"
);
},
{
closed = 1;
nodes = (
"353 509 OFFCURVE",
"256 484 OFFCURVE",
"219 478 CURVE SMOOTH",
"149 466 OFFCURVE",
"23 452 OFFCURVE",
"73 312 CURVE SMOOTH",
"79 293 OFFCURVE",
"90 276 OFFCURVE",
"95 256 CURVE SMOOTH",
"111 195 OFFCURVE",
"70 144 OFFCURVE",
"49 157 CURVE SMOOTH",
"43 161 OFFCURVE",
"40 154 OFFCURVE",
"45 151 CURVE SMOOTH",
"78 130 OFFCURVE",
"144 167 OFFCURVE",
"126 234 CURVE SMOOTH",
"116 269 OFFCURVE",
"82 311 OFFCURVE",
"83 351 CURVE SMOOTH",
"84 389 OFFCURVE",
"107 417 OFFCURVE",
"152 433 CURVE SMOOTH",
"197 450 OFFCURVE",
"285 475 OFFCURVE",
"358 499 CURVE SMOOTH",
"399 513 OFFCURVE",
"393 545 OFFCURVE",
"377 531 CURVE SMOOTH"
);
},
{
closed = 1;
nodes = (
"569 560 OFFCURVE",
"568 586 OFFCURVE",
"564 635 CURVE SMOOTH",
"564 634 LINE",
"563 636 OFFCURVE",
"561 638 OFFCURVE",
"556 638 CURVE SMOOTH",
"551 638 OFFCURVE",
"544 637 OFFCURVE",
"535 636 CURVE",
"451 586 OFFCURVE",
"409 560 OFFCURVE",
"406 559 CURVE",
"407 556 OFFCURVE",
"409 554 OFFCURVE",
"415 554 CURVE SMOOTH",
"419 554 OFFCURVE",
"459 572 OFFCURVE",
"533 607 CURVE",
"550 559 LINE SMOOTH",
"552 555 OFFCURVE",
"556 554 OFFCURVE",
"561 554 CURVE SMOOTH",
"566 554 OFFCURVE",
"568 557 OFFCURVE",
"569 558 CURVE"
);
}
);
width = 554;
}
);
note = Ucircumflex;
unicode = 00DB;
},
{
glyphname = Udieresis;
lastChange = "2021-04-19 06:54:11 +0000";
layers = (
{
hints = (
{
horizontal = 1;
place = "{-28, 56}";
type = Stem;
},
{
horizontal = 1;
place = "{600, -20}";
target = down;
type = TopGhost;
},
{
horizontal = 1;
place = "{644, -20}";
target = down;
type = TopGhost;
},
{
place = "{239, 59}";
type = Stem;
},
{
place = "{445, 40}";
type = Stem;
},
{
place = "{629, 19}";
type = Stem;
}
);
layerId = "C2A7C206-1962-4FAA-88DB-FE8C23752EC9";
paths = (
{
closed = 1;
nodes = (
"502 309 OFFCURVE",
"433 170 OFFCURVE",
"387 115 CURVE SMOOTH",
"282 -8 OFFCURVE",
"187 12 OFFCURVE",
"217 155 CURVE SMOOTH",
"241 274 OFFCURVE",
"301 379 OFFCURVE",
"316 406 CURVE SMOOTH",
"321 415 OFFCURVE",
"326 423 OFFCURVE",
"334 431 CURVE SMOOTH",
"372 471 OFFCURVE",
"303 474 OFFCURVE",
"295 454 CURVE SMOOTH",
"260 362 OFFCURVE",
"220 269 OFFCURVE",
"185 173 CURVE SMOOTH",
"163 114 OFFCURVE",
"140 -12 OFFCURVE",
"241 -12 CURVE SMOOTH",
"327 -12 OFFCURVE",
"424 141 OFFCURVE",
"478 235 CURVE",
"460 188 OFFCURVE",
"442 139 OFFCURVE",
"433 91 CURVE SMOOTH",
"423 39 OFFCURVE",
"428 -5 OFFCURVE",
"470 -11 CURVE SMOOTH",
"505 -16 OFFCURVE",
"580 63 OFFCURVE",
"600 88 CURVE SMOOTH",
"618 109 OFFCURVE",
"634 131 OFFCURVE",
"650 152 CURVE SMOOTH",
"652 155 OFFCURVE",
"651 158 OFFCURVE",
"650 160 CURVE",
"650 161 OFFCURVE",
"649 162 OFFCURVE",
"649 161 CURVE",
"594 94 LINE SMOOTH",
"444 -82 OFFCURVE",
"468 95 OFFCURVE",
"506 220 CURVE SMOOTH",
"533 309 OFFCURVE",
"566 397 OFFCURVE",
"604 480 CURVE SMOOTH",
"612 497 OFFCURVE",
"629 514 OFFCURVE",
"646 518 CURVE SMOOTH",
"650 519 OFFCURVE",
"652 532 OFFCURVE",
"639 528 CURVE SMOOTH",
"622 523 OFFCURVE",
"590 504 OFFCURVE",
"582 496 CURVE",
"555 496 OFFCURVE",
"556 475 OFFCURVE",
"552 461 CURVE SMOOTH",
"543 431 OFFCURVE",
"540 416 OFFCURVE",
"534 396 CURVE",
"532 392 OFFCURVE",
"531 387 OFFCURVE",
"529 382 CURVE SMOOTH"
);
},
{
closed = 1;
nodes = (
"353 509 OFFCURVE",
"256 484 OFFCURVE",
"219 478 CURVE SMOOTH",
"149 466 OFFCURVE",
"23 452 OFFCURVE",
"73 312 CURVE SMOOTH",
"79 293 OFFCURVE",
"90 276 OFFCURVE",
"95 256 CURVE SMOOTH",
"111 195 OFFCURVE",
"70 144 OFFCURVE",
"49 157 CURVE SMOOTH",
"43 161 OFFCURVE",
"40 154 OFFCURVE",
"45 151 CURVE SMOOTH",
"78 130 OFFCURVE",
"144 167 OFFCURVE",
"126 234 CURVE SMOOTH",
"116 269 OFFCURVE",
"82 311 OFFCURVE",
"83 351 CURVE SMOOTH",
"84 389 OFFCURVE",
"107 417 OFFCURVE",
"152 433 CURVE SMOOTH",
"197 450 OFFCURVE",
"285 475 OFFCURVE",
"358 499 CURVE SMOOTH",
"399 513 OFFCURVE",
"393 545 OFFCURVE",
"377 531 CURVE SMOOTH"
);
},
{
closed = 1;
nodes = (
"489 629 OFFCURVE",
"488 631 OFFCURVE",
"484 631 CURVE SMOOTH",
"474 631 OFFCURVE",
"463 627 OFFCURVE",
"452 618 CURVE SMOOTH",
"441 609 OFFCURVE",
"434 600 OFFCURVE",
"431 590 CURVE SMOOTH",
"427 577 OFFCURVE",
"428 567 OFFCURVE",
"438 567 CURVE SMOOTH",
"453 567 OFFCURVE",
"464 573 OFFCURVE",
"468 585 CURVE SMOOTH",
"469 589 OFFCURVE",
"472 596 OFFCURVE",
"478 605 CURVE SMOOTH",
"484 615 OFFCURVE",
"487 622 OFFCURVE",
"489 627 CURVE"
);
},
{
closed = 1;
nodes = (
"587 629 OFFCURVE",
"586 631 OFFCURVE",
"581 631 CURVE SMOOTH",
"571 631 OFFCURVE",
"561 627 OFFCURVE",
"550 618 CURVE SMOOTH",
"539 609 OFFCURVE",
"532 600 OFFCURVE",
"529 590 CURVE SMOOTH",
"525 577 OFFCURVE",
"526 567 OFFCURVE",
"535 567 CURVE SMOOTH",
"551 567 OFFCURVE",
"562 573 OFFCURVE",
"565 585 CURVE SMOOTH",
"566 589 OFFCURVE",
"570 596 OFFCURVE",
"575 605 CURVE SMOOTH",
"581 615 OFFCURVE",
"585 622 OFFCURVE",
"586 627 CURVE"
);
}
);
width = 554;
}
);
note = Udieresis;
unicode = 00DC;
},
{
glyphname = Ugrave;
lastChange = "2021-04-19 06:54:11 +0000";
layers = (
{
hints = (
{
horizontal = 1;
place = "{-28, 56}";
type = Stem;
},
{
horizontal = 1;
place = "{600, -20}";
target = down;
type = TopGhost;
},
{
horizontal = 1;
place = "{644, -20}";
target = down;
type = TopGhost;
},
{
place = "{239, 59}";
type = Stem;
},
{
place = "{445, 40}";
type = Stem;
},
{
place = "{629, 19}";
type = Stem;
}
);
layerId = "C2A7C206-1962-4FAA-88DB-FE8C23752EC9";
paths = (
{
closed = 1;
nodes = (
"502 309 OFFCURVE",
"433 170 OFFCURVE",
"387 115 CURVE SMOOTH",
"282 -8 OFFCURVE",
"187 12 OFFCURVE",
"217 155 CURVE SMOOTH",
"241 274 OFFCURVE",
"301 379 OFFCURVE",
"316 406 CURVE SMOOTH",
"321 415 OFFCURVE",
"326 423 OFFCURVE",
"334 431 CURVE SMOOTH",
"372 471 OFFCURVE",
"303 474 OFFCURVE",
"295 454 CURVE SMOOTH",
"260 362 OFFCURVE",
"220 269 OFFCURVE",
"185 173 CURVE SMOOTH",
"163 114 OFFCURVE",
"140 -12 OFFCURVE",
"241 -12 CURVE SMOOTH",
"327 -12 OFFCURVE",
"424 141 OFFCURVE",
"478 235 CURVE",
"460 188 OFFCURVE",
"442 139 OFFCURVE",
"433 91 CURVE SMOOTH",
"423 39 OFFCURVE",
"428 -5 OFFCURVE",
"470 -11 CURVE SMOOTH",
"505 -16 OFFCURVE",
"580 63 OFFCURVE",
"600 88 CURVE SMOOTH",
"618 109 OFFCURVE",
"634 131 OFFCURVE",
"650 152 CURVE SMOOTH",
"652 155 OFFCURVE",
"651 158 OFFCURVE",
"650 160 CURVE",
"650 161 OFFCURVE",
"649 162 OFFCURVE",
"649 161 CURVE",
"594 94 LINE SMOOTH",
"444 -82 OFFCURVE",
"468 95 OFFCURVE",
"506 220 CURVE SMOOTH",
"533 309 OFFCURVE",
"566 397 OFFCURVE",
"604 480 CURVE SMOOTH",
"612 497 OFFCURVE",
"629 514 OFFCURVE",
"646 518 CURVE SMOOTH",
"650 519 OFFCURVE",
"652 532 OFFCURVE",
"639 528 CURVE SMOOTH",
"622 523 OFFCURVE",
"590 504 OFFCURVE",
"582 496 CURVE",
"555 496 OFFCURVE",
"556 475 OFFCURVE",
"552 461 CURVE SMOOTH",
"543 431 OFFCURVE",
"540 416 OFFCURVE",
"534 396 CURVE",
"532 392 OFFCURVE",
"531 387 OFFCURVE",
"529 382 CURVE SMOOTH"
);
},
{
closed = 1;
nodes = (
"353 509 OFFCURVE",
"256 484 OFFCURVE",
"219 478 CURVE SMOOTH",
"149 466 OFFCURVE",
"23 452 OFFCURVE",
"73 312 CURVE SMOOTH",
"79 293 OFFCURVE",
"90 276 OFFCURVE",
"95 256 CURVE SMOOTH",
"111 195 OFFCURVE",
"70 144 OFFCURVE",
"49 157 CURVE SMOOTH",
"43 161 OFFCURVE",
"40 154 OFFCURVE",
"45 151 CURVE SMOOTH",
"78 130 OFFCURVE",
"144 167 OFFCURVE",
"126 234 CURVE SMOOTH",
"116 269 OFFCURVE",
"82 311 OFFCURVE",
"83 351 CURVE SMOOTH",
"84 389 OFFCURVE",
"107 417 OFFCURVE",
"152 433 CURVE SMOOTH",
"197 450 OFFCURVE",
"285 475 OFFCURVE",
"358 499 CURVE SMOOTH",
"399 513 OFFCURVE",
"393 545 OFFCURVE",
"377 531 CURVE SMOOTH"
);
},
{
closed = 1;
nodes = (
"540 550 OFFCURVE",
"525 566 OFFCURVE",
"499 589 CURVE SMOOTH",
"472 612 OFFCURVE",
"456 625 OFFCURVE",
"453 625 CURVE SMOOTH",
"441 625 OFFCURVE",
"433 618 OFFCURVE",
"429 605 CURVE SMOOTH",
"428 601 OFFCURVE",
"429 597 OFFCURVE",
"433 594 CURVE SMOOTH",
"441 587 OFFCURVE",
"458 577 OFFCURVE",
"482 564 CURVE SMOOTH",
"508 548 OFFCURVE",
"525 540 OFFCURVE",
"532 540 CURVE",
"536 541 OFFCURVE",
"537 543 OFFCURVE",
"538 544 CURVE"
);
}
);
width = 554;
}
);
note = Ugrave;
unicode = 00D9;
},
{
glyphname = Uhorn;
lastChange = "2021-04-19 06:54:11 +0000";
layers = (
{
hints = (
{
horizontal = 1;
place = "{-28, 56}";
type = Stem;
},
{
horizontal = 1;
place = "{600, -20}";
target = down;
type = TopGhost;
},
{
horizontal = 1;
place = "{644, -20}";
target = down;
type = TopGhost;
},
{
place = "{239, 59}";
type = Stem;
},
{
place = "{445, 40}";
type = Stem;
},
{
place = "{629, 19}";
type = Stem;
},
{
horizontal = 1;
place = "{-247, 27}";
type = Stem;
},
{
horizontal = 1;
place = "{304, 64}";
type = Stem;
},
{
place = "{665, 80}";
type = Stem;
}
);
layerId = "C2A7C206-1962-4FAA-88DB-FE8C23752EC9";
paths = (
{
closed = 1;
nodes = (
"682 527 OFFCURVE",
"651 487 OFFCURVE",
"621 484 CURVE SMOOTH",
"611 483 OFFCURVE",
"601 487 OFFCURVE",
"592 497 CURVE",
"588 506 OFFCURVE",
"584 514 OFFCURVE",
"580 510 CURVE",
"579 510 LINE SMOOTH",
"553 505 OFFCURVE",
"556 475 OFFCURVE",
"552 461 CURVE SMOOTH",
"543 431 OFFCURVE",
"540 416 OFFCURVE",
"534 396 CURVE",
"532 392 OFFCURVE",
"531 387 OFFCURVE",
"529 382 CURVE SMOOTH",
"502 309 OFFCURVE",
"433 170 OFFCURVE",
"387 115 CURVE SMOOTH",
"282 -8 OFFCURVE",
"187 12 OFFCURVE",
"217 155 CURVE SMOOTH",
"241 274 OFFCURVE",
"301 379 OFFCURVE",
"316 406 CURVE SMOOTH",
"321 415 OFFCURVE",
"326 423 OFFCURVE",
"334 431 CURVE SMOOTH",
"372 471 OFFCURVE",
"303 474 OFFCURVE",
"295 454 CURVE SMOOTH",
"260 362 OFFCURVE",
"220 269 OFFCURVE",
"185 173 CURVE SMOOTH",
"163 114 OFFCURVE",
"140 -12 OFFCURVE",
"241 -12 CURVE SMOOTH",
"327 -12 OFFCURVE",
"424 141 OFFCURVE",
"478 235 CURVE",
"460 188 OFFCURVE",
"442 139 OFFCURVE",
"433 91 CURVE SMOOTH",
"423 39 OFFCURVE",
"428 -5 OFFCURVE",
"470 -11 CURVE SMOOTH",
"505 -16 OFFCURVE",
"580 63 OFFCURVE",
"600 88 CURVE SMOOTH",
"618 109 OFFCURVE",
"634 131 OFFCURVE",
"650 152 CURVE SMOOTH",
"652 155 OFFCURVE",
"651 158 OFFCURVE",
"650 160 CURVE",
"650 161 OFFCURVE",
"649 162 OFFCURVE",
"649 161 CURVE",
"594 94 LINE SMOOTH",
"447 -85 OFFCURVE",
"468 95 OFFCURVE",
"506 220 CURVE SMOOTH",
"532 306 OFFCURVE",
"564 392 OFFCURVE",
"601 473 CURVE",
"609 469 OFFCURVE",
"617 467 OFFCURVE",
"626 468 CURVE SMOOTH",
"659 472 OFFCURVE",
"699 500 OFFCURVE",
"726 557 CURVE SMOOTH",
"749 606 OFFCURVE",
"731 649 OFFCURVE",
"713 602 CURVE SMOOTH"
);
},
{
closed = 1;
nodes = (
"197 450 OFFCURVE",
"285 475 OFFCURVE",
"358 499 CURVE SMOOTH",
"399 513 OFFCURVE",
"393 545 OFFCURVE",
"377 531 CURVE SMOOTH",
"353 509 OFFCURVE",
"256 484 OFFCURVE",
"219 478 CURVE SMOOTH",
"149 466 OFFCURVE",
"23 452 OFFCURVE",
"73 312 CURVE SMOOTH",
"79 293 OFFCURVE",
"90 276 OFFCURVE",
"95 256 CURVE SMOOTH",
"111 195 OFFCURVE",
"70 144 OFFCURVE",
"49 157 CURVE SMOOTH",
"43 161 OFFCURVE",
"40 154 OFFCURVE",
"45 151 CURVE SMOOTH",
"78 130 OFFCURVE",
"144 167 OFFCURVE",
"126 234 CURVE SMOOTH",
"116 269 OFFCURVE",
"82 311 OFFCURVE",
"83 351 CURVE SMOOTH",
"84 389 OFFCURVE",
"107 417 OFFCURVE",
"152 433 CURVE SMOOTH"
);
}
);
width = 554;
}
);
unicode = 01AF;
},
{
glyphname = V;
lastChange = "2021-04-19 06:54:11 +0000";
layers = (
{
hints = (
{
horizontal = 1;
place = "{504, 22}";
type = Stem;
},
{
horizontal = 1;
place = "{610, -20}";
target = down;
type = TopGhost;
},
{
place = "{107, 20}";
type = Stem;
},
{
place = "{339, 41}";
type = Stem;
},
{
place = "{642, 20}";
type = Stem;
}
);
layerId = "C2A7C206-1962-4FAA-88DB-FE8C23752EC9";
paths = (
{
closed = 1;
nodes = (
"421 484 OFFCURVE",
"413 498 OFFCURVE",
"393 492 CURVE SMOOTH",
"368 484 OFFCURVE",
"318 477 OFFCURVE",
"273 473 CURVE",
"273 474 OFFCURVE",
"273 475 OFFCURVE",
"274 476 CURVE",
"277 485 OFFCURVE",
"262 482 OFFCURVE",
"260 473 CURVE SMOOTH",
"260 472 OFFCURVE",
"259 472 OFFCURVE",
"259 471 CURVE",
"250 470 OFFCURVE",
"242 470 OFFCURVE",
"234 470 CURVE SMOOTH",
"129 462 OFFCURVE",
"-30 447 OFFCURVE",
"41 296 CURVE SMOOTH",
"50 276 OFFCURVE",
"65 258 OFFCURVE",
"73 237 CURVE SMOOTH",
"97 171 OFFCURVE",
"31 114 OFFCURVE",
"1 128 CURVE SMOOTH",
"-8 132 OFFCURVE",
"-12 125 OFFCURVE",
"-4 121 CURVE SMOOTH",
"43 99 OFFCURVE",
"126 148 OFFCURVE",
"100 219 CURVE SMOOTH",
"87 257 OFFCURVE",
"49 294 OFFCURVE",
"50 336 CURVE SMOOTH",
"51 377 OFFCURVE",
"84 407 OFFCURVE",
"149 424 CURVE SMOOTH",
"166 429 OFFCURVE",
"205 436 OFFCURVE",
"247 445 CURVE",
"223 405 OFFCURVE",
"193 410 OFFCURVE",
"207 272 CURVE SMOOTH",
"214 201 OFFCURVE",
"246 145 OFFCURVE",
"265 57 CURVE",
"189 -71 OFFCURVE",
"258 -89 OFFCURVE",
"299 -5 CURVE SMOOTH",
"309 17 OFFCURVE",
"314 38 OFFCURVE",
"306 69 CURVE",
"366 153 OFFCURVE",
"661 355 OFFCURVE",
"602 528 CURVE SMOOTH",
"599 536 OFFCURVE",
"585 531 OFFCURVE",
"586 522 CURVE SMOOTH",
"607 363 OFFCURVE",
"394 197 OFFCURVE",
"296 83 CURVE",
"260 193 OFFCURVE",
"230 322 OFFCURVE",
"265 448 CURVE",
"314 458 OFFCURVE",
"365 468 OFFCURVE",
"396 477 CURVE SMOOTH"
);
}
);
width = 424;
}
);
note = V;
unicode = 0056;
},
{
glyphname = W;
lastChange = "2021-04-19 06:54:11 +0000";
layers = (
{
hints = (
{
horizontal = 1;
place = "{-7, 21}";
target = up;
type = BottomGhost;
},
{
horizontal = 1;
place = "{400, 17}";
type = Stem;
},
{
horizontal = 1;
place = "{580, -20}";
target = down;
type = TopGhost;
},
{
horizontal = 1;
place = "{609, -20}";
target = down;
type = TopGhost;
},
{
place = "{286, 48}";
type = Stem;
},
{
place = "{488, 39}";
type = Stem;
}
);
layerId = "C2A7C206-1962-4FAA-88DB-FE8C23752EC9";
paths = (
{
closed = 1;
nodes = (
"200 608 OFFCURVE",
"-92 458 OFFCURVE",
"47 300 CURVE SMOOTH",
"60 284 OFFCURVE",
"75 270 OFFCURVE",
"89 254 CURVE SMOOTH",
"137 202 OFFCURVE",
"111 140 OFFCURVE",
"87 146 CURVE SMOOTH",
"80 147 OFFCURVE",
"79 140 OFFCURVE",
"86 138 CURVE SMOOTH",
"124 129 OFFCURVE",
"170 186 OFFCURVE",
"127 243 CURVE SMOOTH",
"104 273 OFFCURVE",
"56 302 OFFCURVE",
"40 340 CURVE SMOOTH",
"-2 446 OFFCURVE",
"219 584 OFFCURVE",
"263 446 CURVE SMOOTH",
"309 303 OFFCURVE",
"222 115 OFFCURVE",
"169 -8 CURVE SMOOTH",
"162 -25 OFFCURVE",
"199 -27 OFFCURVE",
"216 -7 CURVE",
"226 14 OFFCURVE",
"238 42 OFFCURVE",
"251 74 CURVE",
"286 145 OFFCURVE",
"372 269 OFFCURVE",
"451 339 CURVE SMOOTH",
"538 416 OFFCURVE",
"584 410 OFFCURVE",
"571 279 CURVE SMOOTH",
"563 188 OFFCURVE",
"534 70 OFFCURVE",
"521 52 CURVE SMOOTH",
"513 41 OFFCURVE",
"486 6 OFFCURVE",
"486 -7 CURVE SMOOTH",
"486 -18 OFFCURVE",
"497 -20 OFFCURVE",
"504 -20 CURVE SMOOTH",
"516 -20 OFFCURVE",
"539 -15 OFFCURVE",
"547 -5 CURVE SMOOTH",
"555 5 OFFCURVE",
"559 14 OFFCURVE",
"563 29 CURVE SMOOTH",
"571 62 LINE",
"601 99 OFFCURVE",
"636 138 OFFCURVE",
"655 156 CURVE SMOOTH",
"709 207 OFFCURVE",
"797 277 OFFCURVE",
"850 347 CURVE SMOOTH",
"888 399 OFFCURVE",
"941 498 OFFCURVE",
"859 544 CURVE SMOOTH",
"851 548 OFFCURVE",
"841 541 OFFCURVE",
"849 536 CURVE SMOOTH",
"867 523 OFFCURVE",
"866 490 OFFCURVE",
"861 467 CURVE SMOOTH",
"836 362 OFFCURVE",
"730 257 OFFCURVE",
"645 170 CURVE SMOOTH",
"631 155 OFFCURVE",
"606 133 OFFCURVE",
"583 111 CURVE",
"611 241 OFFCURVE",
"646 459 OFFCURVE",
"569 459 CURVE SMOOTH",
"568 459 LINE SMOOTH",
"504 459 OFFCURVE",
"365 282 OFFCURVE",
"281 159 CURVE",
"316 269 OFFCURVE",
"337 395 OFFCURVE",
"291 467 CURVE SMOOTH"
);
}
);
width = 723;
}
);
note = W;
unicode = 0057;
},
{
glyphname = X;
lastChange = "2021-04-19 06:54:11 +0000";
layers = (
{
hints = (
{
horizontal = 1;
place = "{-20, 62}";
type = Stem;
},
{
horizontal = 1;
place = "{626, -20}";
target = down;
type = TopGhost;
},
{
place = "{-110, 16}";
type = Stem;
},
{
place = "{280, 62}";
type = Stem;
},
{
place = "{379, 54}";
type = Stem;
},
{
place = "{717, 7}";
type = Stem;
}
);
layerId = "C2A7C206-1962-4FAA-88DB-FE8C23752EC9";
paths = (
{
closed = 1;
nodes = (
"668 529 OFFCURVE",
"669 542 OFFCURVE",
"656 536 CURVE SMOOTH",
"625 521 OFFCURVE",
"595 502 OFFCURVE",
"573 476 CURVE SMOOTH",
"516 410 OFFCURVE",
"467 331 OFFCURVE",
"417 259 CURVE",
"381 351 OFFCURVE",
"353 449 OFFCURVE",
"338 500 CURVE",
"366 503 OFFCURVE",
"391 507 OFFCURVE",
"403 514 CURVE SMOOTH",
"417 521 OFFCURVE",
"407 535 OFFCURVE",
"395 527 CURVE SMOOTH",
"384 520 OFFCURVE",
"361 517 OFFCURVE",
"334 515 CURVE",
"333 517 OFFCURVE",
"332 520 OFFCURVE",
"332 522 CURVE",
"327 538 OFFCURVE",
"290 539 OFFCURVE",
"282 524 CURVE",
"282 521 OFFCURVE",
"283 518 OFFCURVE",
"284 515 CURVE",
"265 515 OFFCURVE",
"248 516 OFFCURVE",
"237 517 CURVE SMOOTH",
"167 525 OFFCURVE",
"41 545 OFFCURVE",
"90 391 CURVE SMOOTH",
"97 371 OFFCURVE",
"107 351 OFFCURVE",
"113 330 CURVE SMOOTH",
"129 264 OFFCURVE",
"88 224 OFFCURVE",
"67 243 CURVE SMOOTH",
"61 249 OFFCURVE",
"58 243 OFFCURVE",
"63 238 CURVE SMOOTH",
"96 208 OFFCURVE",
"162 227 OFFCURVE",
"144 299 CURVE SMOOTH",
"134 337 OFFCURVE",
"100 388 OFFCURVE",
"101 428 CURVE SMOOTH",
"102 465 OFFCURVE",
"125 487 OFFCURVE",
"170 491 CURVE SMOOTH",
"192 493 OFFCURVE",
"241 493 OFFCURVE",
"289 496 CURVE",
"298 471 OFFCURVE",
"310 461 OFFCURVE",
"320 461 CURVE",
"331 425 OFFCURVE",
"358 325 OFFCURVE",
"394 226 CURVE",
"335 143 OFFCURVE",
"252 36 OFFCURVE",
"149 29 CURVE SMOOTH",
"91 25 OFFCURVE",
"36 62 OFFCURVE",
"35 180 CURVE SMOOTH",
"35 189 OFFCURVE",
"39 200 OFFCURVE",
"28 193 CURVE",
"-6 102 OFFCURVE",
"28 -20 OFFCURVE",
"140 -14 CURVE SMOOTH",
"241 -9 OFFCURVE",
"327 96 OFFCURVE",
"403 204 CURVE",
"424 148 OFFCURVE",
"448 94 OFFCURVE",
"474 54 CURVE SMOOTH",
"514 -9 OFFCURVE",
"558 -37 OFFCURVE",
"618 18 CURVE SMOOTH",
"650 48 OFFCURVE",
"679 93 OFFCURVE",
"702 124 CURVE SMOOTH",
"706 130 OFFCURVE",
"701 136 OFFCURVE",
"696 130 CURVE SMOOTH",
"646 61 OFFCURVE",
"614 43 OFFCURVE",
"573 43 CURVE SMOOTH",
"519 43 OFFCURVE",
"468 133 OFFCURVE",
"426 237 CURVE",
"463 291 OFFCURVE",
"498 345 OFFCURVE",
"531 383 CURVE SMOOTH",
"545 399 OFFCURVE",
"571 423 OFFCURVE",
"578 423 CURVE SMOOTH",
"607 425 OFFCURVE",
"618 451 OFFCURVE",
"631 480 CURVE SMOOTH",
"639 497 OFFCURVE",
"654 518 OFFCURVE",
"666 527 CURVE SMOOTH"
);
}
);
width = 625;
}
);
note = X;
unicode = 0058;
},
{
glyphname = Y;
lastChange = "2021-04-19 06:54:11 +0000";
layers = (
{
hints = (
{
horizontal = 1;
place = "{-266, 62}";
type = Stem;
},
{
horizontal = 1;
place = "{609, -20}";
target = down;
type = TopGhost;
},
{
place = "{18, 9}";
type = Stem;
}
);
layerId = "C2A7C206-1962-4FAA-88DB-FE8C23752EC9";
paths = (
{
closed = 1;
nodes = (
"582 490 OFFCURVE",
"589 502 OFFCURVE",
"576 497 CURVE SMOOTH",
"526 481 OFFCURVE",
"460 356 OFFCURVE",
"436 310 CURVE SMOOTH",
"401 244 OFFCURVE",
"369 175 OFFCURVE",
"335 109 CURVE",
"339 175 OFFCURVE",
"340 297 OFFCURVE",
"302 390 CURVE SMOOTH",
"207 622 OFFCURVE",
"-95 471 OFFCURVE",
"82 329 CURVE SMOOTH",
"97 317 OFFCURVE",
"120 306 OFFCURVE",
"136 294 CURVE SMOOTH",
"189 252 OFFCURVE",
"187 204 OFFCURVE",
"166 208 CURVE",
"160 210 OFFCURVE",
"162 204 OFFCURVE",
"168 203 CURVE SMOOTH",
"201 196 OFFCURVE",
"230 240 OFFCURVE",
"179 285 CURVE SMOOTH",
"152 309 OFFCURVE",
"106 331 OFFCURVE",
"82 361 CURVE SMOOTH",
"39 417 OFFCURVE",
"69 486 OFFCURVE",
"126 492 CURVE SMOOTH",
"203 500 OFFCURVE",
"249 432 OFFCURVE",
"271 350 CURVE SMOOTH",
"298 248 OFFCURVE",
"288 122 OFFCURVE",
"279 64 CURVE SMOOTH",
"277 55 OFFCURVE",
"302 65 OFFCURVE",
"319 78 CURVE",
"284 13 OFFCURVE",
"246 -48 OFFCURVE",
"200 -103 CURVE SMOOTH",
"142 -169 OFFCURVE",
"78 -220 OFFCURVE",
"29 -227 CURVE SMOOTH",
"-44 -238 OFFCURVE",
"-114 -215 OFFCURVE",
"-129 -69 CURVE SMOOTH",
"-131 -58 OFFCURVE",
"-127 -43 OFFCURVE",
"-140 -55 CURVE",
"-168 -163 OFFCURVE",
"-117 -289 OFFCURVE",
"-10 -290 CURVE SMOOTH",
"83 -291 OFFCURVE",
"164 -209 OFFCURVE",
"226 -119 CURVE SMOOTH",
"281 -38 OFFCURVE",
"492 388 OFFCURVE",
"534 416 CURVE SMOOTH",
"585 449 OFFCURVE",
"559 465 OFFCURVE",
"580 487 CURVE"
);
}
);
width = 388;
}
);
note = Y;
unicode = 0059;
},
{
glyphname = Ydieresis;
lastChange = "2021-04-19 06:54:11 +0000";
layers = (
{
hints = (
{
horizontal = 1;
place = "{-266, 62}";
type = Stem;
},
{
horizontal = 1;
place = "{609, -20}";
target = down;
type = TopGhost;
},
{
place = "{18, 9}";
type = Stem;
}
);
layerId = "C2A7C206-1962-4FAA-88DB-FE8C23752EC9";
paths = (
{
closed = 1;
nodes = (
"582 490 OFFCURVE",
"589 502 OFFCURVE",
"576 497 CURVE SMOOTH",
"526 481 OFFCURVE",
"460 356 OFFCURVE",
"436 310 CURVE SMOOTH",
"401 244 OFFCURVE",
"369 175 OFFCURVE",
"335 109 CURVE",
"339 175 OFFCURVE",
"340 297 OFFCURVE",
"302 390 CURVE SMOOTH",
"207 622 OFFCURVE",
"-95 471 OFFCURVE",
"82 329 CURVE SMOOTH",
"97 317 OFFCURVE",
"120 306 OFFCURVE",
"136 294 CURVE SMOOTH",
"189 252 OFFCURVE",
"187 204 OFFCURVE",
"166 208 CURVE",
"160 210 OFFCURVE",
"162 204 OFFCURVE",
"168 203 CURVE SMOOTH",
"201 196 OFFCURVE",
"230 240 OFFCURVE",
"179 285 CURVE SMOOTH",
"152 309 OFFCURVE",
"106 331 OFFCURVE",
"82 361 CURVE SMOOTH",
"39 417 OFFCURVE",
"69 486 OFFCURVE",
"126 492 CURVE SMOOTH",
"203 500 OFFCURVE",
"249 432 OFFCURVE",
"271 350 CURVE SMOOTH",
"298 248 OFFCURVE",
"288 122 OFFCURVE",
"279 64 CURVE SMOOTH",
"277 55 OFFCURVE",
"302 65 OFFCURVE",
"319 78 CURVE",
"284 13 OFFCURVE",
"246 -48 OFFCURVE",
"200 -103 CURVE SMOOTH",
"142 -169 OFFCURVE",
"78 -220 OFFCURVE",
"29 -227 CURVE SMOOTH",
"-44 -238 OFFCURVE",
"-114 -215 OFFCURVE",
"-129 -69 CURVE SMOOTH",
"-131 -58 OFFCURVE",
"-127 -43 OFFCURVE",
"-140 -55 CURVE",
"-168 -163 OFFCURVE",
"-117 -289 OFFCURVE",
"-10 -290 CURVE SMOOTH",
"83 -291 OFFCURVE",
"164 -209 OFFCURVE",
"226 -119 CURVE SMOOTH",
"281 -38 OFFCURVE",
"492 388 OFFCURVE",
"534 416 CURVE SMOOTH",
"585 449 OFFCURVE",
"559 465 OFFCURVE",
"580 487 CURVE"
);
},
{
closed = 1;
nodes = (
"399 589 OFFCURVE",
"397 591 OFFCURVE",
"393 591 CURVE SMOOTH",
"383 591 OFFCURVE",
"373 586 OFFCURVE",
"361 578 CURVE SMOOTH",
"350 569 OFFCURVE",
"342 560 OFFCURVE",
"340 550 CURVE SMOOTH",
"336 536 OFFCURVE",
"337 527 OFFCURVE",
"347 527 CURVE SMOOTH",
"363 527 OFFCURVE",
"373 533 OFFCURVE",
"377 545 CURVE SMOOTH",
"378 549 OFFCURVE",
"381 555 OFFCURVE",
"387 564 CURVE SMOOTH",
"393 574 OFFCURVE",
"397 582 OFFCURVE",
"398 587 CURVE"
);
},
{
closed = 1;
nodes = (
"496 589 OFFCURVE",
"495 591 OFFCURVE",
"490 591 CURVE SMOOTH",
"481 591 OFFCURVE",
"470 586 OFFCURVE",
"459 578 CURVE SMOOTH",
"447 569 OFFCURVE",
"440 560 OFFCURVE",
"437 550 CURVE SMOOTH",
"433 536 OFFCURVE",
"435 527 OFFCURVE",
"445 527 CURVE SMOOTH",
"460 527 OFFCURVE",
"471 533 OFFCURVE",
"474 545 CURVE SMOOTH",
"475 549 OFFCURVE",
"479 555 OFFCURVE",
"484 564 CURVE SMOOTH",
"490 574 OFFCURVE",
"494 582 OFFCURVE",
"496 587 CURVE"
);
}
);
width = 388;
}
);
note = Ydieresis;
unicode = 0178;
},
{
glyphname = Z;
lastChange = "2021-04-19 06:54:11 +0000";
layers = (
{
hints = (
{
horizontal = 1;
place = "{-5, 21}";
target = up;
type = BottomGhost;
},
{
horizontal = 1;
place = "{216, 42}";
type = Stem;
},
{
horizontal = 1;
place = "{612, -20}";
target = down;
type = TopGhost;
},
{
place = "{119, 26}";
type = Stem;
},
{
place = "{163, 19}";
type = Stem;
}
);
layerId = "C2A7C206-1962-4FAA-88DB-FE8C23752EC9";
paths = (
{
closed = 1;
nodes = (
"568 95 OFFCURVE",
"557 97 OFFCURVE",
"562 73 CURVE SMOOTH",
"575 18 OFFCURVE",
"510 -49 OFFCURVE",
"383 -24 CURVE SMOOTH",
"291 -7 OFFCURVE",
"192 41 OFFCURVE",
"113 71 CURVE",
"156 118 OFFCURVE",
"202 165 OFFCURVE",
"250 212 CURVE",
"274 214 OFFCURVE",
"418 239 OFFCURVE",
"389 187 CURVE SMOOTH",
"384 178 OFFCURVE",
"391 176 OFFCURVE",
"395 185 CURVE SMOOTH",
"405 202 OFFCURVE",
"403 232 OFFCURVE",
"375 239 CURVE SMOOTH",
"350 244 OFFCURVE",
"319 246 OFFCURVE",
"285 246 CURVE",
"344 302 OFFCURVE",
"404 358 OFFCURVE",
"465 412 CURVE SMOOTH",
"500 442 OFFCURVE",
"512 460 OFFCURVE",
"552 483 CURVE SMOOTH",
"564 490 OFFCURVE",
"573 507 OFFCURVE",
"573 517 CURVE SMOOTH",
"573 535 OFFCURVE",
"565 537 OFFCURVE",
"557 537 CURVE SMOOTH",
"548 537 OFFCURVE",
"539 531 OFFCURVE",
"533 524 CURVE SMOOTH",
"507 499 OFFCURVE",
"452 483 OFFCURVE",
"438 444 CURVE",
"237 462 OFFCURVE",
"-34 675 OFFCURVE",
"128 278 CURVE SMOOTH",
"131 271 OFFCURVE",
"142 274 OFFCURVE",
"140 281 CURVE SMOOTH",
"74 509 OFFCURVE",
"161 477 OFFCURVE",
"310 448 CURVE SMOOTH",
"342 441 OFFCURVE",
"400 431 OFFCURVE",
"435 428 CURVE",
"435 425 LINE SMOOTH",
"435 419 OFFCURVE",
"353 336 OFFCURVE",
"262 246 CURVE",
"235 245 OFFCURVE",
"208 241 OFFCURVE",
"187 240 CURVE SMOOTH",
"177 240 OFFCURVE",
"161 229 OFFCURVE",
"154 219 CURVE SMOOTH",
"149 211 OFFCURVE",
"142 196 OFFCURVE",
"165 197 CURVE SMOOTH",
"174 197 OFFCURVE",
"187 200 OFFCURVE",
"202 203 CURVE SMOOTH",
"209 204 OFFCURVE",
"216 206 OFFCURVE",
"224 208 CURVE",
"94 78 LINE",
"63 88 LINE SMOOTH",
"46 93 OFFCURVE",
"30 94 OFFCURVE",
"17 91 CURVE SMOOTH",
"-41 79 OFFCURVE",
"-8 29 OFFCURVE",
"18 3 CURVE",
"16 1 OFFCURVE",
"10 -4 OFFCURVE",
"9 -6 CURVE",
"-9 -29 OFFCURVE",
"2 -59 OFFCURVE",
"24 -33 CURVE SMOOTH",
"39 -14 LINE",
"51 -22 LINE SMOOTH",
"61 -28 OFFCURVE",
"63 -19 OFFCURVE",
"57 -14 CURVE SMOOTH",
"54 -11 OFFCURVE",
"50 -9 OFFCURVE",
"46 -5 CURVE",
"87 41 LINE",
"213 -10 OFFCURVE",
"367 -93 OFFCURVE",
"485 -62 CURVE SMOOTH",
"547 -45 OFFCURVE",
"594 38 OFFCURVE",
"573 83 CURVE SMOOTH"
);
},
{
closed = 1;
nodes = (
"26 11 LINE",
"1 37 OFFCURVE",
"-1 72 OFFCURVE",
"38 61 CURVE",
"47 57 OFFCURVE",
"57 54 OFFCURVE",
"65 50 CURVE"
);
}
);
width = 577;
}
);
note = Z;
unicode = 005A;
},
{
glyphname = a;
lastChange = "2021-04-19 06:54:11 +0000";
layers = (
{
hints = (
{
horizontal = 1;
place = "{237, 35}";
type = Stem;
}
);
layerId = "C2A7C206-1962-4FAA-88DB-FE8C23752EC9";
paths = (
{
closed = 1;
nodes = (
"404 172 OFFCURVE",
"403 174 OFFCURVE",
"403 173 CURVE",
"374 133 OFFCURVE",
"330 76 OFFCURVE",
"283 41 CURVE SMOOTH",
"266 28 OFFCURVE",
"248 18 OFFCURVE",
"239 26 CURVE SMOOTH",
"216 45 OFFCURVE",
"261 161 OFFCURVE",
"276 182 CURVE",
"276 184 OFFCURVE",
"273 183 OFFCURVE",
"270 183 CURVE",
"249 178 LINE SMOOTH",
"234 173 OFFCURVE",
"220 166 OFFCURVE",
"217 164 CURVE",
"204 146 OFFCURVE",
"165 97 OFFCURVE",
"127 62 CURVE SMOOTH",
"109 46 OFFCURVE",
"73 16 OFFCURVE",
"69 62 CURVE SMOOTH",
"67 88 OFFCURVE",
"83 129 OFFCURVE",
"111 165 CURVE SMOOTH",
"147 212 OFFCURVE",
"206 250 OFFCURVE",
"265 233 CURVE SMOOTH",
"281 228 OFFCURVE",
"293 211 OFFCURVE",
"294 198 CURVE",
"294 198 OFFCURVE",
"295 195 OFFCURVE",
"299 199 CURVE SMOOTH",
"303 202 OFFCURVE",
"307 210 OFFCURVE",
"308 223 CURVE SMOOTH",
"311 254 OFFCURVE",
"290 271 OFFCURVE",
"261 272 CURVE SMOOTH",
"200 277 OFFCURVE",
"136 217 OFFCURVE",
"100 172 CURVE SMOOTH",
"74 139 OFFCURVE",
"49 102 OFFCURVE",
"36 73 CURVE SMOOTH",
"8 11 OFFCURVE",
"8 -33 OFFCURVE",
"82 15 CURVE SMOOTH",
"104 29 OFFCURVE",
"128 50 OFFCURVE",
"149 70 CURVE SMOOTH",
"171 91 OFFCURVE",
"190 112 OFFCURVE",
"211 135 CURVE",
"203 109 OFFCURVE",
"193 84 OFFCURVE",
"190 57 CURVE SMOOTH",
"178 -30 OFFCURVE",
"228 -21 OFFCURVE",
"287 27 CURVE SMOOTH",
"309 45 OFFCURVE",
"330 68 OFFCURVE",
"350 91 CURVE SMOOTH",
"369 115 OFFCURVE",
"388 140 OFFCURVE",
"405 163 CURVE SMOOTH",
"407 166 OFFCURVE",
"406 169 OFFCURVE",
"405 171 CURVE SMOOTH"
);
}
);
width = 300;
}
);
note = a;
unicode = 0061;
},
{
glyphname = aacute;
lastChange = "2021-04-19 06:54:11 +0000";
layers = (
{
hints = (
{
horizontal = 1;
place = "{237, 35}";
type = Stem;
}
);
layerId = "C2A7C206-1962-4FAA-88DB-FE8C23752EC9";
paths = (
{
closed = 1;
nodes = (
"404 172 OFFCURVE",
"403 174 OFFCURVE",
"403 173 CURVE",
"374 133 OFFCURVE",
"330 76 OFFCURVE",
"283 41 CURVE SMOOTH",
"266 28 OFFCURVE",
"248 18 OFFCURVE",
"239 26 CURVE SMOOTH",
"216 45 OFFCURVE",
"261 161 OFFCURVE",
"276 182 CURVE",
"276 184 OFFCURVE",
"273 183 OFFCURVE",
"270 183 CURVE",
"249 178 LINE SMOOTH",
"234 173 OFFCURVE",
"220 166 OFFCURVE",
"217 164 CURVE",
"204 146 OFFCURVE",
"165 97 OFFCURVE",
"127 62 CURVE SMOOTH",
"109 46 OFFCURVE",
"73 16 OFFCURVE",
"69 62 CURVE SMOOTH",
"67 88 OFFCURVE",
"83 129 OFFCURVE",
"111 165 CURVE SMOOTH",
"147 212 OFFCURVE",
"206 250 OFFCURVE",
"265 233 CURVE SMOOTH",
"281 228 OFFCURVE",
"293 211 OFFCURVE",
"294 198 CURVE",
"294 198 OFFCURVE",
"295 195 OFFCURVE",
"299 199 CURVE SMOOTH",
"303 202 OFFCURVE",
"307 210 OFFCURVE",
"308 223 CURVE SMOOTH",
"311 254 OFFCURVE",
"290 271 OFFCURVE",
"261 272 CURVE SMOOTH",
"200 277 OFFCURVE",
"136 217 OFFCURVE",
"100 172 CURVE SMOOTH",
"74 139 OFFCURVE",
"49 102 OFFCURVE",
"36 73 CURVE SMOOTH",
"8 11 OFFCURVE",
"8 -33 OFFCURVE",
"82 15 CURVE SMOOTH",
"104 29 OFFCURVE",
"128 50 OFFCURVE",
"149 70 CURVE SMOOTH",
"171 91 OFFCURVE",
"190 112 OFFCURVE",
"211 135 CURVE",
"203 109 OFFCURVE",
"193 84 OFFCURVE",
"190 57 CURVE SMOOTH",
"178 -30 OFFCURVE",
"228 -21 OFFCURVE",
"287 27 CURVE SMOOTH",
"309 45 OFFCURVE",
"330 68 OFFCURVE",
"350 91 CURVE SMOOTH",
"369 115 OFFCURVE",
"388 140 OFFCURVE",
"405 163 CURVE SMOOTH",
"407 166 OFFCURVE",
"406 169 OFFCURVE",
"405 171 CURVE SMOOTH"
);
},
{
closed = 1;
nodes = (
"396 414 OFFCURVE",
"392 421 OFFCURVE",
"380 421 CURVE SMOOTH",
"376 421 OFFCURVE",
"373 420 OFFCURVE",
"369 418 CURVE",
"351 404 OFFCURVE",
"252 330 OFFCURVE",
"248 317 CURVE SMOOTH",
"247 314 OFFCURVE",
"249 313 OFFCURVE",
"251 313 CURVE SMOOTH",
"253 313 LINE",
"265 316 OFFCURVE",
"282 324 OFFCURVE",
"304 339 CURVE SMOOTH",
"320 349 OFFCURVE",
"336 360 OFFCURVE",
"352 371 CURVE SMOOTH",
"385 391 LINE SMOOTH",
"389 393 OFFCURVE",
"391 396 OFFCURVE",
"392 400 CURVE SMOOTH"
);
}
);
width = 300;
}
);
note = aacute;
unicode = 00E1;
},
{
glyphname = acircumflex;
lastChange = "2021-04-19 06:54:11 +0000";
layers = (
{
hints = (
{
horizontal = 1;
place = "{237, 35}";
type = Stem;
}
);
layerId = "C2A7C206-1962-4FAA-88DB-FE8C23752EC9";
paths = (
{
closed = 1;
nodes = (
"404 172 OFFCURVE",
"403 174 OFFCURVE",
"403 173 CURVE",
"374 133 OFFCURVE",
"330 76 OFFCURVE",
"283 41 CURVE SMOOTH",
"266 28 OFFCURVE",
"248 18 OFFCURVE",
"239 26 CURVE SMOOTH",
"216 45 OFFCURVE",
"261 161 OFFCURVE",
"276 182 CURVE",
"276 184 OFFCURVE",
"273 183 OFFCURVE",
"270 183 CURVE",
"249 178 LINE SMOOTH",
"234 173 OFFCURVE",
"220 166 OFFCURVE",
"217 164 CURVE",
"204 146 OFFCURVE",
"165 97 OFFCURVE",
"127 62 CURVE SMOOTH",
"109 46 OFFCURVE",
"73 16 OFFCURVE",
"69 62 CURVE SMOOTH",
"67 88 OFFCURVE",
"83 129 OFFCURVE",
"111 165 CURVE SMOOTH",
"147 212 OFFCURVE",
"206 250 OFFCURVE",
"265 233 CURVE SMOOTH",
"281 228 OFFCURVE",
"293 211 OFFCURVE",
"294 198 CURVE",
"294 198 OFFCURVE",
"295 195 OFFCURVE",
"299 199 CURVE SMOOTH",
"303 202 OFFCURVE",
"307 210 OFFCURVE",
"308 223 CURVE SMOOTH",
"311 254 OFFCURVE",
"290 271 OFFCURVE",
"261 272 CURVE SMOOTH",
"200 277 OFFCURVE",
"136 217 OFFCURVE",
"100 172 CURVE SMOOTH",
"74 139 OFFCURVE",
"49 102 OFFCURVE",
"36 73 CURVE SMOOTH",
"8 11 OFFCURVE",
"8 -33 OFFCURVE",
"82 15 CURVE SMOOTH",
"104 29 OFFCURVE",
"128 50 OFFCURVE",
"149 70 CURVE SMOOTH",
"171 91 OFFCURVE",
"190 112 OFFCURVE",
"211 135 CURVE",
"203 109 OFFCURVE",
"193 84 OFFCURVE",
"190 57 CURVE SMOOTH",
"178 -30 OFFCURVE",
"228 -21 OFFCURVE",
"287 27 CURVE SMOOTH",
"309 45 OFFCURVE",
"330 68 OFFCURVE",
"350 91 CURVE SMOOTH",
"369 115 OFFCURVE",
"388 140 OFFCURVE",
"405 163 CURVE SMOOTH",
"407 166 OFFCURVE",
"406 169 OFFCURVE",
"405 171 CURVE SMOOTH"
);
},
{
closed = 1;
nodes = (
"328 308 OFFCURVE",
"326 334 OFFCURVE",
"323 383 CURVE SMOOTH",
"323 384 OFFCURVE",
"320 386 OFFCURVE",
"314 386 CURVE SMOOTH",
"309 386 OFFCURVE",
"302 385 OFFCURVE",
"293 384 CURVE",
"210 335 OFFCURVE",
"167 310 OFFCURVE",
"165 308 CURVE",
"165 303 OFFCURVE",
"169 303 OFFCURVE",
"173 303 CURVE SMOOTH",
"177 303 OFFCURVE",
"217 321 OFFCURVE",
"291 355 CURVE",
"308 307 LINE",
"311 304 OFFCURVE",
"314 303 OFFCURVE",
"319 303 CURVE SMOOTH",
"324 303 OFFCURVE",
"327 305 OFFCURVE",
"327 307 CURVE"
);
}
);
width = 300;
}
);
note = acircumflex;
unicode = 00E2;
},
{
glyphname = adieresis;
lastChange = "2021-04-19 06:54:11 +0000";
layers = (
{
hints = (
{
horizontal = 1;
place = "{237, 35}";
type = Stem;
}
);
layerId = "C2A7C206-1962-4FAA-88DB-FE8C23752EC9";
paths = (
{
closed = 1;
nodes = (
"404 172 OFFCURVE",
"403 174 OFFCURVE",
"403 173 CURVE",
"374 133 OFFCURVE",
"330 76 OFFCURVE",
"283 41 CURVE SMOOTH",
"266 28 OFFCURVE",
"248 18 OFFCURVE",
"239 26 CURVE SMOOTH",
"216 45 OFFCURVE",
"261 161 OFFCURVE",
"276 182 CURVE",
"276 184 OFFCURVE",
"273 183 OFFCURVE",
"270 183 CURVE",
"249 178 LINE SMOOTH",
"234 173 OFFCURVE",
"220 166 OFFCURVE",
"217 164 CURVE",
"204 146 OFFCURVE",
"165 97 OFFCURVE",
"127 62 CURVE SMOOTH",
"109 46 OFFCURVE",
"73 16 OFFCURVE",
"69 62 CURVE SMOOTH",
"67 88 OFFCURVE",
"83 129 OFFCURVE",
"111 165 CURVE SMOOTH",
"147 212 OFFCURVE",
"206 250 OFFCURVE",
"265 233 CURVE SMOOTH",
"281 228 OFFCURVE",
"293 211 OFFCURVE",
"294 198 CURVE",
"294 198 OFFCURVE",
"295 195 OFFCURVE",
"299 199 CURVE SMOOTH",
"303 202 OFFCURVE",
"307 210 OFFCURVE",
"308 223 CURVE SMOOTH",
"311 254 OFFCURVE",
"290 271 OFFCURVE",
"261 272 CURVE SMOOTH",
"200 277 OFFCURVE",
"136 217 OFFCURVE",
"100 172 CURVE SMOOTH",
"74 139 OFFCURVE",
"49 102 OFFCURVE",
"36 73 CURVE SMOOTH",
"8 11 OFFCURVE",
"8 -33 OFFCURVE",
"82 15 CURVE SMOOTH",
"104 29 OFFCURVE",
"128 50 OFFCURVE",
"149 70 CURVE SMOOTH",
"171 91 OFFCURVE",
"190 112 OFFCURVE",
"211 135 CURVE",
"203 109 OFFCURVE",
"193 84 OFFCURVE",
"190 57 CURVE SMOOTH",
"178 -30 OFFCURVE",
"228 -21 OFFCURVE",
"287 27 CURVE SMOOTH",
"309 45 OFFCURVE",
"330 68 OFFCURVE",
"350 91 CURVE SMOOTH",
"369 115 OFFCURVE",
"388 140 OFFCURVE",
"405 163 CURVE SMOOTH",
"407 166 OFFCURVE",
"406 169 OFFCURVE",
"405 171 CURVE SMOOTH"
);
},
{
closed = 1;
nodes = (
"347 389 OFFCURVE",
"344 390 OFFCURVE",
"342 390 CURVE SMOOTH",
"332 390 OFFCURVE",
"321 386 OFFCURVE",
"310 377 CURVE SMOOTH",
"298 368 OFFCURVE",
"291 359 OFFCURVE",
"288 349 CURVE SMOOTH",
"284 335 OFFCURVE",
"286 326 OFFCURVE",
"296 326 CURVE SMOOTH",
"311 326 OFFCURVE",
"322 332 OFFCURVE",
"326 344 CURVE SMOOTH",
"327 348 OFFCURVE",
"330 354 OFFCURVE",
"335 364 CURVE SMOOTH",
"341 373 OFFCURVE",
"344 381 OFFCURVE",
"346 385 CURVE SMOOTH"
);
},
{
closed = 1;
nodes = (
"249 389 OFFCURVE",
"247 390 OFFCURVE",
"244 390 CURVE SMOOTH",
"234 390 OFFCURVE",
"224 386 OFFCURVE",
"212 377 CURVE SMOOTH",
"201 368 OFFCURVE",
"194 359 OFFCURVE",
"191 349 CURVE SMOOTH",
"187 335 OFFCURVE",
"188 326 OFFCURVE",
"198 326 CURVE SMOOTH",
"214 326 OFFCURVE",
"225 332 OFFCURVE",
"228 344 CURVE SMOOTH",
"229 348 OFFCURVE",
"232 354 OFFCURVE",
"238 364 CURVE SMOOTH",
"243 373 OFFCURVE",
"247 381 OFFCURVE",
"248 385 CURVE SMOOTH"
);
}
);
width = 300;
}
);
note = adieresis;
unicode = 00E4;
},
{
glyphname = agrave;
lastChange = "2021-04-19 06:54:11 +0000";
layers = (
{
hints = (
{
horizontal = 1;
place = "{237, 35}";
type = Stem;
}
);
layerId = "C2A7C206-1962-4FAA-88DB-FE8C23752EC9";
paths = (
{
closed = 1;
nodes = (
"404 172 OFFCURVE",
"403 174 OFFCURVE",
"403 173 CURVE",
"374 133 OFFCURVE",
"330 76 OFFCURVE",
"283 41 CURVE SMOOTH",
"266 28 OFFCURVE",
"248 18 OFFCURVE",
"239 26 CURVE SMOOTH",
"216 45 OFFCURVE",
"261 161 OFFCURVE",
"276 182 CURVE",
"276 184 OFFCURVE",
"273 183 OFFCURVE",
"270 183 CURVE",
"249 178 LINE SMOOTH",
"234 173 OFFCURVE",
"220 166 OFFCURVE",
"217 164 CURVE",
"204 146 OFFCURVE",
"165 97 OFFCURVE",
"127 62 CURVE SMOOTH",
"109 46 OFFCURVE",
"73 16 OFFCURVE",
"69 62 CURVE SMOOTH",
"67 88 OFFCURVE",
"83 129 OFFCURVE",
"111 165 CURVE SMOOTH",
"147 212 OFFCURVE",
"206 250 OFFCURVE",
"265 233 CURVE SMOOTH",
"281 228 OFFCURVE",
"293 211 OFFCURVE",
"294 198 CURVE",
"294 198 OFFCURVE",
"295 195 OFFCURVE",
"299 199 CURVE SMOOTH",
"303 202 OFFCURVE",
"307 210 OFFCURVE",
"308 223 CURVE SMOOTH",
"311 254 OFFCURVE",
"290 271 OFFCURVE",
"261 272 CURVE SMOOTH",
"200 277 OFFCURVE",
"136 217 OFFCURVE",
"100 172 CURVE SMOOTH",
"74 139 OFFCURVE",
"49 102 OFFCURVE",
"36 73 CURVE SMOOTH",
"8 11 OFFCURVE",
"8 -33 OFFCURVE",
"82 15 CURVE SMOOTH",
"104 29 OFFCURVE",
"128 50 OFFCURVE",
"149 70 CURVE SMOOTH",
"171 91 OFFCURVE",
"190 112 OFFCURVE",
"211 135 CURVE",
"203 109 OFFCURVE",
"193 84 OFFCURVE",
"190 57 CURVE SMOOTH",
"178 -30 OFFCURVE",
"228 -21 OFFCURVE",
"287 27 CURVE SMOOTH",
"309 45 OFFCURVE",
"330 68 OFFCURVE",
"350 91 CURVE SMOOTH",
"369 115 OFFCURVE",
"388 140 OFFCURVE",
"405 163 CURVE SMOOTH",
"407 166 OFFCURVE",
"406 169 OFFCURVE",
"405 171 CURVE SMOOTH"
);
},
{
closed = 1;
nodes = (
"148 398 OFFCURVE",
"152 393 OFFCURVE",
"158 390 CURVE SMOOTH",
"168 384 OFFCURVE",
"183 375 OFFCURVE",
"204 361 CURVE SMOOTH",
"287 308 OFFCURVE",
"292 305 OFFCURVE",
"302 305 CURVE SMOOTH",
"304 305 OFFCURVE",
"306 306 OFFCURVE",
"306 309 CURVE",
"303 317 OFFCURVE",
"314 313 OFFCURVE",
"263 352 CURVE SMOOTH",
"219 385 OFFCURVE",
"188 407 OFFCURVE",
"169 420 CURVE SMOOTH",
"164 423 OFFCURVE",
"159 425 OFFCURVE",
"155 426 CURVE SMOOTH",
"143 427 OFFCURVE",
"140 414 OFFCURVE",
"146 402 CURVE SMOOTH"
);
}
);
width = 300;
}
);
note = agrave;
unicode = 00E0;
},
{
glyphname = aring;
lastChange = "2021-04-19 06:54:11 +0000";
layers = (
{
hints = (
{
horizontal = 1;
place = "{237, 35}";
type = Stem;
},
{
horizontal = 1;
place = "{399, 12}";
type = Stem;
}
);
layerId = "C2A7C206-1962-4FAA-88DB-FE8C23752EC9";
paths = (
{
closed = 1;
nodes = (
"404 172 OFFCURVE",
"403 174 OFFCURVE",
"403 173 CURVE",
"374 133 OFFCURVE",
"330 76 OFFCURVE",
"283 41 CURVE SMOOTH",
"266 28 OFFCURVE",
"248 18 OFFCURVE",
"239 26 CURVE SMOOTH",
"216 45 OFFCURVE",
"261 161 OFFCURVE",
"276 182 CURVE",
"276 184 OFFCURVE",
"273 183 OFFCURVE",
"270 183 CURVE",
"249 178 LINE SMOOTH",
"234 173 OFFCURVE",
"220 166 OFFCURVE",
"217 164 CURVE",
"204 146 OFFCURVE",
"165 97 OFFCURVE",
"127 62 CURVE SMOOTH",
"109 46 OFFCURVE",
"73 16 OFFCURVE",
"69 62 CURVE SMOOTH",
"67 88 OFFCURVE",
"83 129 OFFCURVE",
"111 165 CURVE SMOOTH",
"147 212 OFFCURVE",
"206 250 OFFCURVE",
"265 233 CURVE SMOOTH",
"281 228 OFFCURVE",
"293 211 OFFCURVE",
"294 198 CURVE",
"294 198 OFFCURVE",
"295 195 OFFCURVE",
"299 199 CURVE SMOOTH",
"303 202 OFFCURVE",
"307 210 OFFCURVE",
"308 223 CURVE SMOOTH",
"311 254 OFFCURVE",
"290 271 OFFCURVE",
"261 272 CURVE SMOOTH",
"200 277 OFFCURVE",
"136 217 OFFCURVE",
"100 172 CURVE SMOOTH",
"74 139 OFFCURVE",
"49 102 OFFCURVE",
"36 73 CURVE SMOOTH",
"8 11 OFFCURVE",
"8 -33 OFFCURVE",
"82 15 CURVE SMOOTH",
"104 29 OFFCURVE",
"128 50 OFFCURVE",
"149 70 CURVE SMOOTH",
"171 91 OFFCURVE",
"190 112 OFFCURVE",
"211 135 CURVE",
"203 109 OFFCURVE",
"193 84 OFFCURVE",
"190 57 CURVE SMOOTH",
"178 -30 OFFCURVE",
"228 -21 OFFCURVE",
"287 27 CURVE SMOOTH",
"309 45 OFFCURVE",
"330 68 OFFCURVE",
"350 91 CURVE SMOOTH",
"369 115 OFFCURVE",
"388 140 OFFCURVE",
"405 163 CURVE SMOOTH",
"407 166 OFFCURVE",
"406 169 OFFCURVE",
"405 171 CURVE SMOOTH"
);
},
{
closed = 1;
nodes = (
"225 289 OFFCURVE",
"326 287 OFFCURVE",
"350 372 CURVE SMOOTH",
"357 397 OFFCURVE",
"346 411 OFFCURVE",
"324 411 CURVE SMOOTH",
"308 411 OFFCURVE",
"293 403 OFFCURVE",
"281 388 CURVE",
"261 381 OFFCURVE",
"242 350 OFFCURVE",
"237 333 CURVE SMOOTH"
);
},
{
closed = 1;
nodes = (
"325 349 OFFCURVE",
"308 334 OFFCURVE",
"288 323 CURVE SMOOTH",
"279 318 OFFCURVE",
"259 315 OFFCURVE",
"264 331 CURVE SMOOTH",
"266 341 OFFCURVE",
"272 351 OFFCURVE",
"281 360 CURVE SMOOTH",
"293 373 OFFCURVE",
"301 381 OFFCURVE",
"305 387 CURVE",
"299 391 LINE",
"308 396 OFFCURVE",
"315 399 OFFCURVE",
"320 399 CURVE SMOOTH",
"329 399 OFFCURVE",
"337 391 OFFCURVE",
"332 372 CURVE SMOOTH"
);
}
);
width = 300;
}
);
note = aring;
unicode = 00E5;
},
{
glyphname = atilde;
lastChange = "2021-04-19 06:54:11 +0000";
layers = (
{
hints = (
{
horizontal = 1;
place = "{237, 35}";
type = Stem;
}
);
layerId = "C2A7C206-1962-4FAA-88DB-FE8C23752EC9";
paths = (
{
closed = 1;
nodes = (
"404 172 OFFCURVE",
"403 174 OFFCURVE",
"403 173 CURVE",
"374 133 OFFCURVE",
"330 76 OFFCURVE",
"283 41 CURVE SMOOTH",
"266 28 OFFCURVE",
"248 18 OFFCURVE",
"239 26 CURVE SMOOTH",
"216 45 OFFCURVE",
"261 161 OFFCURVE",
"276 182 CURVE",
"276 184 OFFCURVE",
"273 183 OFFCURVE",
"270 183 CURVE",
"249 178 LINE SMOOTH",
"234 173 OFFCURVE",
"220 166 OFFCURVE",
"217 164 CURVE",
"204 146 OFFCURVE",
"165 97 OFFCURVE",
"127 62 CURVE SMOOTH",
"109 46 OFFCURVE",
"73 16 OFFCURVE",
"69 62 CURVE SMOOTH",
"67 88 OFFCURVE",
"83 129 OFFCURVE",
"111 165 CURVE SMOOTH",
"147 212 OFFCURVE",
"206 250 OFFCURVE",
"265 233 CURVE SMOOTH",
"281 228 OFFCURVE",
"293 211 OFFCURVE",
"294 198 CURVE",
"294 198 OFFCURVE",
"295 195 OFFCURVE",
"299 199 CURVE SMOOTH",
"303 202 OFFCURVE",
"307 210 OFFCURVE",
"308 223 CURVE SMOOTH",
"311 254 OFFCURVE",
"290 271 OFFCURVE",
"261 272 CURVE SMOOTH",
"200 277 OFFCURVE",
"136 217 OFFCURVE",
"100 172 CURVE SMOOTH",
"74 139 OFFCURVE",
"49 102 OFFCURVE",
"36 73 CURVE SMOOTH",
"8 11 OFFCURVE",
"8 -33 OFFCURVE",
"82 15 CURVE SMOOTH",
"104 29 OFFCURVE",
"128 50 OFFCURVE",
"149 70 CURVE SMOOTH",
"171 91 OFFCURVE",
"190 112 OFFCURVE",
"211 135 CURVE",
"203 109 OFFCURVE",
"193 84 OFFCURVE",
"190 57 CURVE SMOOTH",
"178 -30 OFFCURVE",
"228 -21 OFFCURVE",
"287 27 CURVE SMOOTH",
"309 45 OFFCURVE",
"330 68 OFFCURVE",
"350 91 CURVE SMOOTH",
"369 115 OFFCURVE",
"388 140 OFFCURVE",
"405 163 CURVE SMOOTH",
"407 166 OFFCURVE",
"406 169 OFFCURVE",
"405 171 CURVE SMOOTH"
);
},
{
closed = 1;
nodes = (
"376 367 OFFCURVE",
"373 369 OFFCURVE",
"367 368 CURVE",
"354 356 OFFCURVE",
"342 350 OFFCURVE",
"329 350 CURVE SMOOTH",
"320 350 OFFCURVE",
"308 353 OFFCURVE",
"292 359 CURVE SMOOTH",
"277 365 OFFCURVE",
"264 368 OFFCURVE",
"254 368 CURVE SMOOTH",
"243 368 OFFCURVE",
"232 365 OFFCURVE",
"221 359 CURVE SMOOTH",
"194 346 OFFCURVE",
"177 334 OFFCURVE",
"173 323 CURVE",
"174 319 LINE",
"186 319 OFFCURVE",
"205 341 OFFCURVE",
"227 341 CURVE SMOOTH",
"236 341 OFFCURVE",
"249 338 OFFCURVE",
"265 330 CURVE SMOOTH",
"280 322 OFFCURVE",
"294 318 OFFCURVE",
"304 318 CURVE SMOOTH",
"312 318 OFFCURVE",
"321 321 OFFCURVE",
"330 326 CURVE SMOOTH",
"356 340 OFFCURVE",
"371 352 OFFCURVE",
"374 363 CURVE"
);
}
);
width = 300;
}
);
note = atilde;
unicode = 00E3;
},
{
glyphname = ae;
lastChange = "2021-04-19 06:54:11 +0000";
layers = (
{
hints = (
{
horizontal = 1;
place = "{-11, 20}";
type = Stem;
},
{
horizontal = 1;
place = "{15, 27}";
type = Stem;
},
{
horizontal = 1;
place = "{118, 50}";
type = Stem;
},
{
horizontal = 1;
place = "{262, -20}";
target = down;
type = TopGhost;
},
{
place = "{150, 26}";
type = Stem;
}
);
layerId = "C2A7C206-1962-4FAA-88DB-FE8C23752EC9";
paths = (
{
closed = 1;
nodes = (
"384 201 OFFCURVE",
"382 202 OFFCURVE",
"380 204 CURVE",
"315 194 LINE",
"322 205 OFFCURVE",
"328 217 OFFCURVE",
"332 229 CURVE SMOOTH",
"337 250 OFFCURVE",
"332 261 OFFCURVE",
"315 261 CURVE SMOOTH",
"310 261 OFFCURVE",
"305 257 OFFCURVE",
"300 252 CURVE",
"298 258 OFFCURVE",
"292 262 OFFCURVE",
"282 262 CURVE SMOOTH",
"276 262 OFFCURVE",
"265 252 OFFCURVE",
"251 236 CURVE",
"248 245 OFFCURVE",
"241 249 OFFCURVE",
"230 249 CURVE SMOOTH",
"201 249 OFFCURVE",
"159 221 OFFCURVE",
"104 168 CURVE SMOOTH",
"51 117 OFFCURVE",
"20 76 OFFCURVE",
"12 46 CURVE SMOOTH",
"6 26 OFFCURVE",
"12 15 OFFCURVE",
"30 15 CURVE SMOOTH",
"55 15 OFFCURVE",
"104 53 OFFCURVE",
"175 126 CURVE",
"168 110 OFFCURVE",
"161 94 OFFCURVE",
"157 77 CURVE SMOOTH",
"140 19 OFFCURVE",
"151 -11 OFFCURVE",
"192 -11 CURVE SMOOTH",
"211 -11 OFFCURVE",
"236 5 OFFCURVE",
"265 38 CURVE SMOOTH",
"276 51 OFFCURVE",
"296 76 OFFCURVE",
"322 113 CURVE SMOOTH",
"325 117 OFFCURVE",
"327 121 OFFCURVE",
"328 124 CURVE",
"328 126 OFFCURVE",
"328 128 OFFCURVE",
"324 128 CURVE",
"271 67 LINE SMOOTH",
"237 28 OFFCURVE",
"211 9 OFFCURVE",
"192 9 CURVE SMOOTH",
"175 9 OFFCURVE",
"170 28 OFFCURVE",
"183 71 CURVE SMOOTH",
"193 108 OFFCURVE",
"202 128 OFFCURVE",
"209 134 CURVE SMOOTH",
"218 142 OFFCURVE",
"233 149 OFFCURVE",
"253 156 CURVE",
"239 141 OFFCURVE",
"229 131 OFFCURVE",
"221 125 CURVE",
"219 122 LINE",
"219 119 OFFCURVE",
"222 118 OFFCURVE",
"227 118 CURVE SMOOTH",
"240 118 OFFCURVE",
"257 130 OFFCURVE",
"279 153 CURVE",
"285 158 OFFCURVE",
"290 163 OFFCURVE",
"292 167 CURVE",
"310 177 OFFCURVE",
"332 185 OFFCURVE",
"360 190 CURVE SMOOTH",
"378 194 LINE",
"380 194 OFFCURVE",
"382 196 OFFCURVE",
"384 198 CURVE"
);
},
{
closed = 1;
nodes = (
"222 201 LINE",
"218 200 OFFCURVE",
"214 198 OFFCURVE",
"210 194 CURVE",
"197 173 OFFCURVE",
"172 143 OFFCURVE",
"134 105 CURVE SMOOTH",
"91 62 OFFCURVE",
"62 42 OFFCURVE",
"48 42 CURVE SMOOTH",
"41 42 OFFCURVE",
"39 46 OFFCURVE",
"42 60 CURVE SMOOTH",
"49 84 OFFCURVE",
"69 111 OFFCURVE",
"102 143 CURVE SMOOTH",
"129 170 OFFCURVE",
"158 192 OFFCURVE",
"188 208 CURVE SMOOTH",
"198 214 OFFCURVE",
"210 217 OFFCURVE",
"223 217 CURVE SMOOTH",
"228 217 OFFCURVE",
"231 217 OFFCURVE",
"234 216 CURVE"
);
},
{
closed = 1;
nodes = (
"300 218 OFFCURVE",
"282 188 OFFCURVE",
"274 183 CURVE SMOOTH",
"266 179 OFFCURVE",
"252 173 OFFCURVE",
"231 168 CURVE",
"234 174 OFFCURVE",
"244 186 OFFCURVE",
"262 204 CURVE SMOOTH",
"283 226 OFFCURVE",
"295 235 OFFCURVE",
"299 235 CURVE SMOOTH",
"302 235 OFFCURVE",
"304 233 OFFCURVE",
"302 226 CURVE SMOOTH"
);
}
);
width = 311;
}
);
note = ae;
unicode = 00E6;
},
{
glyphname = b;
lastChange = "2021-04-19 06:54:11 +0000";
layers = (
{
hints = (
{
horizontal = 1;
place = "{-25, 10}";
type = Stem;
},
{
horizontal = 1;
place = "{221, 292}";
type = Stem;
},
{
place = "{57, 59}";
type = Stem;
},
{
place = "{255, 50}";
type = Stem;
}
);
layerId = "C2A7C206-1962-4FAA-88DB-FE8C23752EC9";
paths = (
{
closed = 1;
nodes = (
"288 256 OFFCURVE",
"267 256 OFFCURVE",
"230 238 CURVE SMOOTH",
"180 213 OFFCURVE",
"139 164 OFFCURVE",
"104 112 CURVE",
"104 112 OFFCURVE",
"117 170 OFFCURVE",
"124 185 CURVE SMOOTH",
"218 392 LINE SMOOTH",
"221 399 OFFCURVE",
"237 431 OFFCURVE",
"248 460 CURVE SMOOTH",
"257 488 OFFCURVE",
"264 515 OFFCURVE",
"246 513 CURVE SMOOTH",
"242 513 OFFCURVE",
"228 505 OFFCURVE",
"225 504 CURVE",
"215 498 OFFCURVE",
"203 492 OFFCURVE",
"192 488 CURVE SMOOTH",
"168 479 OFFCURVE",
"134 467 OFFCURVE",
"129 464 CURVE SMOOTH",
"127 463 OFFCURVE",
"124 456 OFFCURVE",
"124 454 CURVE",
"140 461 OFFCURVE",
"161 469 OFFCURVE",
"177 467 CURVE SMOOTH",
"207 461 OFFCURVE",
"190 411 OFFCURVE",
"182 392 CURVE SMOOTH",
"82 155 LINE SMOOTH",
"69 123 OFFCURVE",
"58 89 OFFCURVE",
"57 60 CURVE SMOOTH",
"56 23 OFFCURVE",
"88 3 OFFCURVE",
"116 43 CURVE",
"107 50 OFFCURVE",
"103 71 OFFCURVE",
"110 91 CURVE SMOOTH",
"124 135 OFFCURVE",
"167 184 OFFCURVE",
"207 209 CURVE SMOOTH",
"239 228 OFFCURVE",
"253 223 OFFCURVE",
"255 203 CURVE SMOOTH",
"256 186 OFFCURVE",
"246 160 OFFCURVE",
"238 143 CURVE SMOOTH",
"220 109 OFFCURVE",
"179 55 OFFCURVE",
"142 23 CURVE SMOOTH",
"110 -3 OFFCURVE",
"80 -13 OFFCURVE",
"45 -15 CURVE SMOOTH",
"38 -15 OFFCURVE",
"39 -25 OFFCURVE",
"48 -25 CURVE SMOOTH",
"125 -25 OFFCURVE",
"196 27 OFFCURVE",
"245 89 CURVE SMOOTH",
"268 119 OFFCURVE",
"325 213 OFFCURVE",
"297 245 CURVE SMOOTH"
);
}
);
width = 257;
}
);
note = b;
unicode = 0062;
},
{
glyphname = c;
lastChange = "2021-04-19 06:54:11 +0000";
layers = (
{
hints = (
{
horizontal = 1;
place = "{-7, 20}";
type = Stem;
},
{
horizontal = 1;
place = "{271, -20}";
target = down;
type = TopGhost;
},
{
place = "{43, 46}";
type = Stem;
}
);
layerId = "C2A7C206-1962-4FAA-88DB-FE8C23752EC9";
paths = (
{
closed = 1;
nodes = (
"323 172 OFFCURVE",
"323 173 OFFCURVE",
"322 172 CURVE SMOOTH",
"284 118 OFFCURVE",
"223 40 OFFCURVE",
"154 26 CURVE SMOOTH",
"85 12 OFFCURVE",
"79 71 OFFCURVE",
"100 127 CURVE SMOOTH",
"121 183 OFFCURVE",
"176 252 OFFCURVE",
"245 235 CURVE SMOOTH",
"258 232 OFFCURVE",
"263 222 OFFCURVE",
"265 207 CURVE",
"266 207 OFFCURVE",
"267 208 OFFCURVE",
"269 211 CURVE SMOOTH",
"273 215 OFFCURVE",
"277 225 OFFCURVE",
"278 238 CURVE SMOOTH",
"279 266 OFFCURVE",
"264 275 OFFCURVE",
"239 269 CURVE SMOOTH",
"183 257 OFFCURVE",
"116 201 OFFCURVE",
"75 136 CURVE SMOOTH",
"37 75 OFFCURVE",
"12 -24 OFFCURVE",
"126 -4 CURVE SMOOTH",
"192 7 OFFCURVE",
"244 60 OFFCURVE",
"284 110 CURVE SMOOTH",
"299 128 OFFCURVE",
"312 146 OFFCURVE",
"324 163 CURVE SMOOTH",
"326 166 OFFCURVE",
"326 169 OFFCURVE",
"324 171 CURVE SMOOTH"
);
}
);
width = 219;
}
);
note = c;
unicode = 0063;
},
{
glyphname = ccedilla;
lastChange = "2021-04-19 06:54:11 +0000";
layers = (
{
hints = (
{
horizontal = 1;
place = "{271, -20}";
target = down;
type = TopGhost;
},
{
place = "{43, 46}";
type = Stem;
}
);
layerId = "C2A7C206-1962-4FAA-88DB-FE8C23752EC9";
paths = (
{
closed = 1;
nodes = (
"94 -7 LINE",
"103 -7 OFFCURVE",
"114 -7 OFFCURVE",
"126 -4 CURVE SMOOTH",
"192 7 OFFCURVE",
"244 60 OFFCURVE",
"284 110 CURVE SMOOTH",
"299 128 OFFCURVE",
"312 146 OFFCURVE",
"324 163 CURVE SMOOTH",
"326 166 OFFCURVE",
"326 169 OFFCURVE",
"324 171 CURVE SMOOTH",
"323 172 OFFCURVE",
"323 173 OFFCURVE",
"322 172 CURVE SMOOTH",
"284 118 OFFCURVE",
"223 40 OFFCURVE",
"154 26 CURVE SMOOTH",
"85 12 OFFCURVE",
"79 71 OFFCURVE",
"100 127 CURVE SMOOTH",
"121 183 OFFCURVE",
"176 252 OFFCURVE",
"245 235 CURVE SMOOTH",
"258 232 OFFCURVE",
"263 222 OFFCURVE",
"265 207 CURVE",
"266 207 OFFCURVE",
"267 208 OFFCURVE",
"269 211 CURVE SMOOTH",
"273 215 OFFCURVE",
"277 225 OFFCURVE",
"278 238 CURVE SMOOTH",
"279 266 OFFCURVE",
"264 275 OFFCURVE",
"239 269 CURVE SMOOTH",
"183 257 OFFCURVE",
"116 201 OFFCURVE",
"75 136 CURVE SMOOTH",
"44 87 OFFCURVE",
"22 13 OFFCURVE",
"74 -3 CURVE",
"60 -13 OFFCURVE",
"51 -28 OFFCURVE",
"45 -46 CURVE SMOOTH",
"39 -67 OFFCURVE",
"62 -93 OFFCURVE",
"58 -108 CURVE SMOOTH",
"53 -126 OFFCURVE",
"44 -136 OFFCURVE",
"31 -139 CURVE SMOOTH",
"-13 -146 LINE SMOOTH",
"-17 -147 OFFCURVE",
"-21 -149 OFFCURVE",
"-22 -152 CURVE SMOOTH",
"-23 -157 OFFCURVE",
"-22 -161 OFFCURVE",
"-17 -161 CURVE SMOOTH",
"4 -161 OFFCURVE",
"24 -156 OFFCURVE",
"43 -147 CURVE SMOOTH",
"68 -136 OFFCURVE",
"83 -121 OFFCURVE",
"88 -102 CURVE SMOOTH",
"92 -91 OFFCURVE",
"89 -78 OFFCURVE",
"82 -63 CURVE SMOOTH",
"74 -49 OFFCURVE",
"71 -40 OFFCURVE",
"72 -36 CURVE SMOOTH",
"76 -24 OFFCURVE",
"83 -14 OFFCURVE",
"93 -8 CURVE"
);
}
);
width = 219;
}
);
note = ccedilla;
unicode = 00E7;
},
{
glyphname = d;
lastChange = "2021-04-19 06:54:11 +0000";
layers = (
{
hints = (
{
horizontal = 1;
place = "{-9, 277}";
type = Stem;
},
{
place = "{187, 44}";
type = Stem;
},
{
place = "{467, 17}";
type = Stem;
}
);
layerId = "C2A7C206-1962-4FAA-88DB-FE8C23752EC9";
paths = (
{
closed = 1;
nodes = (
"424 601 OFFCURVE",
"347 492 OFFCURVE",
"286 355 CURVE SMOOTH",
"273 326 OFFCURVE",
"261 297 OFFCURVE",
"250 265 CURVE",
"244 267 OFFCURVE",
"241 268 OFFCURVE",
"237 268 CURVE SMOOTH",
"187 272 OFFCURVE",
"135 215 OFFCURVE",
"100 170 CURVE SMOOTH",
"74 138 OFFCURVE",
"49 101 OFFCURVE",
"36 72 CURVE SMOOTH",
"8 11 OFFCURVE",
"8 -33 OFFCURVE",
"82 14 CURVE SMOOTH",
"104 29 OFFCURVE",
"127 49 OFFCURVE",
"149 70 CURVE SMOOTH",
"170 90 OFFCURVE",
"190 111 OFFCURVE",
"211 134 CURVE",
"202 108 OFFCURVE",
"193 83 OFFCURVE",
"189 56 CURVE SMOOTH",
"178 -30 OFFCURVE",
"228 -21 OFFCURVE",
"286 27 CURVE SMOOTH",
"309 45 OFFCURVE",
"330 67 OFFCURVE",
"349 90 CURVE SMOOTH",
"369 114 OFFCURVE",
"387 139 OFFCURVE",
"405 162 CURVE SMOOTH",
"407 164 OFFCURVE",
"406 168 OFFCURVE",
"405 170 CURVE SMOOTH",
"404 171 OFFCURVE",
"403 172 OFFCURVE",
"402 171 CURVE SMOOTH",
"374 131 OFFCURVE",
"329 75 OFFCURVE",
"283 40 CURVE SMOOTH",
"265 27 OFFCURVE",
"248 18 OFFCURVE",
"238 25 CURVE SMOOTH",
"229 33 OFFCURVE",
"229 56 OFFCURVE",
"242 100 CURVE SMOOTH",
"260 168 LINE",
"265 176 LINE",
"281 193 OFFCURVE",
"333 256 OFFCURVE",
"383 327 CURVE SMOOTH",
"413 370 OFFCURVE",
"523 530 OFFCURVE",
"471 568 CURVE SMOOTH"
);
},
{
closed = 1;
nodes = (
"479 545 OFFCURVE",
"460 495 OFFCURVE",
"437 448 CURVE SMOOTH",
"413 400 OFFCURVE",
"382 349 OFFCURVE",
"370 332 CURVE SMOOTH",
"319 256 OFFCURVE",
"296 234 OFFCURVE",
"269 200 CURVE",
"290 278 OFFCURVE",
"340 401 OFFCURVE",
"384 479 CURVE SMOOTH",
"415 534 OFFCURVE",
"443 558 OFFCURVE",
"458 553 CURVE SMOOTH"
);
},
{
closed = 1;
nodes = (
"213 155 OFFCURVE",
"165 96 OFFCURVE",
"126 62 CURVE SMOOTH",
"109 46 OFFCURVE",
"72 16 OFFCURVE",
"69 61 CURVE SMOOTH",
"67 87 OFFCURVE",
"83 128 OFFCURVE",
"111 163 CURVE SMOOTH",
"139 199 OFFCURVE",
"171 229 OFFCURVE",
"207 234 CURVE SMOOTH",
"250 239 OFFCURVE",
"238 201 OFFCURVE",
"226 178 CURVE SMOOTH"
);
}
);
width = 302;
}
);
note = d;
unicode = 0064;
},
